<?xml version="1.0" encoding="UTF-8"?>
<svg width="48px" height="66px" viewBox="0 0 48 66" version="1.1" xmlns="http://www.w3.org/2000/svg" xmlns:xlink="http://www.w3.org/1999/xlink">
    <title>Color Tarjeta / cuentarut</title>
    <defs>
        <rect id="path-1" x="0" y="0" width="66" height="66"></rect>
    </defs>
    <g id="Color-Tarjeta-/-cuentarut" stroke="none" stroke-width="1" fill="none" fill-rule="evenodd">
        <g id="Group" transform="translate(-18.000000, 0.000000)">
            <mask id="mask-2" fill="white">
                <use xlink:href="#path-1"></use>
            </mask>
            <g id="Mask"></g>
            <g mask="url(#mask-2)" fill-rule="nonzero">
                <g transform="translate(18.500000, 0.562781)">
                    <path d="M29.4654895,0.89309487 L29.4661074,0.893913788 C30.2130374,1.88427294 30.0149636,3.29176303 29.0236242,4.03814999 L27.112697,5.47599486 C27.517667,5.49758335 27.9119331,5.67281795 28.2012988,5.98849978 L28.2998143,6.10691335 C28.7319225,6.67984839 28.717531,7.44987138 28.3151939,8.0009034 L31.0192334,5.96443587 C32.0925501,5.15632758 33.6186205,5.37016182 34.4278073,6.44204797 L34.4284767,6.4429351 C34.7075397,6.8129465 34.8648394,7.23670501 34.9071187,7.66629732 L36.511599,6.45841463 C37.5382497,5.68544153 38.9791402,5.84747813 39.8106574,6.80109503 L39.9208423,6.9369139 C40.7300164,8.00980295 40.5154364,9.53458389 39.4414854,10.3431698 L37.7947096,11.5829954 C38.200751,11.7769729 38.5674847,12.0684675 38.857164,12.4521901 L38.8579621,12.4532478 C39.8227466,13.7324617 39.5669013,15.5504698 38.2864212,16.5145529 L6.58413591,40.3834443 C5.30441225,41.346958 3.48486661,41.0920018 2.52006703,39.8139837 L2.51926888,39.812926 C1.9271296,39.0278047 1.79479258,38.0397237 2.0769445,37.1706742 C1.61998681,37.022009 1.20244727,36.7365954 0.891063443,36.324122 L0.890394026,36.3232348 C0.081219944,35.2503457 0.295799898,33.7255648 1.36975091,32.916979 L3.77044749,31.1089537 C3.36915371,30.9500806 3.00512951,30.6825834 2.72625327,30.3131711 L2.72558385,30.3122839 C1.91640977,29.2393948 2.13098972,27.7146139 3.20494073,26.9060281 L6.94002637,24.0948733 C6.29897719,24.3299306 5.55360749,24.1318605 5.12125008,23.55914 L5.12081238,23.5585599 C4.59173703,22.8570555 4.7320393,21.8600833 5.43423806,21.3313926 L10.7606023,17.3213787 C10.0343877,17.3649281 9.30072175,17.0559514 8.82993663,16.4323277 L8.82931868,16.4315088 C8.08238878,15.4411496 8.28046259,14.0336595 9.27180195,13.2872726 L26.3191136,0.452222167 C27.3098674,-0.293723915 28.7185479,-0.0963384837 29.4654895,0.89309487 Z M36.5939416,2.84097546 C37.3695432,2.84097546 37.9982926,3.46918545 37.9982926,4.24412174 C37.9982926,5.01905803 37.3695432,5.64726801 36.5939416,5.64726801 C35.8183399,5.64726801 35.1895905,5.01905803 35.1895905,4.24412174 C35.1895905,3.46918545 35.8183399,2.84097546 36.5939416,2.84097546 Z" id="Combined-Shape" fill="#002BAE"></path>
                    <path d="M67.9579404,34.6914625 L67.9584037,34.6920785 C68.3420544,35.20269 68.3930002,35.8607159 68.1478586,36.40497 L70.8026148,34.3976245 C71.503794,33.8677022 72.4843175,33.9706951 73.0626234,34.6107405 L73.1608263,34.7298611 C73.7205411,35.4748007 73.5721137,36.5335026 72.8292501,37.0949284 L36.5222227,64.5342796 C35.8210435,65.0642019 34.84052,64.9612091 34.2622142,64.3211636 L34.1640112,64.2020431 C33.7801268,63.6911208 33.7293526,63.0326046 33.975004,62.4881579 L31.3197998,64.496497 C30.5773747,65.0575912 29.5217748,64.9091197 28.9620513,64.1648763 L28.9615883,64.1642605 C28.4018736,63.4193209 28.5503009,62.360619 29.2931648,61.7991932 L65.6001918,34.3598419 C66.3426173,33.7987477 67.3982168,33.9472193 67.9579404,34.6914625 Z M48.5912278,12.1586206 L48.5920765,12.1597499 C49.6182201,13.5254724 49.3461033,15.4664259 47.9841864,16.4957066 L45.3483877,18.4862975 C46.1028516,18.410306 46.8774973,18.719411 47.3673228,19.3707136 L47.3679402,19.3715349 C47.9969682,20.2087255 47.9552038,21.3431294 47.3334319,22.1271964 L48.2265798,21.4509613 C48.9690047,20.8898671 50.0246047,21.0383387 50.5843283,21.7825819 L50.5847912,21.7831979 C50.9857372,22.3168278 51.0233052,23.0114626 50.7392916,23.568977 C51.8331665,23.0596676 53.1703982,23.3662565 53.9262745,24.3713164 L53.9269949,24.3722745 C54.7976621,25.5310695 54.5667749,27.177939 53.4112092,28.0512681 L52.9556561,28.3952895 C53.4783861,28.4929517 53.9707761,28.7617236 54.3417626,29.1887967 L54.4518528,29.3250124 C55.0075206,30.0645658 55.0799997,31.0182094 54.722615,31.8055917 L55.46066,31.2474263 C56.6155431,30.3746131 58.2575877,30.6055689 59.1282685,31.7632806 L59.1289889,31.7642388 C59.6901468,32.5110992 59.79372,33.4607055 59.4870632,34.2752842 L61.1113953,33.0459996 C61.9363121,32.4225616 63.1092012,32.5875301 63.7311162,33.4144669 L63.7316308,33.4151514 C64.353536,34.242862 64.1886165,35.4191974 63.3632122,36.0430039 L26.3091587,64.0469269 C25.484242,64.6703649 24.3113532,64.5053964 23.6894382,63.6784594 L23.6889237,63.6777753 C23.3315273,63.2021066 23.2339851,62.611302 23.3723191,62.0763935 L22.7546111,62.5436748 C21.5997277,63.4164882 19.9576833,63.1855323 19.0870023,62.0278208 L19.086282,62.0268623 C18.4770976,61.2160824 18.4071742,60.1663673 18.8159279,59.3098497 L17.8154513,60.0675332 C16.7430595,60.8780028 15.2183041,60.6635439 14.4098146,59.588526 L14.4091458,59.5876362 C13.600669,58.5116122 13.815064,56.9823762 14.8880896,56.1714278 L15.5790815,55.6503514 C14.9276441,55.5502425 14.3130929,55.2050647 13.8850081,54.6358564 L13.8842878,54.6348982 C13.2436217,53.7822183 13.1993931,52.66527 13.6811315,51.7867029 L12.900296,52.3780583 C12.157871,52.9391524 11.102271,52.7906808 10.5425475,52.0464376 L10.5420845,52.0458216 C10.0846887,51.437061 10.100195,50.6187678 10.5265513,50.0335485 L3.59651353,55.2714717 C2.60661345,56.0195973 1.19914685,55.8216352 0.452848895,54.8293109 L0.452231504,54.8284896 C-0.294054777,53.8352368 -0.0961516557,52.4236343 0.894333483,51.6750665 L8.73546456,45.7498164 C7.622828,45.9544978 6.43872466,45.5361234 5.71137008,44.5689874 L5.71052119,44.5678581 C4.68437754,43.2021355 4.95649432,41.2611821 6.31841138,40.2319014 L44.2686888,11.5506494 C45.6298014,10.5219767 47.565068,10.7941747 48.5912278,12.1586206 Z M4.54674162,45.1569395 C5.32167494,45.1569395 5.94988251,45.786985 5.94988251,46.5641855 C5.94988251,47.341386 5.32167494,47.9714315 4.54674162,47.9714315 C3.77180831,47.9714315 3.14360073,47.341386 3.14360073,46.5641855 C3.14360073,45.786985 3.77180831,45.1569395 4.54674162,45.1569395 Z" id="Combined-Shape" fill="#FA002E"></path>
                    <path d="M10.8417834,27.5535706 C11.1171176,26.786982 10.6881298,25.9166913 18.9196523,21.5659711 C18.9013819,17.0124884 19.092977,14.3739504 19.4944374,13.6503572 C19.8958979,12.926764 21.5099004,14.6405952 24.336445,18.791851 C32.2037786,16.3641982 36.5845208,15.4644704 37.4786716,16.0926675 C38.3728224,16.7208647 35.7694197,20.0847059 29.6684633,26.1841912 C32.0120617,36.5243431 32.8503053,42.1634599 32.183194,43.1015416 C31.5160827,44.0396233 28.4395388,40.6313209 22.9535624,32.8766345 C18.532869,37.6337346 15.9519997,40.0122847 15.2109544,40.0122847 C14.4699091,40.0122847 14.9173499,36.4772558 16.5532768,29.407198 C12.5620585,28.6825055 10.6582273,28.0646297 10.8417834,27.5535706 Z" id="Path-Copy-5" fill="#FFFFFF"></path>
                </g>
            </g>
        </g>
    </g>
</svg>