<svg role="img" alt="ícono" aria-label="ícono" focusable="false"  width="82" height="82" viewBox="0 0 82 82" xmlns="http://www.w3.org/2000/svg"><g fill="none" fill-rule="evenodd"><path d="M59.383 10.726h-38.06a3.611 3.611 0 00-3.612 3.611v49.1l3.121 3.121 2.972-2.972L26.8 66.58l3.069-3.07 3.13 3.13 3.167-3.166 3.198 3.198 3.267-3.267 3.331 3.33 3.233-3.231 3.347 3.349 3.416-3.416 3.474 3.474 3.562-3.564v-49.01a3.612 3.612 0 00-3.61-3.612" fill="#CDD4E7"/><path fill="#858A94" d="M25.11 22.254h30.572v-3.621H25.11zM25.11 33.267h30.572v-3.621H25.11zM25.11 44.28h11.114v-3.62H25.11z"/><path d="M69.062 57.51c0 8.35-6.767 15.116-15.115 15.116-8.349 0-15.117-6.767-15.117-15.115 0-8.349 6.768-15.116 15.117-15.116 8.348 0 15.115 6.767 15.115 15.116" fill="#FF505B"/><path d="M54.834 56.071c-2.003-.829-2.582-1.328-2.582-2.228 0-.718.527-1.557 2.014-1.557 1.411 0 2.298.506 2.676.722a.408.408 0 00.584-.209l.572-1.507a.41.41 0 00-.175-.497c-.81-.476-1.72-.75-2.77-.833V48.13a.407.407 0 00-.407-.408H53.33a.407.407 0 00-.408.408v1.97c-2.109.473-3.45 2.019-3.45 4.016 0 2.42 1.935 3.513 4.024 4.332 1.653.67 2.327 1.348 2.327 2.342 0 1.094-.928 1.83-2.31 1.83a5.662 5.662 0 01-3.065-.914.405.405 0 00-.355-.047.414.414 0 00-.256.25l-.548 1.53a.408.408 0 00.147.47c.8.571 2.073.973 3.325 1.063v1.918c0 .225.184.407.408.407h1.439a.407.407 0 00.408-.407V64.85c2.175-.493 3.612-2.152 3.612-4.22 0-2.11-1.135-3.475-3.794-4.559" fill="#FFF"/></g></svg>
