<svg width="32" height="32" xmlns="http://www.w3.org/2000/svg"><g fill="none" fill-rule="evenodd"><path d="M23.061 2.731H6.706c-.857 0-1.551.695-1.551 1.552v21.098l1.34 1.341 1.278-1.277 1.288 1.288 1.318-1.32 1.345 1.345 1.361-1.36 1.374 1.374 1.404-1.404 1.431 1.431 1.39-1.388 1.438 1.438 1.468-1.467 1.492 1.493 1.531-1.532V4.283c0-.857-.695-1.552-1.552-1.552" fill="#BCC3E0"/><path fill="#343F57" d="M8.334 7.684H21.47V6.13H8.334zM8.334 12.417H21.47v-1.556H8.334zM8.334 17.15h4.776v-1.556H8.334z"/><path d="M27.966 22.835a6.495 6.495 0 11-12.99 0 6.495 6.495 0 0112.99 0" fill="#ED515B"/><path d="M21.852 22.216c-.86-.356-1.11-.57-1.11-.957 0-.309.228-.669.866-.669.607 0 .988.217 1.15.31a.175.175 0 00.251-.09l.246-.647a.176.176 0 00-.075-.214 2.732 2.732 0 00-1.19-.358v-.787a.175.175 0 00-.176-.175h-.608a.175.175 0 00-.175.175v.847c-.906.203-1.483.867-1.483 1.726 0 1.04.832 1.509 1.73 1.861.71.288 1 .58 1 1.006 0 .47-.4.787-.994.787-.462 0-.942-.144-1.316-.393a.174.174 0 00-.153-.02.178.178 0 00-.11.107l-.235.658a.175.175 0 00.063.201c.344.246.89.419 1.429.457v.824c0 .097.079.176.175.176h.618a.175.175 0 00.176-.176v-.877c.934-.211 1.552-.924 1.552-1.813 0-.907-.488-1.493-1.63-1.959" fill="#FFF"/></g></svg>