<?xml version="1.0" encoding="UTF-8"?>
<svg width="32px" height="32px" viewBox="0 0 32 32" version="1.1" xmlns="http://www.w3.org/2000/svg" xmlns:xlink="http://www.w3.org/1999/xlink">
    <title>ic_cheque</title>
    <g id="ic_cheque" stroke="none" stroke-width="1" fill="none" fill-rule="evenodd">
        <g id="Group-17" transform="translate(1.809980, 4.090576)">
            <path d="M25.7614829,22.0993277 L2.61934745,22.0993277 C1.9053386,22.0993277 1.32665633,21.5206455 1.32665633,20.8066366 L1.32665633,5.87044774 C1.32665633,5.15643888 1.9053386,4.57775661 2.61934745,4.57775661 L25.7614829,4.57775661 C26.4754917,4.57775661 27.054174,5.15643888 27.054174,5.87044774 L27.054174,20.8066366 C27.054174,21.5206455 26.4754917,22.0993277 25.7614829,22.0993277" id="Fill-1" fill="#D9DBE0" transform="translate(14.190415, 13.338542) rotate(-10.000000) translate(-14.190415, -13.338542) "></path>
            <path d="M25.8303526,8.10452193 L25.8303526,5.97796126 C25.8303526,5.2639524 25.2516704,4.68398131 24.5363727,4.68398131 L1.39552608,4.68398131 C0.681517224,4.68398131 0.101546131,5.2639524 0.101546131,5.97796126 L0.101546131,8.10452193 L25.8303526,8.10452193 Z" id="Fill-3" fill="#FFBD65" transform="translate(12.965949, 6.394252) rotate(-10.000000) translate(-12.965949, -6.394252) "></path>
            <path d="M8.1096354,16.0903603 C7.82978808,15.9003585 7.43853868,15.7929857 6.94498953,15.7722359 L6.18122959,15.743144 C5.96699357,15.7347299 5.80961438,15.6994942 5.71180701,15.6369582 C5.62996804,15.5856033 5.58302686,15.5098991 5.5633993,15.3985856 C5.53491539,15.2370454 5.57469896,15.1054583 5.68866194,14.9817868 C5.81204861,14.8480554 6.00066643,14.7588095 6.24908547,14.7150066 C6.75814089,14.6252464 7.18668499,14.6980493 7.56082797,14.9386092 C7.60961198,14.9691985 7.66790167,14.974317 7.72140415,14.9522859 C7.77354915,14.9304941 7.81164393,14.8845858 7.82267108,14.8280536 L7.96961451,14.1134976 C7.98303859,14.046745 7.95542019,13.9774314 7.89953073,13.9382972 C7.69673184,13.7962959 7.45759569,13.6942943 7.19417893,13.637165 C6.9875337,13.5924203 6.7781702,13.5719495 6.5674459,13.5755134 L6.45662197,12.9469997 C6.44010609,12.8533335 6.35068296,12.7907187 6.25701676,12.8072346 L5.56198644,12.9297872 C5.46832025,12.9463031 5.40570549,13.0357262 5.42222137,13.1293924 L5.53519955,13.7701235 C5.13161768,13.9182686 4.81697691,14.1501088 4.60006152,14.4598961 C4.35383564,14.8098438 4.26874003,15.2083626 4.3453354,15.6427566 C4.41594676,16.0432135 4.59628467,16.351539 4.88147993,16.5559943 C5.15709413,16.753741 5.53341124,16.8637467 6.0002108,16.8836145 L6.7642101,16.9140638 C7.07865705,16.927203 7.22373691,16.980004 7.29008618,17.0228926 C7.37511882,17.0764837 7.42229936,17.1535454 7.44264501,17.2689313 C7.4651449,17.3965345 7.42855834,17.5065625 7.32897024,17.6165019 C7.21836162,17.735383 7.01249658,17.8220713 6.71249326,17.8749699 C6.4219923,17.9261931 6.14603023,17.932862 5.89139444,17.89378 C5.63516181,17.8535798 5.38899558,17.7752128 5.1588044,17.6604365 C5.10962035,17.6355165 5.05340622,17.6342311 5.00605175,17.6593772 C4.95710043,17.6834052 4.9230781,17.7285955 4.91269034,17.7808158 L4.76518288,18.5318631 C4.75135877,18.604285 4.7856039,18.6794285 4.85075636,18.7155298 C5.09587652,18.8514684 5.37525838,18.9435742 5.68163582,18.990329 C5.93307792,19.0271748 6.19378635,19.0371924 6.46104613,19.0208604 L6.56875838,19.6317269 C6.58527425,19.7253931 6.67469738,19.7880078 6.76836358,19.7714919 L7.4633939,19.6489393 C7.5570601,19.6324235 7.61967485,19.5430003 7.60315897,19.4493341 L7.48946271,18.8045306 C7.87012808,18.6534278 8.1726302,18.4321261 8.38906356,18.1434191 C8.64111609,17.81064 8.72900535,17.4200267 8.65217061,16.9842753 C8.58275605,16.5906057 8.40089998,16.2895464 8.1096354,16.0903603" id="Fill-6" fill="#2C3038"></path>
            <line x1="0.628108435" y1="10.5023133" x2="25.9647673" y2="6.03477671" id="Fill-8" fill="#A9A9A9"></line>
            <polygon id="Fill-10" fill="#E7EAED" transform="translate(13.296311, 8.268567) rotate(-10.000000) translate(-13.296311, -8.268567) " points="0.432552109 8.75187661 26.1600698 8.75187661 26.1600698 7.78525812 0.432552109 7.78525812"></polygon>
            <polygon id="Fill-12" fill="#8C919C" points="10.354967 14.7177781 17.8387603 13.3981834 17.5797722 11.9293889 10.0959789 13.2489836"></polygon>
            <polygon id="Fill-13" fill="#8C919C" points="10.8923315 17.7653232 25.2843461 15.2276227 25.025358 13.7588282 10.6333433 16.2965286"></polygon>
            <path d="M19.1135799,-0.0342580146 C18.8880356,-0.186339323 18.5812953,-0.128342214 18.429214,0.0972020997 L17.9832807,0.755791496 C17.980703,0.758369145 17.9819919,0.762235619 17.980703,0.764813269 L11.6409746,10.1216802 L11.4412068,14.1673008 L15.1246676,12.482807 L21.4643961,3.1246512 C21.4669737,3.12336238 21.4708402,3.12336238 21.472129,3.12078473 L21.9180623,2.46219533 C22.0714325,2.23665102 22.0121465,1.92991075 21.7866022,1.77782944 L19.1135799,-0.0342580146 Z" id="Fill-14" fill="#206BA8" transform="translate(16.722272, 7.024167) rotate(-90.000000) translate(-16.722272, -7.024167) "></path>
            <polygon id="Fill-15" fill="#206BA8" transform="translate(21.842982, 10.463373) rotate(-90.000000) translate(-21.842982, -10.463373) " points="20.2003748 8.4405626 23.6840678 10.8016894 20.0018958 12.4861832"></polygon>
            <polygon id="Fill-16" fill="#2C3038" transform="translate(23.255405, 11.728870) rotate(-90.000000) translate(-23.255405, -11.728870) " points="22.6793001 12.3391283 22.7398749 11.1186113 23.8315094 11.811999"></polygon>
            <path d="M10.3039817,5.50344778 L6.82415517,3.15649809 L8.43776363,0.764439542 C9.03062297,-0.11453887 10.2240746,-0.346527307 11.103053,0.246332032 L11.3981939,0.446099853 C12.2784611,1.03895919 12.5104495,2.23241082 11.9163014,3.11138923 L10.3039817,5.50344778 Z" id="Fill-1" fill="#3F3F3F" transform="translate(9.534863, 2.710708) rotate(-90.000000) translate(-9.534863, -2.710708) "></path>
        </g>
    </g>
</svg>