<?xml version="1.0" encoding="UTF-8"?>
<svg width="32px" height="32px" viewBox="0 0 32 32" version="1.1" xmlns="http://www.w3.org/2000/svg" xmlns:xlink="http://www.w3.org/1999/xlink">
    <title>ic_fly_money</title>
    <g id="ic_fly_money" stroke="none" stroke-width="1" fill="none" fill-rule="evenodd">
        <g id="Group" transform="translate(0.782683, 2.362510)">
            <path d="M29.3091391,13.7455866 C29.3091391,21.3369986 23.1551076,27.4910301 15.5635525,27.4910301 C7.97228351,27.4910301 1.81825203,21.3369986 1.81825203,13.7455866 C1.81825203,6.15417452 7.97228351,0 15.5635525,0 C23.1551076,0 29.3091391,6.15417452 29.3091391,13.7455866" id="Fill-1" fill="#EBEBEB"></path>
            <path d="M10.1537459,11.5086778 L8.44090646,11.5756798 C10.9066468,11.1735676 10.5513475,9.23753176 10.5513475,9.23753176 L9.00720916,9.63964386 C11.4049199,8.50020921 10.2743483,7.01433025 10.2743483,7.01433025 C7.84409724,8.35477081 4.42035051,9.32529631 2.16805414,11.5609353 C1.22092839,12.5010692 0.9297945,13.4418049 0.944742695,14.260573 C1.10876608,16.6775586 4.36452358,15.8754407 4.36452358,15.8754407 L4.37957346,15.8711277 C4.50709072,15.8336147 4.63918395,15.7962019 4.77564978,15.7589897 L4.79771616,15.752771 L4.79781785,15.7529716 C5.82273523,15.4746326 6.1613576,15.1478475 7.63217862,15.0140442 C9.44711318,14.8490468 9.58073173,13.6045956 9.58073173,13.6045956 L8.14967088,13.3400983 C10.1202904,13.4957676 10.1537459,11.5086778 10.1537459,11.5086778" id="Fill-1" fill="#B5B5B5" transform="translate(5.756665, 11.508716) scale(-1, 1) rotate(1.000000) translate(-5.756665, -11.508716) "></path>
            <path d="M10.1517233,11.3809654 L8.43888392,11.4479673 C10.9046242,11.0458552 10.549325,9.10981935 10.549325,9.10981935 L9.00518662,9.51193146 C11.4028974,8.3724968 10.2723258,6.88661784 10.2723258,6.88661784 C7.8420747,8.2270584 4.41832797,9.1975839 2.1660316,11.4332229 C1.21890584,12.3733568 0.927771956,13.3140925 0.942720151,14.1328606 C1.10674354,16.5498462 4.36250104,15.7477283 4.36250104,15.7477283 L4.37755092,15.7434153 C4.50506817,15.7059023 4.6371614,15.6684895 4.77362724,15.6312773 L4.79569362,15.6250586 L4.79579531,15.6252592 C5.82071269,15.3469202 6.15933506,15.0201351 7.63015607,14.8863318 C9.44509063,14.7213344 9.57870919,13.4768832 9.57870919,13.4768832 L8.14764834,13.2123859 C10.1182678,13.3680552 10.1517233,11.3809654 10.1517233,11.3809654" id="Fill-4" fill="#DFBC92" transform="translate(5.754642, 11.381004) scale(-1, 1) rotate(1.000000) translate(-5.754642, -11.381004) "></path>
            <path d="M24.5889715,18.6475928 L9.73087837,19.7344024 C9.602619,19.7438332 9.49114653,19.6476387 9.48171569,19.5193793 L8.70272866,8.87026818 C8.69348644,8.74200881 8.78968096,8.63072495 8.91775171,8.62129411 L23.7760335,7.5344846 C23.9042928,7.52505376 24.0157653,7.6214369 24.0251961,7.74950765 L24.8041832,18.3986188 C24.8134254,18.5266895 24.7172309,18.638162 24.5889715,18.6475928" id="Fill-3" fill="#41A780"></path>
            <path d="M20.9483294,13.3596855 C20.779706,11.0549779 18.774899,9.32347642 16.4701913,9.49209976 C14.1654837,9.66072311 12.4337936,11.6657188 12.6026056,13.9700492 C12.7710403,16.2747568 14.776036,18.0064469 17.080555,17.8378236 C19.3852627,17.6693888 21.1169527,15.6643932 20.9483294,13.3596855" id="Fill-6" fill="#A6DABF"></path>
            <path d="M16.7376121,16.1215246 L16.6925327,15.5045593 C16.3377447,15.5243641 15.9631519,15.4413728 15.7379435,15.3040598 L15.8546973,14.8838217 C16.0855641,15.0145331 16.4116824,15.1073325 16.7538331,15.0822465 C17.1876516,15.0505589 17.4626548,14.7787622 17.4370029,14.4303872 C17.4124827,14.0942722 17.1589819,13.9039579 16.6934758,13.753819 C16.0523676,13.555017 15.6470303,13.3022706 15.6081752,12.7703714 C15.5708291,12.2633697 15.9031718,11.8519967 16.458648,11.7193991 L16.41338,11.1022452 L16.792311,11.0745186 L16.8358814,11.6671523 C17.2031182,11.6528174 17.4609572,11.7320364 17.645613,11.8229497 L17.5222576,12.2373406 C17.388717,12.1733995 17.1284259,12.0574003 16.7374235,12.0858814 C16.2670134,12.1203982 16.1102729,12.4144517 16.1281915,12.658899 C16.1513914,12.9763409 16.3890484,13.1187465 16.9367914,13.2998186 C17.5846898,13.5105034 17.9258974,13.8051227 17.9656955,14.3489047 C18.0007783,14.8313863 17.6978598,15.3082093 17.0761791,15.457971 L17.1225788,16.0934207 L16.7376121,16.1215246 Z" id="Fill-8" fill="#008A45"></path>
            <path d="M16.6053729,16.2746248 L16.5599163,15.6501149 C16.2258761,15.6459653 15.8867432,15.5622195 15.6636097,15.4262268 L15.5713761,15.370019 L15.7660285,14.6694966 L15.9252211,14.7596554 C16.1641984,14.8945163 16.4624015,14.9599663 16.7432518,14.9397843 C16.9186653,14.9267698 17.0697473,14.8673555 17.1682052,14.7721041 C17.2602502,14.6836428 17.3038206,14.5691525 17.2942012,14.4408931 C17.276094,14.1915418 17.0891748,14.0317835 16.6493206,13.8899437 C16.0642316,13.7084944 15.5144139,13.4482033 15.4653735,12.7808774 C15.4259526,12.2384157 15.753014,11.7910169 16.3075471,11.6131513 L16.260393,10.9699683 L16.924701,10.9216824 L16.9684601,11.5226153 C17.2434633,11.5292169 17.4860244,11.5850474 17.7087807,11.6946337 L17.8174239,11.7480123 L17.6114545,12.4387267 L17.4605611,12.3664865 C17.357765,12.3170689 17.1159584,12.2022013 16.7477786,12.2286077 C16.5731195,12.2414336 16.4378813,12.2966983 16.3569647,12.3881774 C16.2722758,12.4838061 16.2666173,12.5920721 16.2707669,12.6482798 C16.285479,12.8472705 16.391293,12.9687396 16.9816633,13.1641466 C17.4775366,13.3252252 18.0545152,13.6047552 18.1084595,14.3382856 C18.1490121,14.8992317 17.7991281,15.378884 17.2274309,15.563917 L17.2759054,16.2255845 L16.6053729,16.2746248 Z" id="Path" fill="#41A780"></path>
            <path d="M18.3255596,5.84725149 L12.746843,5.84725149 C12.5835009,5.84725149 12.4499603,5.71371086 12.4499603,5.55036878 C12.4499603,5.38721533 12.5835009,5.25348607 12.746843,5.25348607 L18.3255596,5.25348607 C18.488713,5.25348607 18.6224423,5.38721533 18.6224423,5.55036878 C18.6224423,5.71371086 18.488713,5.84725149 18.3255596,5.84725149" id="Fill-15" fill="#8C919C"></path>
            <path d="M19.5594901,5.84725149 L19.5415715,5.84725149 C19.3831335,5.84725149 19.2535538,5.71767181 19.2535538,5.55942239 L19.2535538,5.5415038 C19.2535538,5.38306576 19.3831335,5.25348607 19.5415715,5.25348607 L19.5594901,5.25348607 C19.7179282,5.25348607 19.8473192,5.38306576 19.8473192,5.5415038 L19.8473192,5.55942239 C19.8473192,5.71767181 19.7179282,5.84725149 19.5594901,5.84725149" id="Fill-17" fill="#8C919C"></path>
            <path d="M10.9469153,5.84725149 L8.90589378,5.84725149 C8.74236309,5.84725149 8.60882246,5.71366843 8.60882246,5.55027445 C8.60882246,5.38706914 8.74236309,5.25348607 8.90589378,5.25348607 L10.9469153,5.25348607 C11.1102573,5.25348607 11.243798,5.38706914 11.243798,5.55027445 C11.243798,5.71366843 11.1102573,5.84725149 10.9469153,5.84725149" id="Fill-19" fill="#8C919C"></path>
            <path d="M14.5852319,22.3742082 L13.854908,22.3742082 C13.6915659,22.3742082 13.5580253,22.216414 13.5580253,22.0234057 C13.5580253,21.8303975 13.6915659,21.6726033 13.854908,21.6726033 L14.5852319,21.6726033 C14.748574,21.6726033 14.8821146,21.8303975 14.8821146,22.0234057 C14.8821146,22.216414 14.748574,22.3742082 14.5852319,22.3742082" id="Fill-21" fill="#8C919C"></path>
            <path d="M20.1177563,22.3742082 L15.9532878,22.3742082 C15.7901343,22.3742082 15.6565937,22.216414 15.6565937,22.0234057 C15.6565937,21.8303975 15.7901343,21.6726033 15.9532878,21.6726033 L20.1177563,21.6726033 C20.2809097,21.6726033 20.414639,21.8303975 20.414639,22.0234057 C20.414639,22.216414 20.2809097,22.3742082 20.1177563,22.3742082" id="Fill-24" fill="#8C919C"></path>
            <path d="M10.185015,13.538566 L8.47217564,13.6055679 C10.937916,13.2034558 10.5826167,11.2674199 10.5826167,11.2674199 L9.03847834,11.669532 C11.4361891,10.5300974 10.3056175,9.04421842 10.3056175,9.04421842 C7.87536642,10.384659 4.45161969,11.3551845 2.19932333,13.5908235 C1.25219757,14.5309574 0.961063681,15.4716931 0.976011876,16.2904611 C1.14003527,18.7074468 4.39579276,17.9053289 4.39579276,17.9053289 L4.41084264,17.9010159 C4.5383599,17.8635028 4.67045313,17.8260901 4.80691896,17.7888779 L4.82898534,17.7826591 L4.82908703,17.7828598 C5.85400441,17.5045207 6.19262678,17.1777357 7.6634478,17.0439324 C9.47838236,16.878935 9.61200092,15.6344838 9.61200092,15.6344838 L8.18094007,15.3699865 C10.1515596,15.5256557 10.185015,13.538566 10.185015,13.538566" id="Fill-1" fill="#B5B5B5" transform="translate(5.787934, 13.538604) scale(-1, 1) rotate(14.000000) translate(-5.787934, -13.538604) "></path>
            <path d="M10.1538853,13.4147286 L8.44104586,13.4817306 C10.9067862,13.0796185 10.5514869,11.1435826 10.5514869,11.1435826 L9.00734855,11.5456947 C11.4050593,10.40626 10.2744877,8.92038107 10.2744877,8.92038107 C7.84423664,10.2608216 4.42048991,11.2313471 2.16819354,13.4669861 C1.22106778,14.40712 0.929933895,15.3478557 0.94488209,16.1666238 C1.10890548,18.5836094 4.36466297,17.7814916 4.36466297,17.7814916 L4.37971286,17.7771786 C4.50723011,17.7396655 4.63932334,17.7022527 4.77578917,17.6650406 L4.79785556,17.6588218 L4.79795725,17.6590224 C5.82287463,17.3806834 6.161497,17.0538984 7.63231801,16.920095 C9.44725257,16.7550977 9.58087113,15.5106464 9.58087113,15.5106464 L8.14981028,15.2461492 C10.1204298,15.4018184 10.1538853,13.4147286 10.1538853,13.4147286" id="Fill-4" fill="#FFD7A7" transform="translate(5.756804, 13.414767) scale(-1, 1) rotate(14.000000) translate(-5.756804, -13.414767) "></path>
        </g>
    </g>
</svg>