<?xml version="1.0" encoding="UTF-8"?>
<svg width="32px" height="32px" viewBox="0 0 32 32" version="1.1" xmlns="http://www.w3.org/2000/svg" xmlns:xlink="http://www.w3.org/1999/xlink">
    <title>ic_house_cash</title>
    <g id="ic_house_cash" stroke="none" stroke-width="1" fill="none" fill-rule="evenodd">
        <g id="Brands-/-bip-Copy-8">
            <ellipse id="Oval" fill="#DAE5F7" cx="15.7590287" cy="22.3555885" rx="12.9552207" ry="2.28621541"></ellipse>
            <g id="Group" transform="translate(2.246562, 4.776761)">
                <g id="Group-21">
                    <polygon id="Fill-1" fill="#FF161F" points="9.7073104 0.132494466 -2.65068454e-05 7.4267807 0.383527545 8.06559568 2.44642278 8.27195147 25.8446778 7.64652245 25.8446778 7.06111877"></polygon>
                    <polygon id="Fill-2" fill="#F1DEA7" points="2.44621073 7.17244752 2.44872888 18.2580079 18.2359409 18.2580079 18.2334228 7.16900163 10.3384914 1.37354497"></polygon>
                    <polygon id="Fill-3" fill="#ECC37D" points="18.233383 7.16898838 18.2359011 18.2579946 18.2362987 18.2579946 24.7111259 16.2548723 24.7088728 7.16898838"></polygon>
                    <polygon id="Fill-4" fill="#FF161F" points="16.5947033 5.92572456 18.9778012 7.68339347 25.8446646 7.64654896 25.8446646 7.06114528 21.4748786 5.04795038"></polygon>
                    <g id="Group-20" transform="translate(0.265068, 0.100859)">
                        <path d="M8.99006167,18.1567384 L8.98820619,9.76374347 C8.98807366,9.50543426 8.77853704,9.29603019 8.52022784,9.29603019 L5.5431115,9.29656032 C5.28466976,9.29669286 5.07526568,9.50622947 5.07526568,9.76467121 L5.07725369,18.1567384 L8.99006167,18.1567384 Z" id="Fill-5" fill="#9F6C56"></path>
                        <polygon id="Fill-7" fill="#8B8B8B" points="11.1518937 14.1311438 11.1508334 9.29550005 15.8058331 9.29443977 15.8070259 14.1300836"></polygon>
                        <polygon id="Fill-9" fill="#FFFFFF" points="11.5413455 13.7264108 11.5404178 9.70015355 15.4163813 9.69922581 15.417309 13.7254831"></polygon>
                        <polygon id="Fill-11" fill="#C2161F" points="0.118419332 7.9648034 9.45134705 0.818690426 10.0734627 1.27275269 2.18118204 7.07165524 2.18131457 8.17115919"></polygon>
                        <g id="Group-15" transform="translate(9.409930, 0.000000)" fill="#E1161F">
                            <polygon id="Fill-13" points="0.0323516048 0.0316491734 9.69184365 6.96133375 16.1697191 6.96027348 7.66897375 0.509037458"></polygon>
                        </g>
                        <polygon id="Fill-16" fill="#8B8B8B" points="13.6099928 13.9102093 13.3450568 13.9057031 13.4170229 9.61265445 13.6819588 9.61716062"></polygon>
                        <polygon id="Fill-18" fill="#8B8B8B" points="15.7726068 11.9220634 11.4800882 11.8304822 11.4856547 11.5656788 15.7783057 11.6571274"></polygon>
                    </g>
                </g>
                <g id="Color-/-ic_products_no_hand-Copy-2" transform="translate(14.898052, 9.837654)">
                    <path d="M12.5857103,6.30436084 C12.5857103,2.83526853 9.77350451,0.0230627736 6.3044122,0.0230627736 C2.83531988,0.0230627736 0.023114125,2.83526853 0.023114125,6.30436084 C0.023114125,9.77345316 2.83531988,12.5857616 6.3044122,12.5857616 C9.77350451,12.5857616 12.5857103,9.77345316 12.5857103,6.30436084" id="Fill-1" fill="#79CFFF"></path>
                    <path d="M0.162296845,7.62044479 C0.668210421,9.99287751 2.5133674,11.867921 4.86875148,12.4189211 L8.56368707,8.77882872 L3.8898919,3.89274703 L0.162296845,7.62044479 Z" id="Fill-4" fill-opacity="0.8" fill="#5AB9EE"></path>
                    <path d="M9.33011635,7.40359828 C9.35373798,6.23781976 8.02846214,5.27395477 6.37001869,5.25064126 C4.71136984,5.22732774 3.34758048,6.15339812 3.32385615,7.31917664 C3.30013183,8.48485246 4.62540766,9.44882015 6.28405652,9.47213367 C7.94260267,9.49544718 9.30639202,8.5693768 9.33011635,7.40359828" id="Fill-6" fill="#D29D48"></path>
                    <path d="M9.33011635,5.86411538 C9.35373798,4.69833686 8.02846214,3.73447188 6.37001869,3.71115836 C4.71136984,3.68784485 3.34758048,4.61391523 3.32385615,5.77969375 C3.30013183,6.94536957 4.62540766,7.90933726 6.28405652,7.93265077 C7.94260267,7.95596429 9.30639202,7.02989391 9.33011635,5.86411538" id="Fill-8" fill="#DB9F3F"></path>
                    <path d="M9.33011635,6.88281335 C9.35373798,5.71713753 8.02846214,4.75316984 6.37001869,4.72985633 C4.71136984,4.70654281 3.34758048,5.6327159 3.32385615,6.79839172 C3.30013183,7.96406754 4.62540766,8.92803522 6.28405652,8.95134874 C7.94260267,8.97466225 9.30639202,8.04859187 9.33011635,6.88281335" id="Fill-10" fill="#BF8142"></path>
                    <path d="M9.33011635,6.70986198 C9.35373798,5.54408345 8.02846214,4.58021847 6.37001869,4.55690495 C4.71136984,4.53359144 3.34758048,5.45966182 3.32385615,6.62544034 C3.30013183,7.79111616 4.62540766,8.75508385 6.28405652,8.77839737 C7.94260267,8.80171088 9.30639202,7.8756405 9.33011635,6.70986198" id="Fill-12" fill="#D29D48"></path>
                    <path d="M9.33011635,6.04614568 C9.35373798,4.88046986 8.02846214,3.91650217 6.37001869,3.89318866 C4.71136984,3.86987514 3.34758048,4.79604823 3.32385615,5.96172405 C3.30013183,7.12739986 4.62540766,8.09136755 6.28405652,8.11468107 C7.94260267,8.13799458 9.30639202,7.2119242 9.33011635,6.04614568" id="Fill-14" fill="#BF8142"></path>
                    <path d="M9.33011635,5.86411538 C9.35373798,4.69833686 8.02846214,3.73447188 6.37001869,3.71115836 C4.71136984,3.68784485 3.34758048,4.61391523 3.32385615,5.77969375 C3.30013183,6.94536957 4.62540766,7.90933726 6.28405652,7.93265077 C7.94260267,7.95596429 9.30639202,7.02989391 9.33011635,5.86411538" id="Fill-16" fill="#D29D48"></path>
                    <path d="M9.33011635,5.17828719 C9.35373798,4.01250867 8.02846214,3.04864369 6.37001869,3.02533017 C4.71136984,3.00201665 3.34758048,3.92808704 3.32385615,5.09386556 C3.30013183,6.25954138 4.62540766,7.22350907 6.28405652,7.24682258 C7.94260267,7.2701361 9.30639202,6.34406571 9.33011635,5.17828719" id="Fill-18" fill="#FFD787"></path>
                    <path d="M6.17602205,6.40957227 L6.18205944,6.08688898 C5.96995342,6.08061845 5.75169609,6.02000336 5.62513873,5.93828745 L5.71706653,5.72538814 C5.84715519,5.80401856 6.03613688,5.86742055 6.24095247,5.87040651 C6.50067414,5.8740892 6.67860626,5.74569271 6.68202365,5.56344931 C6.68544104,5.3876755 6.54475847,5.27709526 6.27592377,5.17726449 C5.90536474,5.04418998 5.67776654,4.89389641 5.68300654,4.61590306 C5.68801872,4.35064984 5.90752909,4.15238176 6.24482551,4.10938386 L6.2508629,3.78660104 L6.47754979,3.7898856 L6.47185414,4.09972924 C6.69102278,4.10938386 6.84013491,4.16263357 6.94504879,4.21847112 L6.8497036,4.42798633 C6.77360971,4.38857159 6.62495323,4.31611217 6.39108982,4.31282761 C6.10938294,4.30874679 6.00059602,4.45416329 5.99808993,4.58206213 C5.99501428,4.74818132 6.12886207,4.83318179 6.44474285,4.95281945 C6.81894709,5.09246309 7.00599225,5.26126964 7.00063834,5.54573258 C6.99596791,5.79804663 6.79035492,6.03174816 6.41261938,6.08061845 L6.40635416,6.41285683 L6.17602205,6.40957227 Z" id="Fill-20" fill="#895F4D"></path>
                    <path d="M6.16685206,3.71072767 L6.56452238,3.71660006 L6.55848499,4.03092265 C6.72160842,4.04704686 6.86286055,4.08735739 6.98941791,4.15474067 L7.05115876,4.18748675 L6.89202228,4.53684466 L6.80613187,4.49225425 C6.74758059,4.46179741 6.60985976,4.39083097 6.38966591,4.38734735 C6.28509376,4.3859539 6.20170944,4.4082491 6.14862598,4.45214279 C6.09326425,4.49782805 6.0840373,4.55386466 6.08358165,4.58322665 C6.08153121,4.6873373 6.13814598,4.7554173 6.47874588,4.88431146 C6.76500928,4.99120901 7.09319266,5.1632006 7.08613005,5.54689711 C7.08054832,5.84021841 6.84679882,6.07312368 6.49697196,6.14269667 L6.49047892,6.48867048 L6.08916338,6.48289762 L6.0954286,6.15633257 C5.89710605,6.13861585 5.69992263,6.07929467 5.57439049,5.99827549 L5.52256007,5.96473315 L5.67565915,5.60980144 L5.76553652,5.664146 C5.90040952,5.74536425 6.07435469,5.79313969 6.2424903,5.79572753 C6.34729027,5.79732004 6.4403572,5.77343232 6.50403457,5.72854331 C6.56338325,5.68683933 6.5953928,5.62930974 6.59664585,5.56222506 C6.59903802,5.43183792 6.49651631,5.34016879 6.24260421,5.24591183 C5.90416865,5.12448258 5.5911357,4.96353907 5.59751483,4.61467882 C5.60309657,4.33091261 5.8213539,4.11373342 6.16058684,4.0471464 L6.16685206,3.71072767 Z" id="Fill-22" fill="#895F4D"></path>
                </g>
            </g>
        </g>
    </g>
</svg>