<?xml version="1.0" encoding="UTF-8"?>
<svg width="32px" height="32px" viewBox="0 0 32 32" version="1.1" xmlns="http://www.w3.org/2000/svg" xmlns:xlink="http://www.w3.org/1999/xlink">
    <title>ic_plant</title>
    <g id="ic_plant" stroke="none" stroke-width="1" fill="none" fill-rule="evenodd">
        <g id="Group" transform="translate(3.691647, 4.017514)">
            <path d="M1.43119352,0.010444681 C1.05897938,-0.0548883331 0.706549176,0.193101065 0.636615246,0.563474843 C0.467761611,1.46617466 -0.956682133,9.46486797 1.10314818,12.421877 C2.15307732,13.9295973 3.72751094,14.9381182 5.5365913,15.2615626 C5.94607287,15.3351773 6.35555444,15.3710645 6.76273555,15.3710645 C8.15497287,15.3710645 9.51270333,14.94732 10.6799558,14.1347982 C13.7920158,11.9663863 14.5603688,7.67051054 12.392417,4.55799053 C10.3330467,1.6014416 2.3361938,0.164115292 1.43119352,0.010444681" id="Fill-1" fill="#8FC58C"></path>
            <path d="M24.0506792,10.1890982 C23.4603817,10.0832772 18.2272992,9.1934599 16.258107,10.5875376 C15.2417645,11.3071209 14.5668101,12.3791345 14.3570083,13.6061989 C14.1467464,14.8332633 14.4274023,16.0690695 15.1465256,17.0849519 C15.8661089,18.1012943 16.9381224,18.7767088 18.1651869,18.9865106 C18.4311198,19.0315996 18.6965927,19.0541441 18.9606853,19.0541441 C19.9172159,19.0541441 20.8479813,18.7596855 21.6443999,18.1960732 C23.6131321,16.8024556 24.5135314,11.5707535 24.6096906,10.9790756 C24.6704227,10.6073215 24.4215131,10.2558115 24.0506792,10.1890982" id="Fill-3" fill="#8FC58C"></path>
            <path d="M19.5751377,14.0446202 C19.3598148,13.7294575 18.9310094,13.6489414 18.6158466,13.8633441 L15.500106,15.9894276 C14.3379145,16.8166724 13.5516179,17.8620006 13.0211322,18.8654605 C12.3802245,15.1755255 10.9139124,13.2523424 10.85134,13.1741268 L5.90903549,6.07905352 C5.69187223,5.7661912 5.26214663,5.68981599 4.94836413,5.90697925 C4.63550181,6.12506269 4.5586665,6.55524838 4.77674994,6.86765061 L9.73929847,13.9907895 C9.76092277,14.0188551 11.8239737,16.7784848 11.925654,22.000525 C10.2003103,22.1505149 8.99947109,22.6566157 8.91251377,22.6938831 C8.56238403,22.8447932 8.40135195,23.2510541 8.55226201,23.6011839 C8.70271198,23.9508535 9.10851282,24.1118856 9.45910265,23.9614356 C9.49130907,23.9471728 12.7533589,22.572879 16.1065068,23.9651164 C16.193004,24.0010035 16.2827219,24.0180269 16.3705994,24.0180269 C16.6415934,24.0180269 16.8983245,23.857915 17.0087465,23.5924421 C17.1545956,23.240472 16.9875823,22.8365115 16.6356122,22.6906625 C15.5074675,22.2222892 14.3995668,22.02537 13.3873651,21.9766003 C13.5787633,20.9703798 14.2325535,18.5857248 16.2891632,17.1217132 L19.3938616,15.0034512 C19.7085643,14.7885884 19.7900005,14.3593229 19.5751377,14.0446202" id="Fill-6" fill="#008A45"></path>
        </g>
    </g>
</svg>