<?xml version="1.0" encoding="UTF-8"?>
<svg width="32px" height="32px" viewBox="0 0 32 32" version="1.1" xmlns="http://www.w3.org/2000/svg" xmlns:xlink="http://www.w3.org/1999/xlink">
    <title>ic_phone_circle</title>
    <g id="ic_phone_circle" stroke="none" stroke-width="1" fill="none" fill-rule="evenodd">
        <g id="Group" transform="translate(1.416750, 1.416750)">
            <circle id="Oval" fill="#FFBD65" transform="translate(14.583250, 14.583250) scale(-1, 1) translate(-14.583250, -14.583250) " cx="14.5832495" cy="14.5832495" r="14.5832495"></circle>
            <path d="M18.746408,25.0138299 L10.420319,25.0138299 C9.75689473,25.0138299 9.21407231,24.4710074 9.21407231,23.8075831 L9.21407231,5.35891596 C9.21407231,4.69549166 9.75689473,4.15266923 10.420319,4.15266923 L18.746408,4.15266923 C19.4096044,4.15266923 19.9524268,4.69549166 19.9524268,5.35891596 L19.9524268,23.8075831 C19.9524268,24.4710074 19.4096044,25.0138299 18.746408,25.0138299" id="Fill-12" fill="#646464" transform="translate(14.583250, 14.583250) scale(-1, 1) translate(-14.583250, -14.583250) "></path>
            <path d="M18.5477227,21.8247652 L10.5962063,21.8247652 C10.3431475,21.8247652 10.1377368,21.6195824 10.1377368,21.3660677 L10.1377368,7.41705877 C10.1377368,7.16354406 10.3431475,6.95836128 10.5962063,6.95836128 L18.5477227,6.95836128 C18.8007815,6.95836128 19.0064202,7.16354406 19.0064202,7.41705877 L19.0064202,21.3660677 C19.0064202,21.6195824 18.8007815,21.8247652 18.5477227,21.8247652" id="Fill-13" fill="#FFFFFF" transform="translate(14.572078, 14.391563) scale(-1, 1) translate(-14.572078, -14.391563) "></path>
            <path d="M15.2077575,5.77840074 L13.4855901,5.77840074 C13.391434,5.77840074 13.3143765,5.70134321 13.3143765,5.60718712 L13.3143765,5.5431245 C13.3143765,5.4489684 13.391434,5.37191087 13.4855901,5.37191087 L15.2077575,5.37191087 C15.3019136,5.37191087 15.3787432,5.4489684 15.3787432,5.5431245 L15.3787432,5.60718712 C15.3787432,5.70134321 15.3019136,5.77840074 15.2077575,5.77840074" id="Fill-14" fill="#9E9E9E" transform="translate(14.346560, 5.575156) scale(-1, 1) translate(-14.346560, -5.575156) "></path>
            <path d="M16.4390593,5.57513301 C16.4390593,5.42557756 16.3202813,5.30429175 16.1739176,5.30429175 C16.0273259,5.30429175 15.9087759,5.42557756 15.9087759,5.57513301 C15.9087759,5.72468845 16.0273259,5.84597427 16.1739176,5.84597427 C16.3202813,5.84597427 16.4390593,5.72468845 16.4390593,5.57513301" id="Fill-15" fill="#9E9E9E" transform="translate(16.173918, 5.575133) scale(-1, 1) translate(-16.173918, -5.575133) "></path>
            <path d="M15.3250765,22.7021951 L13.8409211,22.7021951 C13.5513854,22.7021951 13.3142853,22.9392952 13.3142853,23.2292869 L13.3142853,23.4264903 C13.3142853,23.716254 13.5513854,23.9533541 13.8409211,23.9533541 L15.3250765,23.9533541 C15.6148401,23.9533541 15.8519402,23.716254 15.8519402,23.4264903 L15.8519402,23.2292869 C15.8519402,22.9392952 15.6148401,22.7021951 15.3250765,22.7021951" id="Fill-16" fill="#9E9E9E" transform="translate(14.583113, 23.327775) scale(-1, 1) translate(-14.583113, -23.327775) "></path>
        </g>
    </g>
</svg>