<?xml version="1.0" encoding="UTF-8"?>
<svg width="32px" height="32px" viewBox="0 0 32 32" version="1.1" xmlns="http://www.w3.org/2000/svg" xmlns:xlink="http://www.w3.org/1999/xlink">
    <title>ic_red</title>
    <g id="ic_red" stroke="none" stroke-width="1" fill="none" fill-rule="evenodd">
        <g id="Brands-/-bip-Copy-6" transform="translate(0.000000, 0.190576)" fill="#D80E2E">
            <path d="M28.135861,2.4877778 C28.8931739,2.4877778 29.5122222,3.10682612 29.5122222,3.86413904 L29.5122222,28.135861 C29.5122222,28.8931739 28.8931739,29.5122222 28.135861,29.5122222 L3.86413904,29.5122222 C3.1074546,29.5122222 2.4877778,28.8931739 2.4877778,28.135861 L2.4877778,3.86413904 C2.4877778,3.10682612 3.1074546,2.4877778 3.86413904,2.4877778 L28.135861,2.4877778 Z M7.9101383,19.2240162 C7.51796962,19.2240162 7.19996104,19.5420248 7.19996104,19.934822 C7.19996104,20.3269906 7.51796962,20.6449992 7.9101383,20.6449992 C8.30230698,20.6449992 8.62031556,20.3269906 8.62031556,19.934822 C8.62031556,19.5420248 8.30230698,19.2240162 7.9101383,19.2240162 Z M9.78318369,12.3074553 L7.89210105,12.3074553 C7.535127,12.3074553 7.24288591,12.6003249 7.24288591,12.957299 L7.24382863,12.9616983 C7.24477134,12.96924 7.24288591,12.9717539 7.24288591,12.9748963 L7.24288591,18.2144961 C7.24288591,18.5815258 7.54329718,18.8813086 7.91032684,18.8813086 C8.2773565,18.8813086 8.57713929,18.5815258 8.57713929,18.2144961 L8.57713929,17.9825887 C8.57713929,17.9825887 8.58342405,17.5734511 9.00073175,17.5608816 L9.88688213,17.5608816 C9.88688213,17.5608816 10.2425992,17.5439128 10.3946903,18.0234396 C10.5386112,18.4797127 10.7962861,20.2469857 11.976563,20.5983035 C12.0274695,20.6190432 12.0815184,20.6316127 12.1374527,20.637269 L12.1669911,20.6448107 L12.1669911,20.6448107 L12.1676195,20.6410398 C12.1801891,20.6416683 12.1921301,20.6448107 12.2046996,20.6448107 C12.5635591,20.6448107 12.8551717,20.3337153 12.8551717,19.9503453 C12.8551717,19.6838717 12.7106223,19.4739609 12.5051109,19.3658631 L12.5170519,19.3627207 C12.5170519,19.3627207 12.259377,19.2502236 12.1173415,19.0440837 C12.0318688,18.881937 11.9174863,18.60038 11.8357845,18.1478777 C11.7635098,17.7443965 11.5913076,17.4125614 11.439845,17.1837964 L11.439845,16.8217945 C11.5542275,16.7237523 12.2556061,16.0745372 12.2556061,14.9168854 C12.2556061,13.6580491 11.0338498,12.3074553 9.85357294,12.3074553 L9.78946844,12.3093408 L9.78946844,12.3093408 L9.78318369,12.3074553 Z M15.7115298,12.2755288 C14.7505908,12.2755288 13.91409,12.8028197 13.4546744,13.5777299 L13.4465042,13.5701882 C13.3314932,13.7197654 13.0782176,14.3029906 13.0782176,14.6712772 L13.0782176,18.2812402 C13.1020997,18.888976 13.3176668,19.2918287 13.3176668,19.2918287 C13.3176668,19.2918287 13.952427,20.6216828 15.6895331,20.6216828 C17.4260108,20.6216828 17.9803261,19.3722736 17.9803261,19.3722736 L17.976276,19.364825 L17.9463885,19.310683 L17.9463885,19.310683 C18.1047643,19.1868733 18.2090912,18.9958168 18.2090912,18.7789927 C18.2090912,18.4050499 17.906166,18.1021247 17.5322231,18.1021247 C17.2129576,18.1021247 16.9471125,18.323348 16.8760948,18.6206169 C16.8666676,18.6350719 16.8572405,18.6438705 16.8490703,18.6602109 C16.4682142,19.3798153 15.6713073,19.2811446 15.6713073,19.2811446 C14.6035275,19.2811446 14.4338392,18.4521855 14.412471,18.3101501 C14.412471,18.3000945 14.4181273,18.2919243 14.4181273,18.2812402 L14.4181273,17.9418634 C14.4457802,17.8488491 14.5425654,17.6024867 14.8134383,17.5754623 C14.8410913,17.5723199 14.8574316,17.568549 14.8744005,17.5641497 L17.0294428,17.5641497 C17.0602381,17.5641497 17.0872625,17.5509517 17.1168009,17.5465524 L17.1205717,17.5578649 C17.1205717,17.5578649 17.6704877,17.5082154 18.0482015,17.0110913 C18.3360433,16.6308637 18.3611823,16.1947017 18.3567829,16.008673 L18.3448419,14.894386 L18.3448419,14.6411104 L18.3410711,14.611572 L18.3410711,14.611572 L18.3404426,14.5474675 L18.3366717,14.5700927 C18.3165605,14.2420285 18.1600701,13.7995818 17.8986243,13.4488924 L17.8854264,13.4294097 L17.8433185,13.3671906 L17.8433185,13.3671906 L17.8395476,13.3741039 C17.3600209,12.7123192 16.5863676,12.2755288 15.7115298,12.2755288 Z M23.8056651,9.91158122 L23.7780122,9.91158122 C23.4090971,9.91158122 23.1068004,10.2138779 23.1068004,10.582793 L23.1068004,11.9805224 C23.0690919,12.4707333 22.5901936,12.4022294 22.5901936,12.4022294 L22.592079,12.4072572 C22.3381749,12.3242985 22.0704444,12.2752774 21.7895159,12.2752774 C20.8279484,12.2752774 19.9920761,12.8031968 19.5326605,13.578107 L19.5244903,13.5699368 C19.4094793,13.7201425 19.1568322,14.3027392 19.1568322,14.6716543 L19.1568322,18.225683 C19.1568322,18.5939696 19.4094793,19.1765663 19.5244903,19.326772 L19.5326605,19.3192302 C19.9920761,20.093512 20.8279484,20.621535 21.7895159,20.621535 C22.2979525,20.621535 22.7699376,20.4705973 23.1721618,20.2173217 L23.1677625,20.2242349 L23.5347922,20.2393183 C23.67997,20.5497852 24.2016046,20.7923767 24.5661204,20.4668264 C24.9300077,20.1419046 24.7967709,19.7063711 24.6547354,19.1564551 C24.5127,18.6065391 24.4775054,18.0641648 24.4775054,18.0641648 L24.4775054,10.582793 C24.4775054,10.2138779 24.1752087,9.91158122 23.8056651,9.91158122 Z M21.7895159,13.6409545 C22.5003216,13.6409545 23.0822899,14.2229228 23.0822899,14.934357 L23.0822899,17.9629802 C23.0822899,18.673786 22.5003216,19.2557542 21.7895159,19.2557542 C21.0787101,19.2557542 20.4967419,18.673786 20.4961134,17.9629802 L20.4961134,14.9337285 C20.4967419,14.2229228 21.0787101,13.6409545 21.7895159,13.6409545 Z M9.71782224,13.6065141 C9.71782224,13.6065141 10.9131825,13.7058132 10.9131825,14.953337 C10.9131825,16.1336737 9.80957395,16.2269332 9.70446837,16.2331386 L8.94354048,16.2335415 C8.81973082,16.206517 8.58405252,16.1153881 8.58405252,15.8124629 L8.57713929,15.8124629 L8.57713929,14.0401622 C8.57713929,14.0401622 8.59976441,13.607771 9.01015888,13.607771 L9.01015888,13.6065141 L9.71782224,13.6065141 Z M15.7115298,13.6412059 C16.422964,13.6412059 17.0049322,14.2231742 17.0049322,14.9339799 L17.0049322,15.9269712 C16.9584251,16.0375828 16.8553551,16.1984725 16.6435589,16.2248685 L14.823494,16.2248685 C14.823494,16.2248685 14.5300192,16.1687557 14.4414085,15.9214623 L14.4181273,15.8188734 L14.4181273,15.8188734 L14.4181273,14.9339799 C14.4187558,14.2231742 15.000724,13.6412059 15.7115298,13.6412059 Z" id="Combined-Shape"></path>
        </g>
    </g>
</svg>