<svg role="img" alt="ícono" aria-label="ícono" focusable="false"  width="24" height="24" viewBox="0 0 24 24" xmlns="http://www.w3.org/2000/svg"><g fill="none" fill-rule="evenodd"><path d="M11.061 22.164a2.11 2.11 0 01-1.793-2.38l.958-6.82a.49.49 0 01.969.136l-.959 6.82a1.13 1.13 0 00.961 1.275 1.13 1.13 0 001.275-.96.49.49 0 01.968.136 2.109 2.109 0 01-2.379 1.793" fill="#2C3038"/><path d="M19.042 13.882c-.32-3.959-3.41-7.233-7.348-7.787a8.527 8.527 0 00-9.185 5.401.325.325 0 00.502.376 2.196 2.196 0 011.652-.436c.709.1 1.329.543 1.659 1.184a.327.327 0 00.528.075 2.216 2.216 0 011.92-.682c.704.1 1.32.536 1.651 1.17a.328.328 0 00.525.074 2.22 2.22 0 011.91-.67 2.22 2.22 0 011.652 1.17c.097.187.38.227.524.074a2.218 2.218 0 011.91-.67c.614.087 1.15.418 1.507.933a.326.326 0 00.593-.212" fill="#06C47B"/><path d="M2.509 11.496a.326.326 0 00.502.376 2.194 2.194 0 011.652-.436c.709.1 1.329.543 1.659 1.184a.326.326 0 00.528.074 2.217 2.217 0 011.92-.68c.703.098 1.32.535 1.652 1.169a.326.326 0 00.525.074 2.22 2.22 0 011.91-.67 2.22 2.22 0 011.65 1.17.32.32 0 00.244.164c.086-.381 1.223-5.85-3.065-7.826a8.527 8.527 0 00-9.177 5.401z" fill="#06A669"/><path d="M11.686 6.095a8.527 8.527 0 00-9.177 5.401.326.326 0 00.502.376 2.194 2.194 0 011.652-.436c.709.1 1.329.543 1.659 1.184a.326.326 0 00.528.074 2.217 2.217 0 011.92-.68c.703.098 1.32.535 1.652 1.169.049.093.14.157.243.172l1.021-7.26z" fill="#048151"/><path d="M2.509 11.496a.326.326 0 00.502.376 2.194 2.194 0 011.652-.436c.709.1 1.329.543 1.659 1.184.039.075.105.13.183.158.238-1.5 1.294-6.205 5.19-6.683a8.527 8.527 0 00-9.186 5.4z" fill="#045E3C"/><path d="M19.692 5.414a1.023 1.023 0 11-1.623-1.246c.344-.448 2.225-1.217 2.225-1.217s-.258 2.015-.602 2.463M21.434 10.03a1.023 1.023 0 11-1.622-1.245c.344-.449 2.224-1.217 2.224-1.217s-.258 2.015-.602 2.463M14.96 4.648a1.023 1.023 0 11-1.622-1.246c.344-.448 2.224-1.217 2.224-1.217s-.257 2.016-.602 2.463" fill="#00AEFF"/></g></svg>
