<svg width="32" height="32" xmlns="http://www.w3.org/2000/svg"><g fill="none" fill-rule="evenodd"><path d="M16.456 28.595a3.243 3.243 0 01-2.758-3.659l1.474-10.488a.752.752 0 011.49.21l-1.474 10.488a1.738 1.738 0 001.477 1.96 1.738 1.738 0 001.96-1.477.752.752 0 011.49.21 3.243 3.243 0 01-3.66 2.756" fill="#2C3038"/><path d="M28.728 15.86C28.235 9.772 23.484 4.736 17.43 3.885a13.113 13.113 0 00-14.126 8.306.5.5 0 00.772.578 3.376 3.376 0 012.54-.67 3.41 3.41 0 012.552 1.82.503.503 0 00.812.115c.759-.81 1.863-1.201 2.954-1.048a3.408 3.408 0 012.538 1.799.504.504 0 00.807.113 3.413 3.413 0 012.938-1.029 3.413 3.413 0 012.54 1.799c.149.287.583.348.806.113a3.411 3.411 0 012.936-1.029 3.364 3.364 0 012.317 1.434.502.502 0 00.912-.326" fill="#06C47B"/><path d="M3.304 12.19a.5.5 0 00.772.579 3.374 3.374 0 012.54-.67 3.41 3.41 0 012.552 1.82.502.502 0 00.812.114 3.41 3.41 0 012.954-1.047 3.41 3.41 0 012.539 1.799.5.5 0 00.807.113 3.412 3.412 0 012.936-1.029c1.08.152 2.03.824 2.54 1.799.074.143.22.23.375.252.13-.587 1.88-8.996-4.714-12.036-6.1-.85-11.901 2.563-14.113 8.306z" fill="#06A669"/><path d="M17.417 3.884c-6.1-.85-11.901 2.563-14.113 8.306a.5.5 0 00.772.579 3.374 3.374 0 012.54-.67 3.41 3.41 0 012.552 1.82.502.502 0 00.812.114 3.41 3.41 0 012.954-1.047 3.41 3.41 0 012.539 1.799.5.5 0 00.374.264l1.57-11.165z" fill="#048151"/><path d="M3.304 12.19a.502.502 0 00.773.579 3.374 3.374 0 012.54-.67 3.412 3.412 0 012.551 1.82.5.5 0 00.281.243c.367-2.306 1.99-9.543 7.98-10.277A13.113 13.113 0 003.305 12.19z" fill="#045E3C"/></g></svg>