<svg xmlns="http://www.w3.org/2000/svg" width="24" height="24" viewBox="0 0 24 24"><path fill="#2C3038" fill-rule="evenodd" d="M12 1.965c.627 0 1.212.327 1.526.855l9.304 15.645a1.672 1.672 0 010 1.71 1.776 1.776 0 01-1.526.855H2.696a1.775 1.775 0 01-1.526-.855 1.672 1.672 0 010-1.71L10.474 2.82A1.775 1.775 0 0112 1.965zm0 1.239a.492.492 0 00-.421.235L2.275 19.084a.462.462 0 000 .472.49.49 0 00.42.235h18.61a.49.49 0 00.42-.235.462.462 0 000-.472L12.42 3.44A.49.49 0 0012 3.204zm.03 12.513c.518 0 .938.408.938.91 0 .504-.42.913-.938.913a.926.926 0 01-.939-.912c0-.503.42-.911.939-.911zm-.02-7.596c.353 0 .639.277.639.619v5.16c0 .342-.286.619-.638.619a.629.629 0 01-.638-.62V8.74c0-.341.285-.618.638-.618z"/></svg>