<svg height="24" viewBox="0 0 24 24" width="24" xmlns="http://www.w3.org/2000/svg"><path d="m2.86238946 9.53379926c-.6060946-.33616567-1.30586064-.60485681-2.09485855-.78718926v-.13876031h3.05160404c.39154732-.04286629.75642644.19598893.85574082.56018051l.65660616 3.0218912c-.00516578-.0126609-.0103901-.0253046-.01567289-.037931.00360003.0092634.00717411.0185396.01072218.0278287l.18566064.930208 1.76377617-4.5071404h1.92880782l-2.85711109 6.5628487h-1.90302161zm6.15672572 5.65249324 1.12427832-6.5834058h1.7998769l-1.1242784 6.5834058zm7.97825052-6.30578613-.2630192 1.42357803-.1650317-.0719498c-.4259439-.1772438-.884589-.26304954-1.3460397-.2518243-.7065419 0-1.031448.2672421-1.031448.5653198s.4022647.5087878 1.031448.8120047c1.0417625.4728129 1.5110714 1.043272 1.5110714 1.7884662-.0154717 1.3670461-1.2428949 2.2510006-3.135602 2.2510006-.6824094.0013676-1.3597381-.1169259-2.0010092-.3494704l.2527047-1.4749707.2269186.1027854c.5311074.2444096 1.112006.3622959 1.696732.3443311.515724 0 1.0778632-.2004315 1.0778632-.6424088.0051572-.2980777-.2475475-.49337-.9334605-.8120047-.6859129-.3186348-1.5781154-.8428404-1.5781154-1.7884662.0103145-1.27967845 1.2635238-2.17391155 3.0427717-2.17391155.5503271-.00358905 1.0969093.0903809 1.6142161.27752062zm4.76529-.27019662 1.4698134 6.57312725h-1.6709458s-.1650317-.7554728-.2217613-.9816008h-2.3052864l-.386793.9713222h-1.8927072l2.6766077-6.01294669c.1499035-.37559774.5363767-.60201831.9386177-.54990196zm-2.2124561 4.24503755h1.4904424l-.4125792-1.9015301-.1237738-.5653198c-.0928303.246685-.237233.626991-.237233.626991z" fill="#1a1f71" fill-rule="evenodd"/></svg>