<svg xmlns="http://www.w3.org/2000/svg" width="120" height="24" viewBox="0 0 120 24">
  <g fill="none" fill-rule="evenodd">
    <g fill="#FFF" fill-rule="nonzero" transform="translate(27.101 7.424)">
      <path d="M73.9252461 6.34959582L73.0970379 10.9200778C72.0234347 11.3801935 70.4897159 11.748286 69.0786947 11.748286 66.6247446 11.748286 65.5818158 10.7053572 65.8885596 9.04894091 66.1953033 7.33117585 67.882394 6.3802702 69.9069028 6.41094457 70.7044366 6.41094457 71.3792728 6.5029677 71.9007372 6.71768833L71.9927604 6.22689832C72.1768066 5.21464391 71.6246679 4.63183077 70.2749953 4.63183077 69.2627409 4.63183077 68.3425096 5.03059766 67.8210452 5.36801579 67.3609296 5.12262078 67.1155346 4.66250515 67.146209 4.079692 67.7290221 3.58890199 69.109369 2.91406572 70.735111 2.91406572 72.943666 2.91406572 74.3853617 3.89564575 73.9252461 6.34959582zM69.6921822 10.1838928C70.3363441 10.1838928 70.9191572 10.0918697 71.471296 9.90782343L71.8087141 8.12870963C71.3179241 7.913989 70.6737622 7.79129149 69.9682516 7.79129149 68.9866715 7.79129149 68.2504865 8.12870963 68.127789 8.9262434 67.9744171 9.6931028 68.4652071 10.1838928 69.6921822 10.1838928zM83.5263257 7.33117585C84.0171157 4.75452827 86.2256708 2.88339134 88.8023184 2.88339134 91.378966 2.88339134 92.851336 4.7238539 92.360546 7.33117585 91.9004304 9.90782343 89.6612009 11.748286 87.0845533 11.748286 84.5385801 11.748286 83.0662101 9.93849781 83.5263257 7.33117585zM90.3667116 7.33117585C90.6734553 5.7361083 89.9372703 4.63183077 88.4649003 4.63183077 86.9925302 4.63183077 85.8575783 5.7361083 85.5508345 7.33117585 85.2440908 8.9262434 85.9802758 9.99984656 87.4833202 9.99984656 88.9556903 9.99984656 90.0906422 8.89556903 90.3667116 7.33117585zM81.9005838.705510647L81.4404682 3.1901351C81.0110269 3.00608884 80.4895625 2.91406572 79.8147262 2.91406572 77.2994274 2.91406572 74.9681748 4.63183077 74.4467104 7.36185023 73.9252461 10.1838928 75.5203136 11.7176116 78.2503331 11.7176116 79.6000056 11.7176116 81.0723757 11.3495191 82.0232813 10.8894035L84.0171157.0920231279 81.9005838.705510647zM80.2134931 9.72377718C79.6613544 9.90782343 79.0785412 9.99984656 78.4957281 9.99984656 76.9926836 9.99984656 76.1338011 8.98759215 76.4405449 7.33117585 76.7472886 5.70543393 78.0356124 4.66250515 79.5079825 4.66250515 80.12147 4.66250515 80.6429344 4.7238539 81.0723757 5.03059766L80.2134931 9.72377718zM66.3180008 3.25148385L63.1892145 3.25148385 63.5879814 1.07360316 61.5021238 1.6564163 60.1524512 8.89556903C59.7843587 10.8894035 60.949985 11.7176116 62.7597732 11.7176116 63.8947251 11.7176116 64.8456308 11.257496 65.4284439 10.8280547 65.4591183 10.2759159 65.2137233 9.72377718 64.8456308 9.44770779 64.538887 9.6931028 63.9560739 9.99984656 63.3425863 9.99984656 62.5143782 9.99984656 61.9929138 9.6931028 62.2076344 8.43545339L62.8517963 4.8465514 65.9805827 4.8465514C66.1032802 4.57048202 66.1646289 4.29441263 66.2259777 4.01834325 66.3180008 3.77294824 66.3486752 3.52755323 66.3180008 3.25148385zM51.6249747 10.7053572C51.9010441 10.0611953 52.3304854 9.60107967 52.790601 9.32501029 53.2200423 9.6931028 53.8948786 10.1532184 55.2138767 10.1532184 56.379503 10.1532184 56.9009674 9.72377718 56.9929905 9.14096403 57.0850137 8.58882527 56.6862468 8.25140713 55.2138767 8.0366865 53.7721811 7.82196587 52.4838573 7.2698271 52.790601 5.4907133 53.0666704 3.92632012 54.661738 2.88339134 56.7782699 2.88339134 58.2813143 2.88339134 59.2935687 3.3128326 59.7536844 3.68092511 59.5389637 4.29441263 59.2015456 4.78520265 58.74143 5.12262078 58.2199656 4.78520265 57.4224318 4.47845889 56.4101774 4.47845889 55.3672486 4.47845889 54.8457842 4.81587703 54.7230867 5.33734142 54.6310636 5.88948018 54.9378073 6.13487519 56.3181543 6.3802702 58.0665937 6.65633958 59.2935687 7.2698271 58.986825 8.9262434 58.6800812 10.6746828 57.1463624 11.7176116 54.8457842 11.7176116 53.0053217 11.748286 52.0237416 11.1041241 51.6249747 10.7053572zM52.8826241.184046256L45.6434714.184046256 45.6434714.184046256 44.9379608.184046256 45.3367277 1.47237005C45.367402 1.5337188 45.367402 1.59506755 45.367402 1.68709068 45.367402 1.71776505 45.367402 1.74843943 45.367402 1.77911381L43.5882882 11.502891 50.9808128 11.502891C51.1341847 11.1961472 51.2262078 10.8894035 51.2875566 10.5826597 51.3489053 10.3065903 51.3489053 9.99984656 51.318231 9.72377718L45.9195408 9.72377718 46.5023539 6.62566521 51.1648591 6.62566521C51.2875566 6.31892145 51.3795797 6.01217769 51.4409285 5.7361083 51.5022772 5.42936454 51.5022772 5.12262078 51.5022772 4.8465514L46.8397721 4.8465514 47.3612365 2.05518319 52.6065548 2.05518319C52.7292523 1.74843943 52.8212754 1.47237005 52.8826241 1.16562629 52.8826241.797533775 52.9132985.460115639 52.8826241.184046256zM34.3553011 7.33117585C34.8460911 4.75452827 37.0546462 2.88339134 39.6312937 2.88339134 42.2079413 2.88339134 43.6803114 4.7238539 43.1895213 7.33117585 42.7294057 9.90782343 40.4901763 11.748286 37.9135287 11.748286 35.3675555 11.748286 33.8951854 9.93849781 34.3553011 7.33117585zM41.1956869 7.33117585C41.5024307 5.7361083 40.7662456 4.63183077 39.2938756 4.63183077 37.7908312 4.63183077 36.6865536 5.7361083 36.3798099 7.33117585 36.0730661 8.9262434 36.8092511 9.99984656 38.3122956 9.99984656 39.7846656 9.99984656 40.8889431 8.89556903 41.1956869 7.33117585z"/>
      <path d="M27.0547996 7.33117585C27.5455896 4.66250515 29.7848191 2.88339134 32.3001179 2.88339134 33.5577673 2.88339134 34.508673 3.37418136 34.9381142 3.83429699 34.6927192 4.38643576 34.2019292 4.93857453 33.5884417 5.24531829 33.2203492 4.90790015 32.7295591 4.60115639 31.9933741 4.60115639 30.3676322 4.60115639 29.3553778 5.85880581 29.0793084 7.30050148 28.803239 8.71152277 29.3553778 9.99984656 31.0117941 9.99984656 31.9933741 9.99984656 32.5761873 9.60107967 33.0056285 9.29433591 33.4657442 9.5704053 33.7418136 10.0305209 33.8031623 10.6440085 33.1590004 11.1654728 31.9933741 11.7176116 30.674376 11.7176116 28.0057052 11.748286 26.5333352 10.1225441 27.0547996 7.33117585zM23.1898282 2.88339134C22.3922944 2.88339134 21.625435 3.03676322 20.9505988 3.25148385 20.88925 3.28215823 20.8279013 3.28215823 20.7972269 3.28215823 20.7358781 3.28215823 20.6745294 3.28215823 20.6131806 3.25148385L20.6131806 3.25148385 19.2021593 2.82204259 18.9567643 4.20238951C18.9567643 4.20238951 18.9567643 4.20238951 18.9567643 4.20238951L17.6070918 11.4722166C17.9138356 11.5335654 18.2512537 11.5642397 18.5886718 11.5642397 18.92609 11.5642397 19.2635081 11.5335654 19.6009262 11.4722166L20.7665525 5.18396954C21.1959938 4.93857453 21.9321788 4.7238539 22.6990382 4.7238539 23.987362 4.7238539 24.6315239 5.30666704 24.3247801 6.84038584L23.4658976 11.502891C23.8033157 11.5642397 24.1100595 11.5949141 24.4474776 11.5949141 24.7542214 11.5949141 25.1223139 11.5642397 25.459732 11.502891L26.4106377 6.3802702C26.7787302 4.44778451 25.8891733 2.88339134 23.1898282 2.88339134zM17.3923712 6.34959582L16.564163 10.9200778C15.4905599 11.3801935 13.9568411 11.748286 12.5458198 11.748286 10.0918697 11.748286 9.04894091 10.7053572 9.35568467 9.04894091 9.66242843 7.33117585 11.3495191 6.3802702 13.3740279 6.41094457 14.1715617 6.41094457 14.846398 6.5029677 15.3678624 6.71768833L15.4598855 6.22689832C15.6439317 5.21464391 15.091793 4.63183077 13.7421204 4.63183077 12.729866 4.63183077 11.8096347 5.03059766 11.2881704 5.36801579 10.8280547 5.12262078 10.5826597 4.66250515 10.6133341 4.079692 11.1961472 3.58890199 12.5764941 2.91406572 14.2022361 2.91406572 16.4107911 2.91406572 17.8524868 3.89564575 17.3923712 6.34959582zM13.1899817 10.1838928C13.8341436 10.1838928 14.4169567 10.0918697 14.9690955 9.90782343L15.3065136 8.12870963C14.8157236 7.913989 14.1715617 7.79129149 13.466051 7.79129149 12.484471 7.79129149 11.748286 8.12870963 11.6255885 8.9262434 11.4415422 9.6931028 11.9630066 10.1838928 13.1899817 10.1838928zM9.26366154 3.15946072C9.63175405 1.16562629 8.52747652.030674376 5.55206205.030674376 5.52138767.030674376 5.52138767.030674376 5.4907133.030674376L1.31899817 1.73194792e-14 1.77911381 1.34967254C1.80978818 1.41102129 1.80978818 1.50304442 1.80978818 1.56439317 1.80978818 1.62574193 1.80978818 1.6564163 1.77911381 1.71776505L2.66453526e-15 11.4108679C.858882527 11.5949141 1.96316006 11.6869372 3.46620448 11.6869372 6.65633958 11.6869372 8.43545339 10.3679391 8.83422028 8.22073276 9.11028966 6.77903709 8.52747652 5.95082894 7.39252461 5.55206205 8.34343026 5.18396954 9.04894091 4.44778451 9.26366154 3.15946072zM6.84038584 8.25140713C6.59499083 9.50905655 5.7361083 10.0918697 3.86497137 10.0918697 3.25148385 10.0918697 2.73001946 10.0611953 2.26990382 9.99984656L2.91406572 6.56431645 4.81587703 6.56431645C6.31892145 6.53364208 7.05510647 7.11645522 6.84038584 8.25140713zM7.33117585 3.22080948C7.1471296 4.26373826 6.44161895 4.87722578 4.9692489 4.87722578L3.22080948 4.87722578 3.80362262 1.74843943C4.35576139 1.68709068 4.87722578 1.68709068 5.39869017 1.68709068 6.84038584 1.68709068 7.51522211 2.23922944 7.33117585 3.22080948z"/>
    </g>
    <rect width="24" height="24" fill="#FFF"/>
    <g fill-rule="nonzero" transform="translate(.75 .75)">
      <path fill="#FB1D38" d="M0,11.1525917 L8.01955015,7.70206612 L8.01955015,5.14498017 C10.6095216,4.74447273 12.669017,3.54295041 14.4476721,1.60202975 L22.5,8.10257355 L22.5,0.0308082645 L0,0 L0,11.1525917 Z"/>
      <path fill="#FFF" d="M8.05075462,18.4849587 L14.4788765,18.4849587 L14.4788765,1.63283802 L14.4788765,1.63283802 L14.4788765,1.63283802 C12.669017,3.60456694 10.6095216,4.80608926 8.05075462,5.17578843 L8.05075462,5.17578843 L8.05075462,7.73287438 L0,11.1525917 L0,13.6480612 L8.01955015,10.1667273 L8.01955015,7.70206612 L10.5783171,6.5929686 L10.5783171,9.05762975 L8.01955015,10.1667273 L8.01955015,12.6005802 L10.5783171,11.4914826 L10.5783171,13.9253355 L8.01955015,15.0344331 L8.01955015,12.6005802 L0,16.081914 L0,18.5157669 L8.01955015,15.0344331 L8.01955015,18.4849587 L8.05075462,18.4849587 Z"/>
      <path fill="#FF9100" d="M8.05075462,15.0344331 L8.05075462,18.4849587 L-1.86251015e-12,18.4849587 L8.05075462,15.0344331 Z M10.6095216,11.4914826 L10.6095216,13.9253355 L8.01955015,15.0344331 L8.01955015,12.6005802 L-1.86251015e-12,16.081914 L-1.86251015e-12,13.6480612 L8.01955015,10.1667273 L8.01955015,7.73287438 L10.6095216,6.62377686 L10.6095216,9.05762975 L8.05075462,10.1667273 L8.05075462,12.6005802 L10.6095216,11.4914826 Z"/>
      <polygon fill="#FF9100" points="14.479 18.485 22.498 18.485 22.498 8.103 14.479 1.633"/>
      <polygon fill="#0454B4" points="14.479 18.485 8.051 18.485 0 18.485 0 22.5 22.498 22.5 22.498 18.485"/>
    </g>
  </g>
</svg>
