<svg xmlns="http://www.w3.org/2000/svg" width="24" height="24" viewBox="0 0 24 24"><path fill="#2C3038" fill-rule="evenodd" d="M13 13l8 .006v5.935a2.058 2.058 0 01-.604 1.455 2.05 2.05 0 01-1.455.604H13v-8zm-2 5v3h-1v-3h1zm-6.666 0v.86c0 .064.013.325.163.52l.062.069c.174.163.4.183.417.184H8l-.001 1.366L4.838 21C3.173 20.777 3.01 19.377 3 18.94v-.084l.001-.042V18h1.332zm15.462-3.797h-5.592v5.593h4.737a.855.855 0 00.856-.856v-4.737zM18 16v2h-2v-2h2zM8 16v1.999L6 18v-1.998L8 16zm3-3v3H9.664v-1.64H6V13h5zm-7 0v3H3v-3h1zm7-10v8H3V5.06C3 3.923 3.924 3 5.06 3H11zm7.94 0C20.077 3 21 3.924 21 5.06V11h-8V3zM9.797 4.203H5.06a.857.857 0 00-.855.856v4.738h5.592V4.203zm9.145 0h-4.737v5.594h5.592V5.059a.857.857 0 00-.855-.856zM8 6v2H6V6h2zm10 0v2h-2V6h2z"/></svg>