<?xml version="1.0" encoding="UTF-8"?>
<svg width="58px" height="51px" viewBox="0 0 58 51" version="1.1" xmlns="http://www.w3.org/2000/svg" xmlns:xlink="http://www.w3.org/1999/xlink">
    <title>alert</title>
    <g id="Symbols-Color" stroke="none" stroke-width="1" fill="none" fill-rule="evenodd">
        <g id="alert" fill-rule="nonzero">
            <path d="M56.4131054,37.9463694 L36.0637152,4.09694878 C34.5095237,1.54482634 31.8069292,0 28.8000215,0 C25.7931137,0 23.0904067,1.54482634 21.5362152,4.09694878 L1.18682506,37.9463694 C-0.367028962,40.5993557 -0.400891549,43.7559899 1.11943738,46.4088644 C2.63965381,49.0616269 5.37599839,50.64 8.45051884,50.64 L49.1492991,50.64 C52.2238195,50.64 54.9602766,49.0616269 56.4803805,46.4088644 C58.0009345,43.7559899 57.9670719,40.5993557 56.4131054,37.9463694 Z" id="Path" fill="#E50027"></path>
            <path d="M56.4805635,46.408855 C54.9603482,49.0616235 52.2240056,50.64 49.1494875,50.64 L28.8,50.64 L28.8,0 C31.806793,0 34.5096105,1.54482975 36.0638009,4.09695782 L56.4131758,37.9464532 C57.9670287,40.5993335 58.0008913,43.7559747 56.4805635,46.408855 Z" id="Path" fill="#C1001F"></path>
            <path d="M8.43765217,47.28 C6.56597817,47.28 4.96501478,46.3553143 4.04065906,44.7453325 C3.1164159,43.1336735 3.13284989,41.269431 4.09345044,39.6332852 L24.4350169,5.81438648 C25.3659012,4.2863629 27.003222,3.36 28.7989169,3.36 C30.5946118,3.36 32.2320452,4.28625109 33.1760992,5.83741977 L53.5210425,39.6594492 C54.4652091,41.2695428 54.4816431,43.1336735 53.5572873,44.7452206 C52.6330442,46.3553143 51.0319682,47.28 49.1602942,47.28 L8.43765217,47.28 L8.43765217,47.28 Z" id="Path" fill="#FD003A"></path>
            <path d="M49.1606005,47.28 C51.0321927,47.28 52.6330862,46.3553166 53.5574016,44.7453389 C54.4816043,43.133684 54.4651711,41.2694463 53.5211583,39.6595804 L33.1769911,5.83741346 C32.2328658,4.28647235 30.5957291,3.36 28.8,3.36 L28.8,47.28 L49.1606005,47.28 Z" id="Path" fill="#E50027"></path>
            <path d="M32.16,13.9200559 L32.16,27.3600559 C32.16,29.2080811 30.6479692,30.72 28.8000559,30.72 C26.9521427,30.72 25.44,29.2079692 25.44,27.3600559 L25.44,13.9200559 C25.44,12.0720308 26.9520308,10.56 28.8000559,10.56 C30.6480811,10.56 32.16,12.0720308 32.16,13.9200559 Z" id="Path" fill="#FFFFFF"></path>
            <path d="M32.16,13.9200559 L32.16,27.3600559 C32.16,29.2080811 30.6479441,30.72 28.8,30.72 L28.8,10.56 C30.6479441,10.56 32.16,12.0720308 32.16,13.9200559 Z" id="Path" fill="#E9EBFF"></path>
            <path d="M28.8,34.08 C26.0111388,34.08 23.76,36.331027 23.76,39.12 C23.76,41.9086374 26.011027,44.16 28.8,44.16 C31.588973,44.16 33.84,41.9087493 33.84,39.12 C33.84,36.3311388 31.5887493,34.08 28.8,34.08 Z" id="Path" fill="#FFFFFF"></path>
            <path d="M33.84,39.1199441 C33.84,41.9086124 31.588973,44.16 28.8,44.16 L28.8,34.08 C31.5887493,34.08 33.84,36.3311638 33.84,39.1199441 Z" id="Path" fill="#E9EBFF"></path>
        </g>
    </g>
</svg>