<?xml version="1.0" encoding="UTF-8"?>
<svg width="17px" height="16px" viewBox="0 0 17 16" version="1.1" xmlns="http://www.w3.org/2000/svg" xmlns:xlink="http://www.w3.org/1999/xlink">
    <!-- Generator: Sketch 52 (66869) - http://www.bohemiancoding.com/sketch -->
    <title>Artboard</title>
    <desc>Created with Sketch.</desc>
    <g id="Artboard" stroke="none" stroke-width="1" fill="none" fill-rule="evenodd">
        <path d="M3.71090211,6.94725135 L9.08712174,1.75754278 C9.48680693,1.37172334 9.48740715,0.746765837 9.08405669,0.35740835 L9.01259658,0.288427332 C8.61121864,-0.099026124 7.9548729,-0.0936364101 7.55786115,0.289602206 L0.299651181,7.29601142 C-0.102399006,7.6841138 -0.0973605052,8.31821566 0.299651181,8.70145434 L7.55786115,15.7078636 C7.9599114,16.0959659 8.60924612,16.0983959 9.01259658,15.7090384 L9.08405669,15.6400574 C9.48543473,15.2526039 9.48285806,14.6219305 9.08712174,14.239923 L3.71090211,9.05021441 L15.9572268,9.05021441 C16.5331345,9.05021441 17,8.60423006 17,8.04800502 L17,7.94946074 C17,7.39595576 16.5425592,6.94725135 15.9572268,6.94725135 L3.71090211,6.94725135 Z" id="Path" fill="#000000"></path>
    </g>
</svg>