<?xml version="1.0" encoding="UTF-8"?>
<svg width="24px" height="24px" viewBox="0 0 24 24" version="1.1" xmlns="http://www.w3.org/2000/svg" xmlns:xlink="http://www.w3.org/1999/xlink">
    <!-- Generator: Sketch 52.6 (67491) - http://www.bohemiancoding.com/sketch -->
    <title>bech_tef_entre_cuentas</title>
    <desc>Created with Sketch.</desc>
    <g id="bech_tef_entre_cuentas" stroke="none" stroke-width="1" fill="none" fill-rule="evenodd">
        <path d="M3.918,9.5557 L3.918,8.4337 L5.04,8.4337 L5.04,9.5557 L3.918,9.5557 Z M3.125,9.7471 C3.125,10.0771 3.393,10.3441 3.722,10.3441 L11.949,10.3441 C12.278,10.3441 12.546,10.0771 12.546,9.7471 L12.546,6.1151 L3.125,6.1151 L3.125,9.7471 Z M3.722,4.1251 C3.393,4.1251 3.125,4.3931 3.125,4.7221 L3.125,4.9901 L12.546,4.9901 L12.546,4.7221 C12.546,4.3931 12.278,4.1251 11.949,4.1251 L3.722,4.1251 Z M11.949,11.4691 L3.722,11.4691 C2.772,11.4691 2,10.6971 2,9.7471 L2,4.7221 C2,3.7721 2.772,3.0001 3.722,3.0001 L11.949,3.0001 C12.898,3.0001 13.671,3.7721 13.671,4.7221 L13.671,9.7471 C13.671,10.6971 12.898,11.4691 11.949,11.4691 Z M11.537,19.3137 L11.537,18.1907 L12.66,18.1907 L12.66,19.3137 L11.537,19.3137 Z M19.6885,20.5156 C19.9525,20.5156 20.1665,20.3016 20.1665,20.0386 L20.1665,16.2866 L10.7455,16.2866 L10.7455,20.0386 C10.7455,20.3016 10.9595,20.5156 11.2225,20.5156 L19.6885,20.5156 Z M11.2225,14.2966 C10.9595,14.2966 10.7455,14.5106 10.7455,14.7736 L10.7455,15.1616 L20.1665,15.1616 L20.1665,14.7736 C20.1665,14.5106 19.9525,14.2966 19.6885,14.2966 L11.2225,14.2966 Z M19.6885,13.1716 C20.5725,13.1716 21.2915,13.8906 21.2915,14.7736 L21.2915,20.0386 C21.2915,20.9216 20.5725,21.6406 19.6885,21.6406 L11.2225,21.6406 C10.3385,21.6406 9.6205,20.9216 9.6205,20.0386 L9.6205,14.7736 C9.6205,13.8906 10.3385,13.1716 11.2225,13.1716 L19.6885,13.1716 Z M7.1289,15.3545 L7.9459,17.2685 C8.0679,17.5545 7.9349,17.8845 7.6499,18.0065 L5.7009,18.8385 C5.6289,18.8705 5.5539,18.8845 5.4799,18.8845 C5.2619,18.8845 5.0539,18.7565 4.9619,18.5425 C4.8399,18.2565 4.9729,17.9265 5.2589,17.8045 L5.9009,17.5305 C4.2819,16.8465 3.2049,15.2415 3.2049,13.4715 C3.2049,13.1605 3.4569,12.9085 3.7679,12.9085 C4.0779,12.9085 4.3299,13.1605 4.3299,13.4715 C4.3299,14.8125 5.1609,16.0245 6.4019,16.5185 L6.0939,15.7955 C5.9719,15.5105 6.1049,15.1795 6.3909,15.0575 C6.6769,14.9355 7.0069,15.0685 7.1289,15.3545 Z M16.1621,9.002 L15.3451,7.087 C15.2861,6.95 15.2851,6.795 15.3411,6.657 C15.3951,6.519 15.5041,6.408 15.6411,6.349 L17.5911,5.517 C17.8761,5.395 18.2071,5.527 18.3291,5.813 C18.4511,6.099 18.3181,6.429 18.0321,6.551 L17.3901,6.826 C19.0101,7.51 20.0861,9.115 20.0861,10.885 C20.0861,11.195 19.8341,11.447 19.5231,11.447 C19.2131,11.447 18.9611,11.195 18.9611,10.885 C18.9611,9.544 18.1301,8.332 16.8891,7.838 L17.1971,8.56 C17.3191,8.846 17.1861,9.176 16.9001,9.298 C16.8291,9.329 16.7541,9.344 16.6811,9.344 C16.4621,9.344 16.2541,9.215 16.1621,9.002 Z" id="Combined-Shape" fill="#3E50B4"></path>
    </g>
</svg>