<?xml version="1.0" encoding="UTF-8"?>
<svg width="24px" height="24px" viewBox="0 0 24 24" version="1.1" xmlns="http://www.w3.org/2000/svg" xmlns:xlink="http://www.w3.org/1999/xlink">
    <!-- Generator: Sketch 52.6 (67491) - http://www.bohemiancoding.com/sketch -->
    <title>bech_pago_rut copy 3</title>
    <desc>Created with Sketch.</desc>
    <g id="bech_pago_rut-copy-3" stroke="none" stroke-width="1" fill="none" fill-rule="evenodd">
        <path d="M4.14146878,1.85896434 L10.6393874,1.85896434 L10.6393874,10.6090318 L1.88889128,10.6090318 L1.88889128,4.11111311 C1.88889128,2.86949445 2.89942139,1.85896434 4.14146878,1.85896434 Z M5.26994409,7.22815046 L7.25842039,7.22815046 L7.25842039,5.23967416 L5.26994409,5.23967416 L5.26994409,7.22815046 Z M21.7779416,20.5760227 C21.6643266,20.8439825 21.5018358,21.084932 21.2947564,21.2920114 C20.9809219,21.6058459 20.5873425,21.8180701 20.1564631,21.9063897 C20.0072631,21.9372586 19.8546331,21.9526931 19.7028607,21.9526931 L13.204942,21.9526931 L13.204942,13.2021969 L21.9554382,13.208628 L21.9554382,19.7001156 C21.9554382,20.0040892 21.8958439,20.2986307 21.7779416,20.5760227 Z M16.5859948,18.5712116 L18.5744711,18.5712116 L18.5744711,16.5827353 L16.5859948,16.5827353 L16.5859948,18.5712116 Z M21.9553953,10.6092033 L13.2048992,10.6092033 L13.2048992,1.85913583 L19.7028178,1.85913583 C20.9448652,1.85913583 21.9553953,2.8692372 21.9553953,4.1112846 L21.9553953,10.6092033 Z M16.5859948,7.22815046 L18.5744711,7.22815046 L18.5744711,5.23967416 L16.5859948,5.23967416 L16.5859948,7.22815046 Z M10.6393017,16.3200489 L9.20775311,16.3200489 L9.20775311,14.6183968 L5.28310628,14.6183968 L5.28310628,13.2087137 L10.6393017,13.2087137 L10.6393017,16.3200489 Z M1.90222496,16.3199203 L1.90222496,13.2085851 L3.32862872,13.2085851 L3.32862872,16.3199203 L1.90222496,16.3199203 Z M5.27002984,16.5721026 L7.27651303,16.5703877 L7.27651303,18.5700111 L5.27002984,18.5712973 L5.27002984,16.5721026 Z M9.207453,21.9445043 L9.207453,18.8340266 L10.635143,18.8340266 L10.635143,21.9445043 L9.207453,21.9445043 Z M3.87286585,21.926283 C1.79521252,21.6596094 1.89167806,19.7573089 1.89725163,19.6694181 L1.89725163,18.8290961 L3.33094389,18.8290961 L3.33094389,19.7015733 C3.33051516,19.7144354 3.32408412,20.0274125 3.50629681,20.2542137 C3.695798,20.4883034 4.0006291,20.5135988 4.02163715,20.514885 L7.27617005,20.514885 L7.27488384,21.9254255 L3.87286585,21.926283 Z" id="Combined-Shape" fill="#FF9100"></path>
    </g>
</svg>