<?xml version="1.0" encoding="UTF-8"?>
<svg width="24px" height="24px" viewBox="0 0 24 24" version="1.1" xmlns="http://www.w3.org/2000/svg" xmlns:xlink="http://www.w3.org/1999/xlink">
    <!-- Generator: Sketch 52.6 (67491) - http://www.bohemiancoding.com/sketch -->
    <title>bech_safe_money_fun copy 2</title>
    <desc>Created with Sketch.</desc>
    <g id="bech_safe_money_fun-copy-2" stroke="none" stroke-width="1" fill="none" fill-rule="evenodd">
        <path d="M20.449,20.6637 L5.538,20.6637 C5.206,20.6637 4.938,20.3947 4.938,20.0637 L4.938,6.5317 C4.938,6.1997 5.206,5.9307 5.538,5.9307 L20.449,5.9307 C20.78,5.9307 21.048,6.1997 21.048,6.5317 L21.048,20.0637 C21.048,20.3947 20.78,20.6637 20.449,20.6637 Z M2.6,17.7329 C2.269,17.7329 2,17.4639 2,17.1319 L2,4.7599 C2,3.7889 2.789,2.9999 3.76,2.9999 L17.51,2.9999 C17.842,2.9999 18.111,3.2689 18.111,3.5999 C18.111,3.9319 17.842,4.1999 17.51,4.1999 L3.76,4.1999 C3.451,4.1999 3.2,4.4509 3.2,4.7599 L3.2,17.1319 C3.2,17.4639 2.931,17.7329 2.6,17.7329 Z" id="Combined-Shape" fill="#FF9100"></path>
    </g>
</svg>