<?xml version="1.0" encoding="UTF-8"?>
<svg width="24px" height="24px" viewBox="0 0 24 24" version="1.1" xmlns="http://www.w3.org/2000/svg" xmlns:xlink="http://www.w3.org/1999/xlink">
    <!-- Generator: Sketch 52.6 (67491) - http://www.bohemiancoding.com/sketch -->
    <title>bech_tef_hacia copy</title>
    <desc>Created with Sketch.</desc>
    <g id="bech_tef_hacia-copy" stroke="none" stroke-width="1" fill="none" fill-rule="evenodd">
        <path d="M9.7442,17.0692 L8.8122,17.0692 L8.8122,15.8732 C8.1502,15.8452 7.4652,15.6392 7.0432,15.3392 L6.9862,15.2982 L7.3342,14.3262 L7.4342,14.3922 C7.9032,14.7062 8.5042,14.8852 9.0832,14.8852 C9.8562,14.8852 10.3952,14.4472 10.3952,13.8212 C10.3952,13.2522 10.0252,12.8692 9.1192,12.5022 C8.0762,12.0932 7.1112,11.5522 7.1112,10.3712 C7.1112,9.3682 7.8082,8.5972 8.8952,8.3902 L8.8952,7.1822 L9.8152,7.1822 L9.8152,8.3322 C10.3852,8.3622 10.8722,8.5012 11.3052,8.7542 L11.3722,8.7942 L11.0102,9.7512 L10.9152,9.6962 C10.7112,9.5802 10.2332,9.3072 9.4732,9.3072 C8.6182,9.3072 8.3142,9.8042 8.3142,10.2292 C8.3142,10.7492 8.6432,11.0432 9.7212,11.4892 C11.0452,12.0292 11.6112,12.7022 11.6112,13.7382 C11.6112,14.6072 11.0332,15.5792 9.7442,15.8252 L9.7442,17.0692 Z M22.0997,11.5955 C22.4107,11.5955 22.6617,11.8475 22.6617,12.1575 C22.6617,12.4695 22.4107,12.7205 22.0997,12.7205 L15.7777,12.7205 L18.0377,14.9805 C18.2567,15.1995 18.2567,15.5565 18.0377,15.7765 C17.9277,15.8855 17.7837,15.9405 17.6397,15.9405 C17.4957,15.9405 17.3517,15.8855 17.2427,15.7765 L14.0157,12.5495 C13.9107,12.4445 13.8507,12.3015 13.8507,12.1515 C13.8507,12.0025 13.9107,11.8595 14.0157,11.7545 L17.2297,8.5405 C17.4497,8.3205 17.8057,8.3205 18.0257,8.5405 C18.2457,8.7605 18.2457,9.1165 18.0257,9.3355 L15.7647,11.5955 L22.0997,11.5955 Z M9.1578,19.6913 C11.9368,19.6913 14.3628,18.1743 15.6678,15.9303 L16.4908,16.7533 C14.9578,19.1913 12.2448,20.8163 9.1578,20.8163 C4.3838,20.8163 0.4998,16.9323 0.4998,12.1583 C0.4998,7.3843 4.3838,3.5003 9.1578,3.5003 C12.2418,3.5003 14.9518,5.1223 16.4868,7.5563 L15.6628,8.3783 C14.3568,6.1383 11.9328,4.6253 9.1578,4.6253 C5.0048,4.6253 1.6248,8.0043 1.6248,12.1583 C1.6248,16.3123 5.0048,19.6913 9.1578,19.6913 Z" id="Combined-Shape" fill="#3E50B4"></path>
    </g>
</svg>