<?xml version="1.0" encoding="UTF-8"?>
<svg width="24px" height="24px" viewBox="0 0 24 24" version="1.1" xmlns="http://www.w3.org/2000/svg" xmlns:xlink="http://www.w3.org/1999/xlink">
    <!-- Generator: Sketch 52.6 (67491) - http://www.bohemiancoding.com/sketch -->
    <title>bech_tef_hacia</title>
    <desc>Created with Sketch.</desc>
    <g id="bech_tef_hacia" stroke="none" stroke-width="1" fill="none" fill-rule="evenodd">
        <path d="M9.744,17.0692 L8.812,17.0692 L8.812,15.8732 C8.151,15.8452 7.465,15.6392 7.044,15.3392 L6.986,15.2982 L7.335,14.3262 L7.434,14.3922 C7.904,14.7062 8.505,14.8852 9.083,14.8852 C9.856,14.8852 10.396,14.4472 10.396,13.8212 C10.396,13.2522 10.026,12.8692 9.119,12.5022 C8.077,12.0932 7.111,11.5522 7.111,10.3712 C7.111,9.3682 7.808,8.5972 8.895,8.3902 L8.895,7.1822 L9.815,7.1822 L9.815,8.3322 C10.385,8.3622 10.873,8.5012 11.305,8.7542 L11.373,8.7942 L11.011,9.7512 L10.915,9.6962 C10.712,9.5802 10.235,9.3072 9.473,9.3072 C8.618,9.3072 8.314,9.8042 8.314,10.2292 C8.314,10.7492 8.643,11.0432 9.722,11.4892 C11.046,12.0292 11.611,12.7022 11.611,13.7382 C11.611,14.6072 11.033,15.5792 9.744,15.8252 L9.744,17.0692 Z M22.6923,11.7664 C22.9123,11.9864 22.9123,12.3424 22.6923,12.5614 L19.4783,15.7764 C19.3693,15.8854 19.2243,15.9404 19.0813,15.9404 C18.9363,15.9404 18.7933,15.8854 18.6833,15.7764 C18.4633,15.5564 18.4633,15.2004 18.6833,14.9804 L20.9433,12.7204 L14.6083,12.7204 C14.2973,12.7204 14.0463,12.4694 14.0463,12.1584 C14.0463,11.8474 14.2973,11.5954 14.6083,11.5954 L20.9303,11.5954 L18.6713,9.3354 C18.4513,9.1164 18.4513,8.7594 18.6713,8.5404 C18.8903,8.3204 19.2463,8.3204 19.4653,8.5404 L22.6923,11.7664 Z M9.1581,19.6913 C12.7311,19.6913 15.7241,17.1883 16.4941,13.8453 L17.6501,13.8453 C16.8621,17.8143 13.3541,20.8163 9.1581,20.8163 C4.3841,20.8163 0.5001,16.9323 0.5001,12.1583 C0.5001,7.3843 4.3841,3.5003 9.1581,3.5003 C13.3551,3.5003 16.8621,6.5023 17.6501,10.4703 L16.4941,10.4703 C15.7241,7.1283 12.7311,4.6253 9.1581,4.6253 C5.0041,4.6253 1.6251,8.0043 1.6251,12.1583 C1.6251,16.3113 5.0041,19.6913 9.1581,19.6913 Z" id="Combined-Shape" fill="#3E50B4"></path>
    </g>
</svg>