<?xml version="1.0" encoding="UTF-8"?>
<svg width="24px" height="24px" viewBox="0 0 24 24" version="1.1" xmlns="http://www.w3.org/2000/svg" xmlns:xlink="http://www.w3.org/1999/xlink">
    <!-- Generator: Sketch 52.6 (67491) - http://www.bohemiancoding.com/sketch -->
    <title>bech_pago_rut</title>
    <desc>Created with Sketch.</desc>
    <g id="bech_pago_rut" stroke="none" stroke-width="1" fill="none" fill-rule="evenodd">
        <g id="Group-16" transform="translate(1.888934, 1.430271)" fill="#2C3038">
            <g id="Group-15">
                <g id="Group-3" transform="translate(0.000000, 0.371800)">
                    <path d="M7.43380588,7.49074199 L1.31660454,7.49074199 L1.31660454,2.309042 C1.31660454,1.79327292 1.73633682,1.37311191 2.25253463,1.37311191 L7.43380588,1.37311191 L7.43380588,7.49074199 Z M2.25253463,0.0568932309 C1.01048723,0.0568932309 -4.28735726e-05,1.06742334 -4.28735726e-05,2.309042 L-4.28735726e-05,8.80696066 L8.7504533,8.80696066 L8.7504533,0.0568932309 L2.25253463,0.0568932309 Z" id="Fill-1"></path>
                </g>
                <polygon id="Fill-4" points="3.38100994 5.79787897 5.36948623 5.79787897 5.36948623 3.80940267 3.38100994 3.80940267"></polygon>
                <polygon id="Fill-6" points="14.6970607 17.1409401 16.685537 17.1409401 16.685537 15.1524638 14.6970607 15.1524638"></polygon>
                <polygon id="Fill-7" points="14.6970607 5.79787897 16.685537 5.79787897 16.685537 3.80940267 14.6970607 3.80940267"></polygon>
                <path d="M18.7498566,18.2698441 C18.7498566,18.6467028 18.5256279,18.9849753 18.1783519,19.1324604 C18.0625933,19.1809075 17.9404036,19.2057742 17.8139265,19.2057742 L12.6326553,19.2057742 L12.6326553,13.0885729 L18.7498566,13.0872867 L18.7498566,18.2698441 Z M19.8890075,19.1457512 C20.0069098,18.8683592 20.0665041,18.5738177 20.0665041,18.2698441 L20.0665041,11.7783565 L11.3160079,11.7719255 L11.3160079,20.5224216 L17.8139265,20.5224216 C17.965699,20.5224216 18.1183289,20.5069871 18.2675289,20.4761182 C18.6984083,20.3877986 19.0919877,20.1755744 19.4058223,19.8617399 C19.6129017,19.6546605 19.7753925,19.413711 19.8890075,19.1457512 Z" id="Fill-8"></path>
                <path d="M12.6326124,1.74508303 L17.8138837,1.74508303 C18.3300815,1.74508303 18.7498138,2.1648153 18.7498138,2.68101312 L18.7498138,7.8627131 L12.6326124,7.8627131 L12.6326124,1.74508303 Z M20.0664612,9.17893178 L20.0664612,2.68101312 C20.0664612,1.43896572 19.0559311,0.428864347 17.8138837,0.428864347 L11.315965,0.428864347 L11.315965,9.17893178 L20.0664612,9.17893178 Z" id="Fill-9"></path>
                <polygon id="Fill-10" points="8.75036755 14.8897774 8.75036755 11.7784422 3.39417212 11.7784422 3.39417212 13.1881253 7.31881896 13.1881253 7.31881896 14.8897774"></polygon>
                <polygon id="Fill-11" points="0.0132908075 14.8896488 1.43969457 14.8896488 1.43969457 11.7783136 0.0132908075 11.7783136"></polygon>
                <polygon id="Fill-12" points="3.38109568 15.1418311 3.38109568 17.1410258 5.38757888 17.1397396 5.38757888 15.1401162"></polygon>
                <polygon id="Fill-13" points="7.31851884 20.5142328 8.74620881 20.5142328 8.74620881 17.4037551 7.31851884 17.4037551"></polygon>
                <path d="M1.9839317,20.4960115 L5.38594969,20.495154 L5.38723589,19.0846135 L2.132703,19.0846135 C2.11169495,19.0833273 1.80686384,19.0580319 1.61736265,18.8239422 C1.43514997,18.597141 1.44158101,18.2841639 1.44200974,18.2713018 L1.44200974,17.3988246 L0.00831747309,17.3988246 L0.00831747309,18.2391466 C0.00274390865,18.3270375 -0.0937216297,20.2293379 1.9839317,20.4960115" id="Fill-14"></path>
            </g>
        </g>
    </g>
</svg>