<svg height="21" viewBox="0 0 28 21" width="28" xmlns="http://www.w3.org/2000/svg"><g fill="#ff9100" fill-rule="evenodd"><path d="m25.38 10.041a6 6 0 1 1 -8.005 8.78h-15.233c-.6 0-1.108-.21-1.522-.628-.413-.419-.62-.94-.62-1.563v-14.438c0-.624.207-1.145.621-1.564a2.057 2.057 0 0 1 1.522-.628h21.179c.538 0 1.03.21 1.475.628.445.42.667.94.667 1.564v7.863a6.447 6.447 0 0 0 -.085-.014zm-1.53-.75v-3.104h-22.39v10.313a.67.67 0 0 0 .186.483c.124.13.29.194.497.194h14.264a6 6 0 0 1 7.443-7.887zm-20 5.405v-2.61h2.516v2.61h-2.515zm-1.706-13.181a.464.464 0 0 0 -.373.193.747.747 0 0 0 -.155.484v2.481h22.39v-2.481a.67.67 0 0 0 -.187-.484.658.658 0 0 0 -.496-.193h-21.181zm19.856 18.485a5 5 0 1 0 0-10 5 5 0 0 0 0 10z"/><path d="m22.015 14.353c.504.2.868.435 1.094.708s.354.577.386.913c0 .336-.108.661-.323.976s-.575.525-1.078.63v.944h-.677v-.944c-.231 0-.47-.042-.717-.126a3.004 3.004 0 0 1 -.621-.283h-.079l.268-.74.078.078c.168.126.362.223.583.292.22.068.451.102.692.102.305 0 .549-.076.732-.228a.715.715 0 0 0 .276-.575c0-.2-.084-.383-.252-.55-.168-.169-.42-.32-.756-.457a3.388 3.388 0 0 1 -1.078-.583c-.31-.252-.464-.593-.464-1.023 0-.41.123-.753.37-1.03.246-.279.569-.45.968-.513v-.944h.677v.866c.199.031.396.07.59.118.194.047.375.123.543.228h.063l-.268.74-.063-.079a4.852 4.852 0 0 1 -.425-.157c-.178-.074-.414-.11-.708-.11-.304 0-.527.08-.669.244-.142.162-.213.328-.213.495 0 .2.08.376.237.528s.435.312.834.48z"/></g></svg>