<svg height="96" viewBox="0 0 96 96" width="96" xmlns="http://www.w3.org/2000/svg"><path d="m66.984 69.254c-.351 0-.683-.156-.996-.469-.312-.312-.468-.664-.468-1.055v-3.75c0-1.484-.645-2.832-1.934-4.042-1.25-1.211-2.793-2.237-4.629-3.077a27.657 27.657 0 0 0 -5.8-1.904c-2.032-.469-3.829-.703-5.391-.703-1.563 0-3.38.234-5.45.703a27.657 27.657 0 0 0 -5.8 1.904c-1.836.84-3.38 1.866-4.63 3.077-1.25 1.21-1.874 2.558-1.874 4.042v3.75c0 .391-.157.743-.469 1.055-.313.313-.664.469-1.055.469-.351 0-.683-.156-.996-.469-.312-.312-.469-.664-.469-1.055v-3.75c0-2.109.704-3.964 2.11-5.566 1.445-1.602 3.213-2.93 5.303-3.984a29.449 29.449 0 0 1 6.709-2.403c2.343-.507 4.453-.761 6.328-.761s4.004.254 6.386.761a29.449 29.449 0 0 1 6.71 2.403c2.09 1.054 3.857 2.382 5.302 3.984 1.406 1.602 2.11 3.457 2.11 5.566v3.75c.273.508.273.89 0 1.143a1.41 1.41 0 0 1 -.997.38zm-18.984-19.277c-1.64 0-3.184-.293-4.629-.88a12.412 12.412 0 0 1 -3.809-2.548c-1.093-1.074-1.953-2.354-2.578-3.838-.664-1.445-.996-3.008-.996-4.688 0-1.718.332-3.28.996-4.687a11.475 11.475 0 0 1 2.578-3.75 11.835 11.835 0 0 1 3.81-2.461c1.444-.586 2.987-.879 4.628-.879 1.64 0 3.184.313 4.629.938a12.412 12.412 0 0 1 3.809 2.548 11.81 11.81 0 0 1 2.578 3.78 11.49 11.49 0 0 1 .996 4.746c0 1.68-.332 3.242-.996 4.687a11.15 11.15 0 0 1 -2.578 3.721 12.092 12.092 0 0 1 -3.81 2.432c-1.444.586-2.987.879-4.628.879zm0-20.977c-2.5 0-4.668.889-6.504 2.666s-2.754 3.975-2.754 6.592.889 4.814 2.666 6.592c1.778 1.777 3.975 2.666 6.592 2.666 2.5 0 4.668-.889 6.504-2.666 1.836-1.778 2.754-3.975 2.754-6.592s-.918-4.815-2.754-6.592-4.004-2.666-6.504-2.666z" fill="#b9bbbe" fill-rule="evenodd"/></svg>