<?xml version="1.0" encoding="UTF-8"?>
<svg width="210px" height="200px" viewBox="0 0 210 200" version="1.1" xmlns="http://www.w3.org/2000/svg" xmlns:xlink="http://www.w3.org/1999/xlink">
    <title>Group 4@2x</title>
    <defs>
        <path d="M86.03125,110.513208 C87.2812562,110.513208 88.257809,110.279248 88.9609375,109.811321 C89.664066,109.343394 90.015625,108.758494 90.015625,108.056604 C90.015625,107.276726 89.7421902,106.613839 89.1953125,106.067925 C88.6484348,105.52201 87.7500062,105.015097 86.5,104.54717 C84.7812414,103.767292 83.2773502,102.909439 81.9882812,101.973585 C80.6992123,101.037731 80.0546875,99.555985 80.0546875,97.5283019 C80.0546875,95.81257 80.5234328,94.3698172 81.4609375,93.2 C82.3984422,92.0301828 83.7265539,91.3283031 85.4453125,91.0943396 L85.4453125,87 L88.0234375,87 L88.0234375,90.509434 C89.0390676,90.8213852 89.8593719,91.0358485 90.484375,91.1528302 C91.1093781,91.2698119 91.773434,91.5622618 92.4765625,92.0301887 L92.9453125,92.4981132 L91.5390625,96.0075472 L90.953125,95.5396226 C90.7187488,95.5396226 90.2500035,95.3641527 89.546875,95.0132075 C88.8437465,94.6622624 87.9843801,94.4867925 86.96875,94.4867925 C85.9531199,94.4867925 85.2109398,94.7792424 84.7421875,95.3641509 C84.2734352,95.9490595 84.0390625,96.5144627 84.0390625,97.0603774 C84.0390625,97.7622677 84.3320283,98.3276708 84.9179688,98.7566038 C85.5039092,99.1855367 86.5390551,99.7899332 88.0234375,100.569811 C89.9765723,101.271702 91.4609324,102.168548 92.4765625,103.260377 C93.4921926,104.352207 94,105.755966 94,107.471698 C94,109.031454 93.5117236,110.376724 92.5351562,111.507547 C91.5585889,112.63837 90.2109461,113.476727 88.4921875,114.022642 L88.4921875,118 L84.9765625,118 L84.9765625,114.022642 C83.9609324,114.022642 82.9843797,113.886165 82.046875,113.613208 C81.1093703,113.34025 80.2500039,112.969814 79.46875,112.501887 L79,112.033962 L80.5234375,108.524528 L80.9921875,108.992453 C81.7734414,109.538368 82.6132768,109.928301 83.5117188,110.162264 C84.4101607,110.396228 85.2499961,110.513208 86.03125,110.513208 Z M149.977621,107.317607 C150.453477,107.555393 150.830191,107.832806 151.107774,108.149855 C151.385357,108.466903 151.682762,108.863207 152,109.338779 L152,138.824109 C152,139.061895 151.881038,139.398754 151.64311,139.834695 C151.405181,140.270636 151.167257,140.607495 150.929329,140.845281 C150.6914,140.845281 150.354341,140.924542 149.918139,141.083066 C149.481937,141.24159 149.144878,141.320851 148.906949,141.320851 L148.431095,141.320851 L133.679623,139.775249 C133.203767,139.775249 132.807226,139.656357 132.489988,139.418571 C132.172751,139.180785 131.895172,138.784481 131.657244,138.229647 L99.656066,150 L97.6336867,150 L55.9964664,133.711733 L55.5206125,133.711733 C54.2516623,133.236161 53.3792721,132.146324 52.9034158,130.442191 C52.4275595,128.738057 52.4672136,127.133025 53.0223793,125.627046 C53.2603074,125.38926 53.5378861,124.953325 53.8551237,124.319229 C54.1723612,123.685133 54.7275186,123.090676 55.5206125,122.535842 C54.0137341,121.029863 52.8835923,119.068157 52.1301531,116.650665 C51.3767139,114.233173 51,111.637381 51,108.863209 C51,104.900107 51.5948115,101.174848 52.7844523,97.6873181 C54.0534025,94.1205265 55.7981829,90.8708318 58.0188457,87.9381365 C60.2395086,85.0054412 62.8963332,82.4690941 65.9893993,80.3290192 C69.003156,78.1889442 72.2944462,76.5244664 75.8633687,75.3355359 C72.0565181,72.0857924 69.7367533,69.5296301 68.9040047,67.6669723 C68.0712561,65.8043145 67.6548881,64.4766953 67.6548881,63.6840749 C67.4169599,62.9707166 67.436787,62.2177386 67.7143698,61.4251182 C67.9919527,60.6324979 68.4876289,59.8795198 69.2014134,59.1661615 C71.5013857,56.3919902 73.8211505,55.4408601 76.1607774,56.3127425 C78.5004043,57.1846249 80.4236281,58.135755 81.9305065,59.1661615 C82.644291,59.6417337 83.3977188,60.1172988 84.1908127,60.592871 C84.9839066,61.0684432 85.7373345,61.425117 86.451119,61.6629031 C87.2442128,61.425117 87.9976407,61.0684432 88.7114252,60.592871 C89.4252097,60.1172988 90.0200212,59.6417337 90.4958775,59.1661615 C92.0820653,58.135755 94.0251161,57.1846249 96.3250883,56.3127425 C98.6250606,55.4408601 100.924998,56.3919902 103.224971,59.1661615 C104.018064,59.6417337 104.474087,60.3352661 104.593051,61.2467795 C104.712015,62.1582929 104.771496,62.9707166 104.771496,63.6840749 C104.771496,64.4766953 104.355128,65.8241297 103.522379,67.7264185 C102.689631,69.6287074 100.21125,72.3632066 96.0871614,75.9299982 C99.5767744,77.0396667 102.749102,78.664514 105.60424,80.804589 C108.538688,82.9446639 111.07655,85.4611958 113.217903,88.3542601 C115.359257,91.2473244 117.024729,94.4375735 118.21437,97.9251031 C119.404011,101.412633 119.998822,105.058632 119.998822,108.863209 L119.998822,110.884381 C121.029844,111.122167 122.259121,111.478841 123.68669,111.954413 C125.114259,112.429985 126.581461,112.90555 128.088339,113.381123 C128.088339,112.667764 128.246956,112.053493 128.564193,111.53829 C128.881431,111.023086 129.396934,110.646597 130.110718,110.408811 L147.360424,106.842037 C147.91559,106.842037 148.411266,106.861853 148.847468,106.901484 C149.283669,106.941115 149.660383,107.079821 149.977621,107.317607 Z M73,63.1757812 L73,63 L73,63.1757812 Z M73,62.407046 L73,62.5891343 C73,63.3984196 73.780773,64.7944158 75.3423423,66.7771648 C76.9039117,68.7599138 79.2852693,71.1675014 82.4864865,74 L89.045045,74 C92.5585761,71.1675014 95.0960883,68.7599138 96.6576577,66.7771648 C98.219227,64.7944158 99,63.3984196 99,62.5891343 L99,62.1035655 C98.5315292,61.2942802 98.0825847,60.9301073 97.6531532,61.0110358 C97.2237216,61.0919644 96.0330428,61.7798466 94.0810811,63.074703 C93.066061,63.8839883 91.9339402,64.632566 90.6846847,65.3204585 C89.4354292,66.008351 88.0690765,66.4736831 86.5855856,66.7164687 L85.5315315,66.7164687 C84.0480406,66.4736831 82.6816879,66.008351 81.4324324,65.3204585 C80.1831769,64.632566 79.0510561,63.8839883 78.036036,63.074703 C76.3183097,61.7798466 75.1861889,61.1728917 74.6396396,61.2538202 C74.0930904,61.3347487 73.5465493,61.779849 73,62.5891343 L73,62.407046 Z M85.7714643,80 C81.6818545,80 77.8328677,80.7519714 74.2243885,82.2559367 C70.6960977,83.6807459 67.6289363,85.6991954 65.0228124,88.3113456 C62.4166886,90.9234959 60.3919611,93.9709588 58.9485694,97.4538259 C57.5051777,101.015849 56.8636799,104.815283 57.0240568,108.852243 C57.0240568,111.860173 57.4249929,114.313975 58.2268772,116.21372 C59.0287615,118.113466 60.3518507,119.696564 62.1961845,120.963061 C62.6773151,120.963061 63.098298,121.062004 63.4591459,121.259894 C63.8199939,121.457785 64.2409768,121.556728 64.7221073,121.556728 L84.2077978,125 C84.2077978,124.525064 84.3481254,124.030346 84.6287849,123.515831 C84.9094444,123.001317 85.2903338,122.506599 85.7714643,122.031662 C87.2950444,120.211073 89.3598655,118.825862 91.9659894,117.875989 C94.5721133,116.926117 97.7996491,116.451187 101.648694,116.451187 C102.691143,115.659627 104.475309,114.511881 107.001244,113.007916 C109.52718,111.50395 112.193405,110.633247 115,110.395778 L115,108.852243 C115,104.894439 114.238221,101.17416 112.714641,97.6912929 C111.110873,94.2084259 108.985911,91.1609629 106.339693,88.5488127 C103.693475,85.9366624 100.606267,83.839058 97.0779761,82.2559367 C93.5496853,80.7519714 89.7808857,80 85.7714643,80 Z M98.7770492,145 L131,134.052117 L129.937705,127.064107 L128.993443,121.124298 C126.711464,119.649044 124.213128,118.620264 121.498361,118.037927 L117.42623,117.164426 C115.144251,116.698556 112.724603,117.222652 110.167213,118.736728 C107.609823,120.250804 105.819677,121.39605 104.796721,122.1725 C104.560655,122.1725 104.304919,122.250144 104.029508,122.405433 C103.754097,122.560723 103.498362,122.638367 103.262295,122.638367 C99.2491603,122.871302 96.2786982,123.395397 94.3508197,124.210669 C92.4229412,125.025941 91.1836093,125.82179 90.6327869,126.59824 C90.1606534,127.064109 89.8852463,127.510561 89.8065574,127.937608 L89.6885246,128.578176 L89.6885246,129.044043 L89.747541,129.393444 C89.7868854,129.626379 89.924589,129.85931 90.1606557,130.092245 C90.1606557,130.32518 91.7147386,130.5387 94.8229508,130.732812 C97.9311631,130.926925 104.285198,129.044063 113.885246,125.084171 C114.357379,124.851236 114.986881,124.851236 115.77377,125.084171 C116.56066,125.317106 117.111474,125.82179 117.42623,126.59824 C117.662296,127.064109 117.642624,127.70467 117.367213,128.519942 C117.091802,129.335214 116.600004,129.85931 115.891803,130.092245 C110.855713,132.343948 106.449199,133.974468 102.672131,134.983852 C98.8950631,135.993236 95.7475536,136.497921 93.2295082,136.497921 C91.7344188,136.497921 90.3770553,136.362044 89.157377,136.090287 C87.9376988,135.81853 86.9344302,135.294434 86.147541,134.517985 C85.6754075,134.052115 85.2819688,133.489197 84.9672131,132.829215 C84.6524574,132.169233 84.3770504,131.567494 84.1409836,131.023979 L64.547541,127.646441 C63.2885183,127.335861 62.18689,127.199985 61.242623,127.238807 C60.2983559,127.27763 59.7081979,127.568794 59.4721311,128.112308 C59.2360644,128.345243 59.0983609,128.578175 59.0590164,128.81111 C59.0196719,129.044044 59,129.315798 59,129.626377 L98.7770492,145 Z M146,136 L146,113 L135,115.464286 L136.053191,125.438776 L137.574468,134.47449 L137.574468,135.061224 L146,136 Z" id="path-1"></path>
    </defs>
    <g id="Page-1" stroke="none" stroke-width="1" fill="none" fill-rule="evenodd">
        <g id="Sin-Cta.-Ahorro-Premium-Copy" transform="translate(-82.000000, -74.000000)">
            <g id="Group-4" transform="translate(82.000000, 74.000000)">
                <rect id="Rectangle" fill="#FFFFFF" x="0" y="0" width="210" height="200"></rect>
                <g id="Group-3">
                    <g id="Group-2" fill-rule="nonzero">
                        <g id="Group" fill="#F8F6F8">
                            <path d="M172.558537,92.5617486 C175.734146,95.2327869 176.143902,100.061202 173.378049,103.348634 C170.612195,106.636066 165.797561,107.046995 162.621951,104.375956 C159.497561,101.756284 154.887805,102.218579 152.22439,105.403279 C149.560976,108.587978 149.919512,113.313661 153.043902,115.881967 L169.843902,130.00765 C173.019512,132.678689 173.429268,137.507104 170.663415,140.794536 C167.897561,144.081967 163.082927,144.492896 159.907317,141.821858 L154.273171,137.044809 C151.353659,134.579235 147,135.04153 144.541463,138.020765 C142.082927,141 142.390244,145.417486 145.258537,147.780328 L159.65122,159.902732 C162.826829,162.57377 163.236585,167.402186 160.470732,170.689617 C157.704878,173.977049 152.890244,174.387978 149.714634,171.71694 L113.195122,141.256831 C110.22439,138.739891 105.717073,139.15082 103.156098,142.232787 C100.646341,145.263388 100.953659,149.73224 103.97561,152.300546 C106.946341,154.76612 107.253659,159.234973 104.692683,162.214208 L103.873171,163.190164 C101.363415,166.169399 96.9585366,166.631694 93.9878049,164.16612 L86.9707317,158.20765 C83.9487805,155.69071 79.3902439,156.101639 76.7780488,159.183607 C74.1658537,162.31694 69.5560976,162.779235 66.5853659,160.159563 L33.1902439,132.062295 C30.0146341,129.391257 29.604878,124.562842 32.3707317,121.27541 C35.1365854,117.987978 39.9512195,117.577049 43.1268293,120.248087 C45.2268293,121.943169 48.3,121.686339 50.0414634,119.580328 L51.3219512,118.09071 C53.7804878,115.162842 53.4219512,110.848087 50.604878,108.485246 L26.6341463,88.3497268 C23.4585366,85.6786885 23.0487805,80.8502732 25.8146341,77.5628415 C28.5804878,74.2754098 33.395122,73.8644809 36.5707317,76.5355191 L41.6926829,80.8502732 C44.6634146,83.3672131 49.1707317,82.9562842 51.7829268,79.8743169 C54.395122,76.8437158 53.9853659,72.2721311 50.9634146,69.7551913 L24.4317073,47.4622951 C21.2560976,44.7912568 20.8463415,39.9628415 23.6121951,36.6754098 C26.3780488,33.3879781 31.1926829,32.9770492 34.3682927,35.6480874 L71.0414634,66.4677596 C74.0634146,68.9846995 78.6731707,68.5737705 81.2853659,65.4918033 C83.897561,62.4612022 83.4878049,57.7355191 80.4658537,55.2185792 L63.5121951,40.9387978 C60.3365854,38.2677596 59.9268293,33.4393443 62.6926829,30.1519126 C65.4585366,26.8644809 70.2731707,26.4535519 73.4487805,29.1245902 L112.785366,62.2557377 C115.909756,64.8754098 120.519512,64.4131148 123.182927,61.2284153 C125.846341,58.095082 125.487805,53.420765 122.363415,50.8010929 L109.046341,39.6546448 C105.870732,36.9836066 105.460976,32.1551913 108.226829,28.8677596 C110.992683,25.5803279 115.807317,25.1693989 118.982927,27.8404372 L165.746341,67.1868852 C168.921951,69.8579235 169.331707,74.6349727 166.565854,77.8196721 C163.902439,81.0043716 164.260976,85.884153 167.385366,88.452459 L172.558537,92.5617486 Z" id="Shape"></path>
                            <path d="M124.002439,186.202186 L114.270732,178.034973 C111.095122,175.363934 110.634146,170.535519 113.297561,167.299454 C115.960976,164.114754 120.77561,163.652459 124.002439,166.323497 L133.734146,174.49071 C136.909756,177.161749 137.370732,181.990164 134.707317,185.22623 C132.043902,188.410929 127.229268,188.873224 124.002439,186.202186 Z" id="Shape"></path>
                            <path d="M94.5512195,27.0185792 L78.7243902,13.7661202 C75.5487805,11.095082 75.0878049,6.26666667 77.7512195,3.03060109 C80.4146341,-0.205464481 85.2292683,-0.616393443 88.4560976,2.05464481 L104.282927,15.4098361 C107.458537,18.0808743 107.919512,22.9092896 105.256098,26.1453552 C102.541463,29.3300546 97.7268293,29.6896175 94.5512195,27.0185792 Z" id="Shape"></path>
                            <path d="M181.265854,119.68306 C178.090244,117.012022 177.629268,112.183607 180.292683,108.947541 C182.956098,105.711475 187.770732,105.300546 190.997561,107.971585 L206.82439,121.224044 C210,123.895082 210.460976,128.723497 207.797561,131.959563 C205.134146,135.195628 200.319512,135.606557 197.092683,132.935519 L181.265854,119.68306 Z" id="Shape"></path>
                            <path d="M19.002439,116.344262 L3.17560976,102.989071 C1.99840144e-15,100.318033 -0.46097561,95.4896175 2.20243902,92.2535519 C4.86585366,89.0688525 9.6804878,88.6065574 12.9073171,91.2775956 L28.7341463,104.632787 C31.9097561,107.303825 32.3707317,112.13224 29.7073171,115.368306 C26.9414634,118.553005 22.1780488,119.015301 19.002439,116.344262 Z" id="Shape"></path>
                        </g>
                        <circle id="Oval" stroke="#F8E51C" stroke-width="3" fill="#FFFFFF" cx="99" cy="23" r="12"></circle>
                        <circle id="Oval" stroke="#CFB2D9" stroke-width="3" fill="#FFFFFF" cx="174.5" cy="153.5" r="6.5"></circle>
                        <ellipse id="Oval" stroke="#C6C8FF" stroke-width="3" fill="#FFFFFF" cx="20.5" cy="146" rx="4.5" ry="4"></ellipse>
                        <circle id="Oval" stroke="#B8E986" stroke-width="3" fill="#FFFFFF" cx="183" cy="57" r="5"></circle>
                        <circle id="Oval-Copy" stroke="#B8E986" stroke-width="3" fill="#FFFFFF" cx="30" cy="30" r="5"></circle>
                    </g>
                    <mask id="mask-2" fill="white">
                        <use xlink:href="#path-1"></use>
                    </mask>
                    <use id="Mask" fill="#FF9100" xlink:href="#path-1"></use>
                </g>
            </g>
        </g>
    </g>
</svg>