<svg height="28" viewBox="0 0 28 28" width="28" xmlns="http://www.w3.org/2000/svg"><path d="m10.46 12.468-4.2-4.082a.751.751 0 0 1 -.173-.507c0-.203.058-.362.174-.478l4.198-4.198c.116-.135.28-.203.492-.203.213 0 .377.068.493.203a.596.596 0 0 1 .202.477.687.687 0 0 1 -.202.507l-2.954 2.838h12.103a.72.72 0 0 1 .522.231c.154.155.231.319.231.493a.72.72 0 0 1 -.231.52.72.72 0 0 1 -.522.232h-12.103l2.954 2.954a.687.687 0 0 1 .202.507.687.687 0 0 1 -.449.666.657.657 0 0 1 -.246.072.657.657 0 0 1 -.246-.072.834.834 0 0 1 -.246-.16zm6.427 3.185 4.083 4.228c.058.058.11.12.159.188a.523.523 0 0 1 .072.304.465.465 0 0 1 -.072.275c-.048.068-.101.14-.16.217l-4.082 4.054a.62.62 0 0 1 -.246.188.657.657 0 0 1 -.246.073.657.657 0 0 1 -.246-.073.62.62 0 0 1 -.246-.188.596.596 0 0 1 -.203-.478c0-.202.067-.371.203-.507l2.953-2.837h-12.103a.72.72 0 0 1 -.521-.232c-.155-.154-.232-.318-.232-.492a.72.72 0 0 1 .232-.521.72.72 0 0 1 .52-.232h12.104l-2.953-2.953a.687.687 0 0 1 -.203-.507c0-.203.067-.372.203-.507.115-.115.28-.173.492-.173s.376.058.492.173z" fill="#2c3038" fill-rule="evenodd"/></svg>