<svg height="28" viewBox="0 0 28 28" width="28" xmlns="http://www.w3.org/2000/svg"><path d="m14 2.333c1.585 0 3.087.304 4.506.913a11.863 11.863 0 0 1 3.719 2.488 11.965 11.965 0 0 1 2.53 3.704c.608 1.42.912 2.94.912 4.562s-.304 3.142-.913 4.562a11.697 11.697 0 0 1 -2.488 3.704 11.697 11.697 0 0 1 -3.704 2.488c-1.42.609-2.94.913-4.562.913s-3.142-.304-4.562-.913a11.697 11.697 0 0 1 -3.704-2.488 11.697 11.697 0 0 1 -2.488-3.704c-.609-1.42-.913-2.94-.913-4.562s.304-3.142.913-4.562a11.965 11.965 0 0 1 2.53-3.704c1.06-1.05 2.299-1.88 3.718-2.488a11.32 11.32 0 0 1 4.506-.913zm0 21.924c1.42 0 2.746-.268 3.981-.802a10.291 10.291 0 0 0 3.276-2.198c.93-.93 1.663-2.023 2.198-3.276.534-1.235.802-2.562.802-3.981 0-1.42-.268-2.746-.802-3.981a10.291 10.291 0 0 0 -2.198-3.276 10.291 10.291 0 0 0 -3.276-2.198c-1.235-.534-2.562-.802-3.981-.802-1.42 0-2.746.268-3.981.802a10.291 10.291 0 0 0 -3.276 2.198c-.93.93-1.663 2.023-2.198 3.276-.534 1.235-.802 2.562-.802 3.981 0 1.42.268 2.746.802 3.981a10.291 10.291 0 0 0 2.198 3.276c.93.93 2.023 1.663 3.276 2.198 1.235.534 2.562.802 3.981.802zm.58-11.086c.885.35 1.526.764 1.922 1.244.396.479.622 1.013.677 1.603 0 .59-.189 1.161-.566 1.714-.378.553-1.01.922-1.894 1.106v1.659h-1.189v-1.659c-.405 0-.825-.074-1.258-.221a5.275 5.275 0 0 1 -1.092-.498h-.138l.47-1.3.138.14c.295.22.636.39 1.023.51s.793.18 1.216.18c.535 0 .963-.133 1.286-.4.323-.268.484-.604.484-1.01 0-.35-.148-.672-.443-.967-.294-.295-.737-.562-1.327-.802a5.95 5.95 0 0 1 -1.893-1.023c-.544-.442-.816-1.041-.816-1.797 0-.719.217-1.322.65-1.81.433-.49 1-.789 1.7-.9v-1.657h1.189v1.52c.35.056.696.125 1.037.208.34.083.658.216.953.4h.11l-.47 1.3-.11-.138a8.522 8.522 0 0 1 -.746-.277c-.313-.129-.728-.193-1.244-.193-.535 0-.926.143-1.175.428-.249.286-.373.576-.373.871 0 .35.138.66.414.926.277.268.765.549 1.466.844z" fill="#2c3038" fill-rule="evenodd"/></svg>