<?xml version="1.0" encoding="UTF-8"?>
<svg width="24px" height="24px" viewBox="0 0 24 24" version="1.1" xmlns="http://www.w3.org/2000/svg" xmlns:xlink="http://www.w3.org/1999/xlink">
    <!-- Generator: Sketch 52.6 (67491) - http://www.bohemiancoding.com/sketch -->
    <title>bech_pago_rut</title>
    <desc>Created with Sketch.</desc>
    <g id="bech_pago_rut" stroke="none" stroke-width="1" fill="none" fill-rule="evenodd">
        <path d="M3.92788614,11.6554625 C3.97277703,11.6618754 4.01675177,11.6618754 4.06805564,11.6618754 C4.48856412,11.6618754 4.67316643,11.3622975 4.67316643,10.961028 C4.67316643,10.5854104 4.52017097,10.2927035 4.13126933,10.2927035 C4.05522967,10.2927035 3.97873194,10.3055295 3.92788614,10.3243103 L3.92788614,11.6554625 Z M3.09374023,9.70041866 C3.32918833,9.64957286 3.64800522,9.61750795 3.96590597,9.61750795 C4.46291219,9.61750795 4.85731067,9.69400568 5.13169475,9.94869273 C5.3863818,10.1777279 5.50089936,10.5281516 5.50089936,10.8914013 C5.50089936,11.3563426 5.36072987,11.6875274 5.13810773,11.9229755 C4.87059471,12.2092694 4.44367324,12.3366129 4.0932495,12.3366129 C4.03599072,12.3366129 3.98514492,12.3366129 3.92788614,12.330658 L3.92788614,13.9288651 L3.09374023,13.9288651 L3.09374023,9.70041866 Z M6.90804535,12.4132481 C6.63411934,12.4196611 6.24613385,12.5153977 6.24613385,12.9482741 C6.24613385,13.253807 6.41791019,13.3687826 6.54525372,13.3687826 C6.68542321,13.3687826 6.83200569,13.2922849 6.88926447,13.1008115 C6.90163237,13.0627917 6.90804535,13.0119459 6.90804535,12.9546871 L6.90804535,12.4132481 Z M7.72982337,13.2157871 C7.72982337,13.4640612 7.74264934,13.7187483 7.77471425,13.9290025 L7.02943396,13.9290025 L6.98454308,13.6234697 L6.9657622,13.6234697 C6.79994077,13.8653307 6.5516667,13.9798483 6.27774069,13.9798483 C5.80638641,13.9798483 5.45596267,13.5854498 5.45596267,13.0375978 C5.45596267,12.2158198 6.17559103,11.884635 6.88285149,11.878222 L6.88285149,11.8081373 C6.88285149,11.5598632 6.74268199,11.3816739 6.44310405,11.3816739 C6.19482998,11.3816739 5.99785977,11.4517586 5.80638641,11.5662762 L5.65384902,10.9996433 C5.83158027,10.9039066 6.18887506,10.7637371 6.62816443,10.7637371 C7.57682791,10.7637371 7.72982337,11.4261067 7.72982337,12.0628243 L7.72982337,13.2157871 Z M9.5513397,11.9547198 C9.5513397,11.871809 9.53851373,11.7893564 9.51973285,11.7256846 C9.48125495,11.5919281 9.39193125,11.4705395 9.25221983,11.4705395 C8.95264189,11.4705395 8.83171134,11.878222 8.83171134,12.3816412 C8.83171134,12.9611001 8.9970747,13.253807 9.23893579,13.253807 C9.34749844,13.253807 9.44919003,13.1965482 9.5128618,13.0311848 C9.54492671,12.9611001 9.5513397,12.8717764 9.5513397,12.7829108 L9.5513397,11.9547198 Z M10.3854856,13.5785788 C10.3854856,14.2537743 10.2581421,14.617024 10.009868,14.8588851 C9.78037482,15.0750943 9.44919003,15.2028959 8.9970747,15.2028959 C8.70390974,15.2028959 8.44326778,15.151592 8.22018757,15.0563134 L8.37318303,14.4191377 C8.52617849,14.4896805 8.7231487,14.5469393 8.96546785,14.5469393 C9.38597634,14.5469393 9.5513397,14.2666003 9.5513397,13.788833 L9.5513397,13.5978177 L9.53851373,13.5978177 C9.42995108,13.795246 9.21374193,13.9102216 8.97829382,13.9102216 C8.28385933,13.9102216 8.01039139,13.1457024 8.01039139,12.4004221 C8.01039139,11.3688479 8.48128761,10.7637371 9.05433348,10.7637371 C9.30306563,10.7637371 9.50644881,10.8974936 9.62783743,11.1333998 L9.64020533,11.1333998 L9.68509621,10.8145829 L10.4175505,10.8145829 C10.3983116,11.1013349 10.3854856,11.4261067 10.3854856,11.8021824 L10.3854856,13.5785788 Z M11.8568989,13.3429932 C12.1308249,13.3429932 12.2004515,12.8207932 12.2004515,12.3686778 C12.2004515,11.9358015 12.1308249,11.4007754 11.8440729,11.4007754 C11.53854,11.4007754 11.4744102,11.9358015 11.4744102,12.3686778 C11.4744102,12.8972909 11.5573209,13.3429932 11.8500278,13.3429932 L11.8568989,13.3429932 Z M11.8376599,13.980169 C11.0923796,13.980169 10.6462192,13.3878841 10.6462192,12.3815038 C10.6462192,11.2670189 11.2325491,10.7640578 11.8500278,10.7640578 C12.5893532,10.7640578 13.0286425,11.3815365 13.0286425,12.3622649 C13.0286425,13.6553972 12.3085561,13.980169 11.8440729,13.980169 L11.8376599,13.980169 Z M14.2067534,11.5726892 L14.3597489,11.5726892 C14.7225405,11.5726892 14.9263818,11.2795242 14.9263818,10.9039066 C14.9263818,10.534702 14.7802574,10.2800149 14.4105947,10.267189 C14.3340969,10.267189 14.2516443,10.273602 14.2067534,10.2928409 L14.2067534,11.5726892 Z M13.3726075,9.70055608 C13.6337075,9.64925221 13.9648923,9.61764537 14.2832511,9.61764537 C14.7417795,9.61764537 15.1554169,9.68131713 15.429801,9.93600419 C15.6904429,10.1714523 15.7733536,10.4582043 15.7733536,10.827867 C15.7733536,11.2863953 15.5443185,11.7000327 15.1114421,11.897461 L15.1114421,11.9102869 C15.404149,12.0312175 15.5507315,12.2987305 15.6331841,12.7636718 C15.7160949,13.2414391 15.8306124,13.7695941 15.9071102,13.9290025 L15.0349444,13.9290025 C14.9776856,13.808072 14.8819489,13.3751956 14.8182772,12.8974283 C14.7417795,12.3688153 14.6080229,12.2158198 14.3340969,12.2158198 L14.2067534,12.2158198 L14.2067534,13.9290025 L13.3726075,13.9290025 L13.3726075,9.70055608 Z M16.9707951,9.63660947 L16.9707951,12.4257992 C16.9707951,13.0565619 17.1553974,13.2475772 17.3784776,13.2475772 C17.6203387,13.2475772 17.792115,13.0758009 17.792115,12.4257992 L17.792115,9.63660947 L18.6262609,9.63660947 L18.6262609,12.2796748 C18.6262609,13.3813337 18.2062105,13.9800315 17.3844325,13.9800315 C16.4866148,13.9800315 16.1366492,13.3556818 16.1366492,12.2860878 L16.1366492,9.63660947 L16.9707951,9.63660947 Z M19.6074016,10.4071752 L18.8497534,10.4071752 L18.8497534,9.63670109 L21.2056087,9.63670109 L21.2056087,10.4071752 L20.4415475,10.4071752 L20.4415475,13.9288193 L19.6074016,13.9288193 L19.6074016,10.4071752 Z M16.3297716,1.97176587 L16.3297716,0.873771494 L19.6695617,0.873771494 C21.575592,0.873771494 23.1261598,2.42433927 23.1261598,4.33036956 L23.1261598,7.83414887 L22.0281654,7.83414887 L22.0281654,4.33036956 C22.0281654,3.02990814 20.9700232,1.97176587 19.6695617,1.97176587 L16.3297716,1.97176587 Z M1.97169716,7.83410306 L0.874160854,7.83410306 L0.874160854,4.33078183 C0.874160854,2.42429347 2.42427056,0.873725687 4.33030085,0.873725687 L7.99761123,0.873725687 L7.99761123,1.97172006 L4.33030085,1.97172006 C3.0302975,1.97172006 1.97169716,3.02986233 1.97169716,4.33078183 L1.97169716,7.83410306 Z M7.99774866,22.0282341 L7.99774866,23.1262285 L4.33043827,23.1262285 C2.42440798,23.1262285 0.873840204,21.5756607 0.873840204,19.6696304 L0.873840204,16.1658511 L1.97183458,16.1658511 L1.97183458,19.6696304 C1.97183458,20.9700919 3.02997685,22.0282341 4.33043827,22.0282341 L7.99774866,22.0282341 Z M22.0283945,16.1658969 L23.1259308,16.1658969 L23.1259308,19.6692182 C23.1259308,21.5757065 21.5758211,23.1262743 19.6697908,23.1262743 L16.3300006,23.1262743 L16.3300006,22.0282799 L19.6697908,22.0282799 C20.9697941,22.0282799 22.0283945,20.9701377 22.0283945,19.6692182 L22.0283945,16.1658969 Z" id="Combined-Shape" fill="#000000"></path>
    </g>
</svg>