<svg xmlns="http://www.w3.org/2000/svg" xmlns:xlink="http://www.w3.org/1999/xlink" width="22" height="22" viewBox="0 0 22 22"><defs><path id="a" d="M5.24 5.24v2.999h2.999v-3h-3zM3.995 3.995h5.486v5.486H3.996V3.996zm-2.752 3.77H0V2.45A2.398 2.398 0 0 1 2.398.05h5.136v1.244H2.398c-.637 0-1.154.517-1.154 1.155v5.317zm17.382-3.77v5.486H13.14V3.996h5.486zm-4.243 1.243v3h3v-3h-3zm-.15-3.995V0h5.318a2.398 2.398 0 0 1 2.399 2.398v5.136h-1.244V2.398c0-.637-.517-1.154-1.155-1.154h-5.317zM3.997 18.626V13.14h5.486v5.486H3.996zm4.243-1.244v-2.999h-3v3h3zm-.473 3.374V22H2.45A2.398 2.398 0 0 1 .05 19.602v-5.136h1.244v5.136c0 .637.517 1.154 1.155 1.154h5.317zm10.86-2.13h-3.658v-3.658h3.658v3.658zm-3.658-6.4H13.14v-1.83h1.828v1.83zm-2.743-6.401h-1.828v-1.83h1.828v1.83zm-6.4 6.4h-1.83v-1.828h1.83v1.828zm12.8 0h-1.828v-1.828h1.829v1.828zm2.131 2.009H22v5.317a2.398 2.398 0 0 1-2.398 2.399h-5.136v-1.244h5.136c.637 0 1.154-.517 1.154-1.155v-5.317zm-12.79-2.107v-1.244h3.81v3.883h-1.244v-2.64H7.965z"/></defs><g fill="none" fill-rule="evenodd"><mask id="b" fill="#fff"><use xlink:href="#a"/></mask><use fill="#FF9100" fill-rule="nonzero" xlink:href="#a"/><g fill="#3E50B4" mask="url(#b)"><path d="M-1-1h28v28H-1z"/></g></g></svg>