<svg height="28" viewBox="0 0 28 28" width="28" xmlns="http://www.w3.org/2000/svg"><path d="m25.48 12.811c.143.143.214.321.214.535a.63.63 0 0 1 -.214.504.917.917 0 0 1 -.198.2c-.072.05-.178.076-.321.076-.061 0-.148-.006-.26-.016a.406.406 0 0 1 -.26-.107l-9.903-8.741-10.056 8.741c-.122.123-.29.163-.504.123a1.001 1.001 0 0 1 -.535-.276c-.122-.122-.163-.29-.122-.504.04-.214.132-.392.275-.535l10.942-9.505 10.942 9.504zm-3.514 1.315a.76.76 0 0 1 .55.244.76.76 0 0 1 .244.55v9.261c0 .184-.081.357-.244.52a.76.76 0 0 1 -.55.245h-14.977a.76.76 0 0 1 -.55-.245c-.164-.163-.245-.336-.245-.52v-9.26a.76.76 0 0 1 .244-.55.76.76 0 0 1 .55-.245c.184 0 .357.081.52.244a.76.76 0 0 1 .245.55v8.589h13.447v-8.589a.76.76 0 0 1 .245-.55c.163-.163.336-.244.52-.244z" fill="#2c3038" fill-rule="evenodd"/></svg>