<svg xmlns="http://www.w3.org/2000/svg" xmlns:xlink="http://www.w3.org/1999/xlink" width="22" height="20" viewBox="0 0 22 20"><defs><path id="a" d="M22.48 14.353a.48.48 0 0 1-.342-.155.495.495 0 0 1-.155-.356v-.89c0-.308-.135-.59-.413-.851a3.73 3.73 0 0 0-1.057-.701 6.42 6.42 0 0 0-1.347-.442 5.625 5.625 0 0 0-1.245-.163c-.359 0-.779.054-1.262.163-.471.1-.92.247-1.345.442a3.73 3.73 0 0 0-1.056.7c-.268.26-.4.542-.4.852v.89a.495.495 0 0 1-.154.356.495.495 0 0 1-.356.155.48.48 0 0 1-.343-.155.495.495 0 0 1-.155-.356v-.89c0-.537.18-1.012.54-1.421.355-.394.789-.72 1.3-.979a7.308 7.308 0 0 1 3.16-.767c.457 0 .973.062 1.55.185a7.136 7.136 0 0 1 1.626.582c.512.259.946.585 1.303.98.357.408.538.883.538 1.42l-.018.819c.093.174.093.337-.03.452a.484.484 0 0 1-.339.13zM17.976 8.78c-.408 0-.793-.073-1.157-.221a3.095 3.095 0 0 1-.95-.635 2.905 2.905 0 0 1-.642-.955 2.781 2.781 0 0 1-.25-1.175c0-.43.083-.822.248-1.172.157-.36.372-.674.646-.938.273-.263.59-.468.95-.615.362-.146.747-.219 1.155-.219.41 0 .796.078 1.158.235.36.155.677.367.95.635.273.269.488.584.643.942.166.372.25.768.25 1.188 0 .42-.084.812-.25 1.171a2.795 2.795 0 0 1-.646.932 3.045 3.045 0 0 1-2.105.826zm0-4.977c-.553 0-1.03.196-1.438.59a1.94 1.94 0 0 0-.608 1.457c0 .581.195 1.064.589 1.457.393.394.876.589 1.457.589.554 0 1.031-.196 1.44-.59a1.94 1.94 0 0 0 .607-1.456 1.94 1.94 0 0 0-.608-1.456 1.995 1.995 0 0 0-1.439-.59zm-.992 17.4c-.14 0-.273-.062-.398-.187a.583.583 0 0 1-.188-.422v-1.5c0-.594-.257-1.133-.773-1.617-.5-.485-1.117-.895-1.852-1.23a11.063 11.063 0 0 0-2.32-.763c-.812-.187-1.531-.28-2.156-.28-.625 0-1.352.093-2.18.28-.812.172-1.586.426-2.32.762-.735.336-1.352.746-1.852 1.23-.5.485-.75 1.024-.75 1.618v1.5a.583.583 0 0 1-.187.422.583.583 0 0 1-.422.187c-.14 0-.273-.062-.399-.187A.583.583 0 0 1 1 20.594v-1.5c0-.844.281-1.586.844-2.227a7.174 7.174 0 0 1 2.12-1.594 11.78 11.78 0 0 1 2.684-.96c.938-.204 1.782-.305 2.532-.305s1.601.101 2.554.305c.954.218 1.848.539 2.684.96a7.174 7.174 0 0 1 2.121 1.594c.563.64.844 1.383.844 2.227v1.5c.11.203.11.355 0 .457a.564.564 0 0 1-.399.152zm-7.593-7.71a4.88 4.88 0 0 1-1.852-.352 4.965 4.965 0 0 1-1.523-1.02 4.659 4.659 0 0 1-1.032-1.535 4.437 4.437 0 0 1-.398-1.875c0-.688.133-1.313.398-1.875a4.59 4.59 0 0 1 1.032-1.5c.437-.422.945-.75 1.523-.984A4.88 4.88 0 0 1 9.391 4c.656 0 1.273.125 1.851.375.578.25 1.086.59 1.524 1.02.437.43.78.933 1.03 1.511.267.594.4 1.227.4 1.899 0 .672-.133 1.297-.4 1.875a4.46 4.46 0 0 1-1.03 1.488 4.88 4.88 0 0 1-3.375 1.324zm0-8.391c-1 0-1.868.355-2.602 1.066-.734.71-1.101 1.59-1.101 2.637s.355 1.925 1.066 2.636c.71.711 1.59 1.067 2.637 1.067 1 0 1.867-.356 2.601-1.067.735-.71 1.102-1.59 1.102-2.636 0-1.047-.367-1.926-1.102-2.637-.734-.711-1.601-1.066-2.601-1.066z"/></defs><g fill="none" fill-rule="evenodd" transform="translate(-1 -2)"><mask id="b" fill="#fff"><use xlink:href="#a"/></mask><use fill="#FF9100" fill-rule="nonzero" xlink:href="#a"/><g fill="#FF9100" mask="url(#b)"><path d="M-2-2h28v28H-2z"/></g></g></svg>