<svg height="28" viewBox="0 0 28 28" width="28" xmlns="http://www.w3.org/2000/svg"><g fill="#ff9100" fill-rule="evenodd" transform="translate(3 3)"><path d="m1.084 10.831 2.25.425.836 9.506h15.169l.57-9.108v-.541l2.409-.282-10.528-9.515-10.397 8.477z"/><path d="m22.647 9.561c.143.143.214.321.214.535a.63.63 0 0 1 -.214.504.917.917 0 0 1 -.199.2c-.07.05-.178.076-.32.076-.062 0-.148-.006-.26-.016a.406.406 0 0 1 -.26-.107l-9.903-8.741-10.056 8.741c-.122.123-.29.163-.504.123a1.001 1.001 0 0 1 -.535-.276c-.122-.122-.163-.29-.122-.504.04-.214.132-.392.275-.535l10.286-8.936a1 1 0 0 1 1.312 0zm-3.515 1.315a.76.76 0 0 1 .55.244.76.76 0 0 1 .245.55v9.261c0 .184-.082.357-.245.52a.76.76 0 0 1 -.55.245h-14.977a.76.76 0 0 1 -.55-.245c-.163-.163-.244-.336-.244-.52v-9.26a.76.76 0 0 1 .244-.55.76.76 0 0 1 .55-.245c.184 0 .357.081.52.244a.76.76 0 0 1 .244.55v8.589h13.45v-8.589a.76.76 0 0 1 .244-.55c.163-.163.336-.244.52-.244z"/></g></svg>