<svg xmlns="http://www.w3.org/2000/svg" xmlns:xlink="http://www.w3.org/1999/xlink" width="20" height="23" viewBox="0 0 20 23"><defs><path id="a" d="M23.452 20.535c.11.128.132.25.068.37a2.447 2.447 0 0 0-.178.45c-.054.183-.136.306-.246.37a.693.693 0 0 1-.355.095h-4.758c-.128.93-.574 1.728-1.34 2.393a3.923 3.923 0 0 1-2.652.998 3.739 3.739 0 0 1-2.584-.998c-.738-.665-1.199-1.463-1.381-2.393H5.241c-.11 0-.233-.05-.37-.15-.136-.1-.204-.205-.204-.315 0-.109.009-.223.027-.341.018-.119.091-.242.219-.37.51-.455.92-1.002 1.23-1.64.31-.656.552-1.308.725-1.955.173-.647.287-1.253.342-1.819.073-.565.118-1.011.136-1.34v-2.46c0-.875.137-1.696.41-2.461A7.408 7.408 0 0 1 8.892 6.89a6.783 6.783 0 0 1 1.71-1.559 6.902 6.902 0 0 1 2.132-.902v-.22a.68.68 0 0 1 .219-.491c.146-.146.3-.219.465-.219h1.53c.165 0 .32.073.466.219a.68.68 0 0 1 .219.492v.219a6.902 6.902 0 0 1 2.132.902c.657.42 1.222.939 1.696 1.559s.847 1.312 1.12 2.078c.274.765.41 1.586.41 2.46v2.352c.037.347.083.802.138 1.367.073.584.191 1.194.355 1.832.164.638.401 1.277.711 1.915a5.06 5.06 0 0 0 1.258 1.64zm-9.215 3.281c.638 0 1.203-.205 1.695-.615.492-.41.82-.907.985-1.49h-5.36c.164.583.492 1.08.985 1.49.492.41 1.057.615 1.695.615zm3.39-3.5h3.965c-.765-1.112-1.253-2.301-1.462-3.568-.21-1.267-.342-2.22-.397-2.857V11.43a5.92 5.92 0 0 0-.437-2.27A6.093 6.093 0 0 0 18.12 7.3a5.163 5.163 0 0 0-1.75-1.23 4.931 4.931 0 0 0-2.133-.465c-.766 0-1.477.155-2.133.465a5.163 5.163 0 0 0-1.75 1.23 6.093 6.093 0 0 0-1.176 1.86 5.92 5.92 0 0 0-.437 2.27V14a68.897 68.897 0 0 1-.356 2.816c-.182 1.295-.667 2.388-1.487 3.5h10.73z"/></defs><g fill="none" fill-rule="evenodd" transform="translate(-4 -3)"><mask id="b" fill="#fff"><use xlink:href="#a"/></mask><use fill="#FF9100" xlink:href="#a"/><g fill="#FFF" mask="url(#b)"><path d="M-2.333-2.333h33v33h-33z"/></g></g></svg>