<svg xmlns="http://www.w3.org/2000/svg" xmlns:xlink="http://www.w3.org/1999/xlink" width="13" height="18" viewBox="0 0 13 18"><defs><path id="a" d="M9.61 10.664L6.21 7.36a.608.608 0 0 1-.14-.41c0-.164.047-.293.14-.386l3.4-3.399A.496.496 0 0 1 10.007 3c.172 0 .304.055.398.164.11.094.164.223.164.387s-.054.3-.164.41l-2.39 2.297h9.796c.157 0 .297.062.422.187s.188.258.188.399a.583.583 0 0 1-.188.422.583.583 0 0 1-.422.187H8.017l2.39 2.39c.11.11.164.247.164.41a.556.556 0 0 1-.363.54.532.532 0 0 1-.2.059.532.532 0 0 1-.198-.059.675.675 0 0 1-.2-.129zm5.203 2.578l3.304 3.422c.047.047.09.098.13.152.038.055.058.137.058.247 0 .093-.02.167-.059.222-.039.055-.082.113-.129.176l-3.305 3.281a.502.502 0 0 1-.199.153.532.532 0 0 1-.199.058.532.532 0 0 1-.2-.058.502.502 0 0 1-.198-.153.482.482 0 0 1-.164-.387c0-.164.054-.3.164-.41l2.39-2.297H6.61a.583.583 0 0 1-.421-.187c-.126-.125-.188-.258-.188-.398 0-.157.062-.297.188-.422a.583.583 0 0 1 .421-.188h9.797l-2.39-2.39a.556.556 0 0 1-.164-.41c0-.165.054-.301.164-.41.093-.095.226-.141.398-.141.172 0 .305.046.399.14z"/></defs><g fill="none" fill-rule="evenodd" transform="translate(-6 -3)"><mask id="b" fill="#fff"><use xlink:href="#a"/></mask><use fill="#FF9100" xlink:href="#a"/><g fill="#FF9100" mask="url(#b)"><path d="M-2-2h28v28H-2z"/></g></g></svg>