<?xml version="1.0" encoding="UTF-8"?>
<svg width="254px" height="138px" viewBox="0 0 254 138" version="1.1" xmlns="http://www.w3.org/2000/svg" xmlns:xlink="http://www.w3.org/1999/xlink">
    <!-- Generator: Sketch 52.6 (67491) - http://www.bohemiancoding.com/sketch -->
    <title>Artboard</title>
    <desc>Created with Sketch.</desc>
    <defs>
        <path d="M7.33563198,8.12747106 L7.33563198,0.842135733 L6.33575026,1.26387781 L6.33575026,0 L6.35743638,0 L10.2643217,3.26097761 L10.2643217,7.92310442 C10.2643217,8.40128817 10.0549943,9.00018656 9.76838434,9.33615548 L7.33563198,8.12747106 Z" id="path-1"></path>
        <path d="M2.19366634,9.73514984 C1.12789539,9.73514984 0.264020647,8.60016386 0.264020647,7.49262582 L0.264020647,8.00129113 C0.264020647,9.10882916 1.12789539,9.99691627 2.19366634,9.99691627 L8.34017405,9.99691627 C9.40571619,9.99691627 10.2640206,9.1603184 10.2640206,8.00129113 L10.2582978,7.49262582 C10.2582978,8.60016386 9.40571619,9.68677504 8.34017405,9.68677504 L2.19366634,9.73514984 Z" id="path-3"></path>
        <path d="M7.33563198,8.12747106 L7.33563198,0.842135733 L6.33575026,1.26387781 L6.33575026,0 L6.35743638,0 L10.2643217,3.26097761 L10.2643217,7.92310442 C10.2643217,8.40128817 10.0549943,9.00018656 9.76838434,9.33615548 L7.33563198,8.12747106 Z" id="path-5"></path>
        <path d="M2.19366634,9.73514984 C1.12789539,9.73514984 0.264020647,8.60016386 0.264020647,7.49262582 L0.264020647,8.00129113 C0.264020647,9.10882916 1.12789539,9.99691627 2.19366634,9.99691627 L8.34017405,9.99691627 C9.40571619,9.99691627 10.2640206,9.1603184 10.2640206,8.00129113 L10.2582978,7.49262582 C10.2582978,8.60016386 9.40571619,9.68677504 8.34017405,9.68677504 L2.19366634,9.73514984 Z" id="path-7"></path>
        <path d="M7.33563198,8.12747106 L7.33563198,0.842135733 L6.33575026,1.26387781 L6.33575026,0 L6.35743638,0 L10.2643217,3.26097761 L10.2643217,7.92310442 C10.2643217,8.40128817 10.0549943,9.00018656 9.76838434,9.33615548 L7.33563198,8.12747106 Z" id="path-9"></path>
        <path d="M2.19366634,9.73514984 C1.12789539,9.73514984 0.264020647,8.60016386 0.264020647,7.49262582 L0.264020647,8.00129113 C0.264020647,9.10882916 1.12789539,9.99691627 2.19366634,9.99691627 L8.34017405,9.99691627 C9.40571619,9.99691627 10.2640206,9.1603184 10.2640206,8.00129113 L10.2582978,7.49262582 C10.2582978,8.60016386 9.40571619,9.68677504 8.34017405,9.68677504 L2.19366634,9.73514984 Z" id="path-11"></path>
        <path d="M14.8433568,0.314829898 C14.5351486,0.329879128 14.273894,0.546588045 14.2100852,0.842154928 L12.9772523,5.60072155 L14.3978996,5.34970039 L14.5628392,4.58760737 L16.2935007,4.28240898 C16.365737,4.44012491 16.5872616,4.97166372 16.5872616,4.97166372 L17.8417655,4.75074102 L15.8889774,0.130627319 L14.8433568,0.314829898 Z M15.0769209,2.0900371 C15.0769209,2.0900371 15.1359139,1.79266431 15.1738379,1.5994322 L15.3399814,1.99733385 L15.895599,3.3355114 L14.7759363,3.53295731 L15.0769209,2.0900371 Z M11.0985064,0.969772401 C9.76273668,1.20574433 8.93683492,2.02622837 9.09455086,2.96530034 C9.21675061,3.65756493 9.95416289,3.92363533 10.5103824,4.06630203 C11.066602,4.20836676 11.282107,4.31852713 11.3164192,4.53704195 C11.3736063,4.86150336 10.9769086,5.08242606 10.5898424,5.15044858 C10.1534147,5.24134593 9.70133582,5.23171442 9.27152981,5.122758 L9.08732723,5.07821227 L9.08853117,6.19125335 C9.600205,6.27673298 10.1239182,6.2743251 10.636194,6.18282578 C12.0568414,5.93240659 12.864684,5.12215603 12.6997445,4.11867335 C12.6034294,3.57328924 12.1772352,3.21692347 11.3344783,3.00864212 C10.8222025,2.86958723 10.4929253,2.76905838 10.4543993,2.55054355 C10.4158733,2.33202873 10.6259605,2.09364892 11.1562954,1.99974172 C11.5012238,1.93051526 11.8563856,1.93232117 12.1995081,2.00636338 L12.3331452,2.03706381 L12.3463885,0.959538924 C12.1501466,0.927032587 11.9514967,0.910779418 11.7528469,0.910779418 C11.5337301,0.910779418 11.3146133,0.930042433 11.0985064,0.969772401 Z M7.16403559,1.66324093 L7.17005529,6.63430269 L8.52207814,6.39592288 L8.51545648,1.42486113 L7.16403559,1.66324093 Z M5.01139369,2.04308351 L4.26916565,5.57784672 L4.00971692,4.92170028 L3.99767754,4.90243726 C4.00369723,4.91086483 4.00911495,4.9192924 4.01453268,4.92771997 L3.13144384,2.80096274 C3.00924409,2.54753371 2.70464767,2.42112017 2.41630442,2.50419192 L0.125209596,2.90811326 L0.143268673,3.00984606 C0.759083177,3.03874058 1.31891454,3.14348323 1.81734505,3.30902476 L3.73341305,7.22483449 L5.16188599,6.97321135 L6.45973162,1.78724659 L5.01139369,2.04308351 Z" id="path-13"></path>
    </defs>
    <g id="Artboard" stroke="none" stroke-width="1" fill="none" fill-rule="evenodd">
        <g id="Group-7-Copy" transform="translate(3.000000, 2.000000)">
            <g id="Group-4" transform="translate(69.567749, 66.689651) rotate(-394.000000) translate(-69.567749, -66.689651) translate(12.067749, 29.189651)">
                <g id="Group-2" transform="translate(0.367519, 0.200716)">
                    <rect id="Rectangle" fill="#B5BEC3" fill-rule="nonzero" x="0" y="0.131682526" width="113.51157" height="72.9473752" rx="7"></rect>
                    <path d="M4.54747351e-13,64.3312292 L113.51157,64.3312292 L113.51157,68.7051434 C113.51157,71.1207896 111.553302,73.0790577 109.137656,73.0790577 L4.37391424,73.0790577 C1.95826811,73.0790577 4.55043182e-13,71.1207896 4.54747351e-13,68.7051434 Z" id="Rectangle" fill="#A33D4D" fill-rule="nonzero"></path>
                    <path d="M4.54747351e-13,0.131682526 L113.51157,0.131682526 L113.51157,4.50559677 C113.51157,6.9212429 111.553302,8.879511 109.137656,8.879511 L4.37391424,8.879511 C1.95826811,8.879511 4.55043182e-13,6.9212429 4.54747351e-13,4.50559677 Z" id="Rectangle-Copy-2" fill="#A33D4D" fill-rule="nonzero" transform="translate(56.755785, 4.505597) rotate(-180.000000) translate(-56.755785, -4.505597) "></path>
                    <g id="Logo-BECH-/-light" transform="translate(6.190321, 12.923020)">
                        <g id="logo" transform="translate(0.354982, 1.323661)">
                            <g id="Group" transform="translate(-0.265372, 0.000000)">
                                <path d="M2.18388149,0 C1.12351451,0 0.264020647,0.859575701 0.264020647,1.91986644 L0.264020647,8.00428118 C0.264020647,9.06464815 1.15856613,10 2.21893311,10 L8.31764221,10 C9.37808542,10 10.2376611,9.09746443 10.2376611,8.00428118 L10.2640206,1.91986644 C10.2640206,0.859575701 9.40444495,1.30104261e-17 8.34400174,1.30104261e-17 L2.18388149,0 Z" id="Mask" fill="#FFFFFF"></path>
                                <path d="M0.264020647,6.50304522 L0.264020647,5.54623195 L2.48707105,4.69176631 C2.58816394,4.66175071 2.65210824,4.57558917 2.65918779,4.47647673 L2.65842655,3.84904398 C2.65842655,3.75655936 2.73333273,3.65249511 2.82612808,3.61676588 L3.6344906,3.31158185 L3.6344906,4.25372135 L2.82612808,4.56141937 C2.73706281,4.59432988 2.67258564,4.67797742 2.66634346,4.77625185 L2.66634346,5.39911371 C2.66634346,5.49152215 2.59227465,5.59352949 2.50069728,5.6301729 L0.264020647,6.50304522 Z" id="Mask" fill="#CD0143"></path>
                                <path d="M0.298437914,8.34197885 C0.28568389,8.14758138 0.276839976,7.98165151 0.271906172,7.84418924 C0.266972367,7.70672696 0.264343859,7.5530201 0.264020647,7.38306863 L2.48707105,6.53482337 C2.58816394,6.50480776 2.65210824,6.41864622 2.65918779,6.31953379 L2.65842655,5.69210103 C2.65842655,5.59961641 2.73333273,5.49555216 2.82612808,5.45982293 L3.6344906,5.15463891 L3.6344906,6.0967784 L2.82612808,6.40447642 C2.73706281,6.43738693 2.67258564,6.52103447 2.66634346,6.61930891 L2.66634346,7.24217076 C2.66634346,7.3345792 2.59227465,7.43658654 2.50069728,7.47322996 L0.298437914,8.34197885 Z" id="Mask" fill="#CD0143"></path>
                                <path d="M9.34571383,2.50221188 L6.33121823,0.00384684359 C5.92372035,0.458956518 4.88865345,1.18190626 3.63138361,1.36382824 L3.63138361,2.37978784 L2.64821412,2.80983372 L2.64821412,3.68500947 L0.264020647,4.60082543 L0.264020647,1.91863695 C0.264020647,0.859025224 1.12216951,0 2.18087025,0 L8.34701883,0 C9.40579567,0 10.2640206,0.859025224 10.2640206,1.91863695 L10.2640206,3.26978411 L9.34571383,2.50221188 Z" id="Path" fill="#CD0143"></path>
                                <mask id="mask-2" fill="white">
                                    <use xlink:href="#path-1"></use>
                                </mask>
                                <use id="Mask" fill="#EC8600" xlink:href="#path-1"></use>
                                <path d="M2.66726628,9.94423018 L7.32867454,8.12747868 L9.77351326,9.30042905 C9.42226491,9.69542133 8.91035263,9.94423018 8.34033137,9.94423018 L2.66726628,9.94423018 Z" id="Combined-Shape" fill="#00488C"></path>
                                <mask id="mask-4" fill="white">
                                    <use xlink:href="#path-3"></use>
                                </mask>
                                <use id="Mask" fill="#002E56" xlink:href="#path-3"></use>
                            </g>
                        </g>
                        <g id="iso" transform="translate(0.354982, 0.532474)">
                            <g transform="translate(0.000000, 0.436204)">
                                <polygon id="Fill-23" fill="#C1163C" points="0 9.97757692 10.8554286 9.97757692 10.8554286 -0.000115384615 0 -0.000115384615"></polygon>
                                <path d="M10.8557429,5.25846154 L6.25302857,1.69884615 C6.25302857,1.69884615 6.25224286,1.69923077 6.25185,1.69961538 L6.25185,8.31576923 L10.8557429,8.31653846 L10.8557429,5.25846154 Z" id="Fill-25" fill="#F3990A"></path>
                                <path d="M6.25310714,2.64992308 L6.25310714,1.698 C5.93253571,2.028 5.126,2.59107692 4.13403571,2.72261538 L4.13403571,3.45915385 L3.35735714,3.76992308 L3.35735714,4.40376923 L0,5.59569231 L0,8.31646154 L7.04903571,8.31646154 L7.04903571,2.34415385 L6.25310714,2.64992308 Z" id="Fill-26" fill="#FEFEFE"></path>
                                <path d="M4.13552857,4.13296154 L3.49713571,4.35488462 C3.42406429,4.38103846 3.36513571,4.45603846 3.36513571,4.52257692 L3.36592143,4.97680769 C3.36002857,5.04911538 3.30935,5.11180769 3.23038571,5.13334615 L-7.85714287e-05,6.27719231 L-7.85714287e-05,6.97219231 L3.2406,5.81334615 C3.31327857,5.78719231 3.37220714,5.71219231 3.37220714,5.64526923 L3.37220714,5.1945 C3.37692143,5.12334615 3.42720714,5.06296154 3.49713571,5.03911538 L4.13552857,4.81603846 L4.13552857,4.13296154 Z" id="Fill-27" fill="#C0163C"></path>
                                <path d="M4.13552857,5.46842308 L3.49713571,5.69034615 C3.42406429,5.71611538 3.36513571,5.79111538 3.36513571,5.85842308 L3.36592143,6.31265385 C3.36002857,6.38419231 3.30935,6.44726923 3.23038571,6.46919231 L-7.85714287e-05,7.63188462 L-7.85714287e-05,8.31496154 L3.2406,7.14880769 C3.31327857,7.12303846 3.37220714,7.04765385 3.37220714,6.98073077 L3.37220714,6.53034615 C3.37692143,6.45919231 3.42720714,6.39842308 3.49713571,6.37457692 L4.13552857,6.1515 L4.13552857,5.46842308 Z" id="Fill-28" fill="#C0163C"></path>
                                <polygon id="Fill-29" fill="#0A4A8F" points="0 10.1614231 10.8554286 10.1614231 10.8554286 8.31526923 0 8.31526923"></polygon>
                                <path d="M3.47063284,8.62965385 L3.23976697,8.6471211 L3.14464168,8.99765702 C3.06715198,8.975029 3.03081198,8.96867727 2.97576758,8.96867727 C2.70909612,8.96867727 2.47876467,9.18622391 2.47074849,9.44346885 C2.46754202,9.55899088 2.53113702,9.62965385 2.64550113,9.62965385 C2.71230259,9.62965385 2.81063435,9.60027711 2.88972729,9.55660899 C2.93461787,9.53159906 2.97149228,9.50500121 3.00088493,9.47602145 C3.0131764,9.46490593 3.02867434,9.44823265 3.04844757,9.42361971 L3.00248816,9.60702582 L3.21785609,9.60702582 L3.47063284,8.62965385 Z M3.1136458,9.11873682 L3.09333816,9.19535452 C3.07944345,9.26045972 3.00195375,9.34819295 2.9084317,9.41091625 C2.84964641,9.44902661 2.78765465,9.47602145 2.75558994,9.47602145 C2.72299083,9.47602145 2.70482083,9.45180549 2.70642406,9.4121072 C2.7080273,9.347002 2.75398671,9.24577135 2.80261818,9.18741486 C2.85605935,9.12627949 2.9356867,9.08539025 2.99874728,9.08539025 C3.04096581,9.08539025 3.07784022,9.09571181 3.1136458,9.11873682 Z" id="Fill-30" fill="#FEFEFE"></path>
                                <path d="M4.25325618,9.15802993 C4.25676867,9.02793874 4.14647659,8.96046154 3.92799993,8.96046154 C3.54022142,8.96046154 3.26484248,9.23280196 3.25360252,9.62489923 C3.24728005,9.84921534 3.35405964,9.96046154 3.57675128,9.96046154 C3.6772084,9.96046154 3.79522794,9.93675333 3.89428006,9.89359224 C3.93010743,9.87961047 3.97295976,9.85711807 4.02634956,9.82611503 C4.0923843,9.78781716 4.12259169,9.77201169 4.19494891,9.72520318 L4.08325184,9.58052233 C3.92027246,9.67839467 3.87952762,9.70027917 3.81208788,9.72277157 C3.76080558,9.73918494 3.70039081,9.74891139 3.66807593,9.74891139 C3.62803359,9.74891139 3.57885877,9.7288506 3.55637886,9.70027917 C3.54232891,9.68204209 3.53530394,9.6619813 3.52617148,9.61517278 L4.03899451,9.39754361 C4.18511395,9.33432172 4.25044619,9.263805 4.25325618,9.15802993 M3.9638273,9.21274117 C3.9631248,9.23097826 3.95961231,9.24313631 3.94626486,9.26927613 L3.54935389,9.44860744 C3.60274368,9.31426093 3.63505856,9.25954968 3.69617582,9.20240683 C3.75026812,9.151343 3.80787289,9.12459528 3.86547767,9.12459528 C3.93151242,9.12459528 3.96523229,9.15559832 3.9638273,9.21274117" id="Fill-31" fill="#FEFEFE"></path>
                                <path d="M4.38165357,8.99530769 C4.31958214,8.97184615 4.26104643,8.96030769 4.19268929,8.96030769 C4.03711786,8.96030769 3.945975,9.02492308 3.94283214,9.13492308 C3.94204643,9.17107692 3.954225,9.20223077 3.97740357,9.23069231 C3.99193929,9.24723077 4.01001071,9.26530769 4.03043929,9.28376923 C4.03751071,9.28838462 4.06343929,9.30915385 4.10743929,9.34646154 C4.141225,9.37338462 4.15340357,9.39261538 4.15301071,9.41569231 C4.152225,9.44684615 4.12079643,9.46761538 4.06933214,9.46761538 C4.028475,9.46761538 3.98683214,9.45838462 3.91729643,9.43530769 L3.86818929,9.55992308 C3.92240357,9.57376923 3.943225,9.578 3.99665357,9.58569231 C4.03279643,9.59069231 4.07483214,9.59338462 4.10154643,9.59338462 C4.23668929,9.59338462 4.328225,9.52261538 4.33136786,9.41338462 C4.33254643,9.35030769 4.30426071,9.30992308 4.20918929,9.23569231 C4.13533214,9.17915385 4.12708214,9.17107692 4.11490357,9.15223077 C4.10940357,9.14415385 4.10704643,9.13492308 4.10704643,9.12607692 C4.10783214,9.09838462 4.13926071,9.08107692 4.193475,9.08107692 C4.23865357,9.08107692 4.26733214,9.08915385 4.33136786,9.11992308 L4.38165357,8.99530769 Z" id="Fill-32" fill="#FEFEFE"></path>
                                <path d="M5.46498334,8.62965385 L5.23330512,8.6471211 L5.13881884,8.99765702 C5.06194865,8.975029 5.02511501,8.96867727 4.97013147,8.96867727 C4.7037549,8.96867727 4.47367814,9.18622391 4.465137,9.44346885 C4.46140026,9.55899088 4.52599257,9.62965385 4.6396964,9.62965385 C4.70695782,9.62965385 4.80464703,9.60027711 4.88418633,9.55660899 C4.92902727,9.53159906 4.96586091,9.50500121 4.99575487,9.47602145 C5.00696511,9.46490593 5.02297973,9.44823265 5.0427311,9.42361971 L4.99628869,9.60702582 L5.21088465,9.60702582 L5.46498334,8.62965385 Z M5.10785724,9.11873682 L5.08810587,9.19535452 C5.07262506,9.26045972 4.99575487,9.34819295 4.90233623,9.41091625 C4.84361595,9.44902661 4.78222655,9.47602145 4.74966349,9.47602145 C4.71763424,9.47602145 4.69948433,9.45180549 4.70108579,9.4121072 C4.70322108,9.347002 4.74806202,9.24577135 4.79717354,9.18741486 C4.85108944,9.12627949 4.93009491,9.08539025 4.99255195,9.08539025 C5.03472379,9.08539025 5.07262506,9.09571181 5.10785724,9.11873682 Z" id="Fill-33" fill="#FEFEFE"></path>
                                <path d="M6.2480281,9.15802993 C6.25154059,9.02793874 6.14054596,8.96046154 5.92277169,8.96046154 C5.533588,8.96046154 5.25820892,9.23280196 5.24837395,9.62489923 C5.24205147,9.84921534 5.34883112,9.96046154 5.57152287,9.96046154 C5.67198003,9.96046154 5.78999964,9.93675333 5.88834931,9.89359224 C5.92487919,9.87961047 5.96843404,9.85711807 6.02112136,9.82611503 C6.08645365,9.78781716 6.11806604,9.77201169 6.1890183,9.72520318 L6.07802367,9.58052233 C5.91504422,9.67839467 5.87429936,9.70027917 5.80615708,9.72277157 C5.75557725,9.73918494 5.69516246,9.74891139 5.66214507,9.74891139 C5.6228052,9.74891139 5.57363036,9.7288506 5.55115044,9.70027917 C5.53639799,9.68204209 5.52937301,9.6619813 5.52094304,9.61517278 L6.03306382,9.39754361 C6.17988583,9.33432172 6.24451562,9.263805 6.2480281,9.15802993 M5.95789658,9.21274117 C5.95719408,9.23097826 5.95438409,9.24313631 5.94173913,9.26927613 L5.54412546,9.44860744 C5.59751528,9.31426093 5.62912768,9.25954968 5.69094747,9.20240683 C5.74503979,9.151343 5.8026446,9.12459528 5.8602494,9.12459528 C5.92628418,9.12459528 5.95930157,9.15559832 5.95789658,9.21274117" id="Fill-34" fill="#FEFEFE"></path>
                                <polygon id="Fill-35" fill="#FEFEFE" points="6.74225357 8.95380769 6.66211071 8.95380769 6.32346786 9.06726923 6.36118214 9.18803846 6.54071786 9.12380769 6.45193214 9.5765 6.61889643 9.5765"></polygon>
                                <path d="M7.86986001,8.89536082 C7.87386387,8.78225254 7.74516826,8.71342308 7.52895962,8.71342308 C7.25784084,8.71342308 7.06565539,8.80417275 7.06107954,8.9348172 C7.0593636,8.99356337 7.09825828,9.059324 7.16174812,9.10798686 L7.24754519,9.17243228 L7.07366311,9.25485227 C6.96212691,9.30702238 6.87289795,9.41267779 6.87003805,9.49772821 C6.86603418,9.63889436 6.99987763,9.71342308 7.25440896,9.71342308 C7.58100984,9.71342308 7.80865809,9.60776766 7.81323394,9.45257257 C7.81552186,9.38505832 7.76289965,9.30877599 7.67538663,9.25485227 L7.54268715,9.17243228 L7.67367069,9.10798686 C7.77147936,9.059324 7.81037404,9.0286357 7.84354891,8.97734241 C7.85956436,8.95103816 7.86928803,8.92166508 7.86986001,8.89536082 M7.61361273,8.93043316 C7.61246877,8.96857433 7.58501371,9.00408507 7.54211517,9.02425166 L7.4237152,9.079929 L7.35050169,9.01548358 C7.32876643,8.99487858 7.3150389,8.96725911 7.31618286,8.94095486 C7.3178988,8.88352391 7.39282825,8.8409987 7.488349,8.8409987 C7.56385043,8.8409987 7.61532868,8.87782466 7.61361273,8.93043316 M7.55527072,9.43635162 C7.55241082,9.51657959 7.43801471,9.58760107 7.31160701,9.58760107 C7.19778289,9.58760107 7.1211375,9.54069182 7.1239974,9.47142395 C7.12571334,9.41574662 7.18462734,9.34867078 7.26356065,9.3100912 L7.3796727,9.25485227 L7.50093257,9.33771067 C7.53696734,9.36313811 7.55641468,9.39689524 7.55527072,9.43635162" id="Fill-36" fill="#FEFEFE"></path>
                                <path d="M8.16981786,8.90553846 L7.74671071,8.90553846 L7.66185357,9.34284615 L7.75024643,9.34284615 C7.79071071,9.34284615 7.847675,9.35669231 7.87674643,9.37361538 C7.90463929,9.39053846 7.92035357,9.42515385 7.91956786,9.469 C7.91603214,9.57861538 7.82881786,9.66823077 7.72549643,9.66823077 C7.68463929,9.66823077 7.64535357,9.659 7.57738929,9.63323077 L7.52710357,9.75438462 C7.60331786,9.78130769 7.65085357,9.79053846 7.71135357,9.79053846 C7.91524643,9.79053846 8.09006786,9.63476923 8.09478214,9.44976923 C8.09674643,9.35976923 8.05785357,9.28861538 7.98713929,9.25823077 C7.94903214,9.24130769 7.92231786,9.23592308 7.85121071,9.22976923 L7.88931786,9.03515385 L8.14428214,9.03515385 L8.16981786,8.90553846 Z" id="Fill-37" fill="#FEFEFE"></path>
                                <path d="M8.77481786,8.90553846 L8.35210357,8.90553846 L8.26685357,9.34284615 L8.35524643,9.34284615 C8.39571071,9.34284615 8.45306786,9.35669231 8.48213929,9.37361538 C8.51003214,9.39053846 8.52496071,9.42515385 8.52456786,9.469 C8.521425,9.57861538 8.43381786,9.66823077 8.33049643,9.66823077 C8.28963929,9.66823077 8.25074643,9.659 8.18278214,9.63323077 L8.13210357,9.75438462 C8.20831786,9.78130769 8.25546071,9.79053846 8.31635357,9.79053846 C8.52024643,9.79053846 8.69546071,9.63476923 8.700175,9.44976923 C8.70174643,9.35976923 8.66285357,9.28861538 8.59253214,9.25823077 C8.55403214,9.24130769 8.52731786,9.23592308 8.45581786,9.22976923 L8.49431786,9.03515385 L8.749675,9.03515385 L8.77481786,8.90553846 Z" id="Fill-38" fill="#FEFEFE"></path>
                            </g>
                        </g>
                    </g>
                </g>
                <rect id="Rectangle" fill="#F7F7F7" fill-rule="nonzero" x="21.2930991" y="16.8840564" width="31.9908437" height="5.33180728"></rect>
                <rect id="Rectangle-Copy" fill="#858A94" fill-rule="nonzero" x="7.09065872" y="42.7973827" width="31.9908437" height="5.33180728"></rect>
                <rect id="Rectangle-Copy-3" fill="#858A94" fill-rule="nonzero" x="7.09065872" y="52.8146338" width="20.4385946" height="5.33180728"></rect>
            </g>
            <g id="Group-Copy-2" opacity="0.496186756" transform="translate(93.816173, 66.527887) rotate(-34.000000) translate(-93.816173, -66.527887) translate(57.316173, 43.027887)" fill="#6D6D6D" fill-rule="nonzero">
                <g id="Group-2-Copy" transform="translate(0.648563, 0.202813)">
                    <path d="M7.07609902,0.15935228 C50.3007404,0.320206833 71.9130612,0.400634109 71.9130612,0.400634109 L71.7977804,38.8032148 C71.7861851,42.6658512 68.6479987,45.7890665 64.7853511,45.7821905 L0.330675535,45.6674593 C0.286870987,45.6673813 0.251351163,45.6319444 0.251170897,45.5881401 C0.251170897,45.5881401 0.251170897,45.5881401 0.251170897,45.5881401 C0.22568367,39.3947799 0.158679769,26.5982193 0.0501591925,7.19845831 L0.0501614674,7.1984583 C0.0285357827,3.3325268 3.1449614,0.181039015 7.01089291,0.15941333 C7.03262807,0.159291745 7.05436367,0.159271395 7.07609902,0.15935228 Z" id="Rectangle"></path>
                </g>
            </g>
            <g id="Group-8" transform="translate(123.500000, 67.082366) rotate(-394.000000) translate(-123.500000, -67.082366) translate(66.500000, 30.082366)">
                <path d="M7.36751903,0.665522078 L106.879089,0.665522078 C110.745082,0.665522078 113.879089,3.79952883 113.879089,7.66552208 L113.879089,66.6128972 C113.879089,70.4788905 110.745082,73.6128972 106.879089,73.6128972 L45.0348682,73.6128972 L7.36751903,73.6128972 C3.50152579,73.6128972 0.367519034,70.4788905 0.367519034,66.6128972 L0.367519034,7.66552208 C0.367519034,3.79952883 3.50152579,0.665522078 7.36751903,0.665522078 Z" id="Rectangle" fill="#F7F7F7" fill-rule="nonzero"></path>
                <path d="M63.6450051,73.6268619 L88.7440969,73.7566673 L113.879089,32.2025432 C113.879089,52.7431563 113.879089,64.4714342 113.879089,67.3873771 C113.879089,67.3873771 113.879089,67.3873771 113.879089,67.3873771 L113.879089,67.3873771 C113.879089,70.8256369 111.091828,73.6128972 107.653569,73.6128972 L63.6450412,73.6128972 C63.6411849,73.6128972 63.6380588,73.6160234 63.6380588,73.6198796 C63.6380588,73.6237218 63.641163,73.626842 63.6450051,73.6268619 Z" id="Rectangle" fill="#9C9C9C" fill-rule="nonzero"></path>
                <path d="M113.879089,52.9077202 C113.879089,59.644882 113.879089,64.4714342 113.879089,67.3873771 C113.879089,67.3873771 113.879089,67.3873771 113.879089,67.3873771 L113.879089,67.3873771 C113.879089,70.8256369 111.091828,73.6128972 107.653569,73.6128972 C92.0839816,73.6128972 76.5143945,73.6128972 60.9448074,73.6128972 L113.879089,52.9077202 Z" id="Rectangle" fill="#9C9C9C" fill-rule="nonzero"></path>
                <path d="M113.879089,47.4728198 C113.879089,57.8332485 113.879089,64.4714342 113.879089,67.3873771 C113.879089,67.3873771 113.879089,67.3873771 113.879089,67.3873771 L113.879089,67.3873771 C113.879089,70.8296241 111.095838,73.6239369 107.653618,73.6375903 C97.6466302,73.6772827 87.6396428,73.716975 77.6326554,73.7566673 C77.6326554,73.7566673 89.7147999,64.9953848 113.879089,47.4728198 Z" id="Rectangle" fill="#666666" fill-rule="nonzero"></path>
                <g id="Logo-BECH-/-light" transform="translate(6.557840, 13.456860)">
                    <g id="logo" transform="translate(0.354982, 1.323661)">
                        <g id="Group" transform="translate(-0.265372, 0.000000)">
                            <path d="M2.18388149,0 C1.12351451,0 0.264020647,0.859575701 0.264020647,1.91986644 L0.264020647,8.00428118 C0.264020647,9.06464815 1.15856613,10 2.21893311,10 L8.31764221,10 C9.37808542,10 10.2376611,9.09746443 10.2376611,8.00428118 L10.2640206,1.91986644 C10.2640206,0.859575701 9.40444495,1.30104261e-17 8.34400174,1.30104261e-17 L2.18388149,0 Z" id="Mask" fill="#FFFFFF"></path>
                            <path d="M0.264020647,6.50304522 L0.264020647,5.54623195 L2.48707105,4.69176631 C2.58816394,4.66175071 2.65210824,4.57558917 2.65918779,4.47647673 L2.65842655,3.84904398 C2.65842655,3.75655936 2.73333273,3.65249511 2.82612808,3.61676588 L3.6344906,3.31158185 L3.6344906,4.25372135 L2.82612808,4.56141937 C2.73706281,4.59432988 2.67258564,4.67797742 2.66634346,4.77625185 L2.66634346,5.39911371 C2.66634346,5.49152215 2.59227465,5.59352949 2.50069728,5.6301729 L0.264020647,6.50304522 Z" id="Mask" fill="#CD0143"></path>
                            <path d="M0.298437914,8.34197885 C0.28568389,8.14758138 0.276839976,7.98165151 0.271906172,7.84418924 C0.266972367,7.70672696 0.264343859,7.5530201 0.264020647,7.38306863 L2.48707105,6.53482337 C2.58816394,6.50480776 2.65210824,6.41864622 2.65918779,6.31953379 L2.65842655,5.69210103 C2.65842655,5.59961641 2.73333273,5.49555216 2.82612808,5.45982293 L3.6344906,5.15463891 L3.6344906,6.0967784 L2.82612808,6.40447642 C2.73706281,6.43738693 2.67258564,6.52103447 2.66634346,6.61930891 L2.66634346,7.24217076 C2.66634346,7.3345792 2.59227465,7.43658654 2.50069728,7.47322996 L0.298437914,8.34197885 Z" id="Mask" fill="#CD0143"></path>
                            <path d="M9.34571383,2.50221188 L6.33121823,0.00384684359 C5.92372035,0.458956518 4.88865345,1.18190626 3.63138361,1.36382824 L3.63138361,2.37978784 L2.64821412,2.80983372 L2.64821412,3.68500947 L0.264020647,4.60082543 L0.264020647,1.91863695 C0.264020647,0.859025224 1.12216951,0 2.18087025,0 L8.34701883,0 C9.40579567,0 10.2640206,0.859025224 10.2640206,1.91863695 L10.2640206,3.26978411 L9.34571383,2.50221188 Z" id="Path" fill="#CD0143"></path>
                            <mask id="mask-6" fill="white">
                                <use xlink:href="#path-5"></use>
                            </mask>
                            <use id="Mask" fill="#EC8600" xlink:href="#path-5"></use>
                            <path d="M2.66726628,9.94423018 L7.32867454,8.12747868 L9.77351326,9.30042905 C9.42226491,9.69542133 8.91035263,9.94423018 8.34033137,9.94423018 L2.66726628,9.94423018 Z" id="Combined-Shape" fill="#00488C"></path>
                            <mask id="mask-8" fill="white">
                                <use xlink:href="#path-7"></use>
                            </mask>
                            <use id="Mask" fill="#002E56" xlink:href="#path-7"></use>
                        </g>
                    </g>
                    <g id="iso" transform="translate(0.354982, 0.532474)">
                        <g transform="translate(0.000000, 0.436204)">
                            <polygon id="Fill-23" fill="#C1163C" points="0 9.97757692 10.8554286 9.97757692 10.8554286 -0.000115384615 0 -0.000115384615"></polygon>
                            <path d="M10.8557429,5.25846154 L6.25302857,1.69884615 C6.25302857,1.69884615 6.25224286,1.69923077 6.25185,1.69961538 L6.25185,8.31576923 L10.8557429,8.31653846 L10.8557429,5.25846154 Z" id="Fill-25" fill="#F3990A"></path>
                            <path d="M6.25310714,2.64992308 L6.25310714,1.698 C5.93253571,2.028 5.126,2.59107692 4.13403571,2.72261538 L4.13403571,3.45915385 L3.35735714,3.76992308 L3.35735714,4.40376923 L0,5.59569231 L0,8.31646154 L7.04903571,8.31646154 L7.04903571,2.34415385 L6.25310714,2.64992308 Z" id="Fill-26" fill="#FEFEFE"></path>
                            <path d="M4.13552857,4.13296154 L3.49713571,4.35488462 C3.42406429,4.38103846 3.36513571,4.45603846 3.36513571,4.52257692 L3.36592143,4.97680769 C3.36002857,5.04911538 3.30935,5.11180769 3.23038571,5.13334615 L-7.85714287e-05,6.27719231 L-7.85714287e-05,6.97219231 L3.2406,5.81334615 C3.31327857,5.78719231 3.37220714,5.71219231 3.37220714,5.64526923 L3.37220714,5.1945 C3.37692143,5.12334615 3.42720714,5.06296154 3.49713571,5.03911538 L4.13552857,4.81603846 L4.13552857,4.13296154 Z" id="Fill-27" fill="#C0163C"></path>
                            <path d="M4.13552857,5.46842308 L3.49713571,5.69034615 C3.42406429,5.71611538 3.36513571,5.79111538 3.36513571,5.85842308 L3.36592143,6.31265385 C3.36002857,6.38419231 3.30935,6.44726923 3.23038571,6.46919231 L-7.85714287e-05,7.63188462 L-7.85714287e-05,8.31496154 L3.2406,7.14880769 C3.31327857,7.12303846 3.37220714,7.04765385 3.37220714,6.98073077 L3.37220714,6.53034615 C3.37692143,6.45919231 3.42720714,6.39842308 3.49713571,6.37457692 L4.13552857,6.1515 L4.13552857,5.46842308 Z" id="Fill-28" fill="#C0163C"></path>
                            <polygon id="Fill-29" fill="#0A4A8F" points="0 10.1614231 10.8554286 10.1614231 10.8554286 8.31526923 0 8.31526923"></polygon>
                            <path d="M3.47063284,8.62965385 L3.23976697,8.6471211 L3.14464168,8.99765702 C3.06715198,8.975029 3.03081198,8.96867727 2.97576758,8.96867727 C2.70909612,8.96867727 2.47876467,9.18622391 2.47074849,9.44346885 C2.46754202,9.55899088 2.53113702,9.62965385 2.64550113,9.62965385 C2.71230259,9.62965385 2.81063435,9.60027711 2.88972729,9.55660899 C2.93461787,9.53159906 2.97149228,9.50500121 3.00088493,9.47602145 C3.0131764,9.46490593 3.02867434,9.44823265 3.04844757,9.42361971 L3.00248816,9.60702582 L3.21785609,9.60702582 L3.47063284,8.62965385 Z M3.1136458,9.11873682 L3.09333816,9.19535452 C3.07944345,9.26045972 3.00195375,9.34819295 2.9084317,9.41091625 C2.84964641,9.44902661 2.78765465,9.47602145 2.75558994,9.47602145 C2.72299083,9.47602145 2.70482083,9.45180549 2.70642406,9.4121072 C2.7080273,9.347002 2.75398671,9.24577135 2.80261818,9.18741486 C2.85605935,9.12627949 2.9356867,9.08539025 2.99874728,9.08539025 C3.04096581,9.08539025 3.07784022,9.09571181 3.1136458,9.11873682 Z" id="Fill-30" fill="#FEFEFE"></path>
                            <path d="M4.25325618,9.15802993 C4.25676867,9.02793874 4.14647659,8.96046154 3.92799993,8.96046154 C3.54022142,8.96046154 3.26484248,9.23280196 3.25360252,9.62489923 C3.24728005,9.84921534 3.35405964,9.96046154 3.57675128,9.96046154 C3.6772084,9.96046154 3.79522794,9.93675333 3.89428006,9.89359224 C3.93010743,9.87961047 3.97295976,9.85711807 4.02634956,9.82611503 C4.0923843,9.78781716 4.12259169,9.77201169 4.19494891,9.72520318 L4.08325184,9.58052233 C3.92027246,9.67839467 3.87952762,9.70027917 3.81208788,9.72277157 C3.76080558,9.73918494 3.70039081,9.74891139 3.66807593,9.74891139 C3.62803359,9.74891139 3.57885877,9.7288506 3.55637886,9.70027917 C3.54232891,9.68204209 3.53530394,9.6619813 3.52617148,9.61517278 L4.03899451,9.39754361 C4.18511395,9.33432172 4.25044619,9.263805 4.25325618,9.15802993 M3.9638273,9.21274117 C3.9631248,9.23097826 3.95961231,9.24313631 3.94626486,9.26927613 L3.54935389,9.44860744 C3.60274368,9.31426093 3.63505856,9.25954968 3.69617582,9.20240683 C3.75026812,9.151343 3.80787289,9.12459528 3.86547767,9.12459528 C3.93151242,9.12459528 3.96523229,9.15559832 3.9638273,9.21274117" id="Fill-31" fill="#FEFEFE"></path>
                            <path d="M4.38165357,8.99530769 C4.31958214,8.97184615 4.26104643,8.96030769 4.19268929,8.96030769 C4.03711786,8.96030769 3.945975,9.02492308 3.94283214,9.13492308 C3.94204643,9.17107692 3.954225,9.20223077 3.97740357,9.23069231 C3.99193929,9.24723077 4.01001071,9.26530769 4.03043929,9.28376923 C4.03751071,9.28838462 4.06343929,9.30915385 4.10743929,9.34646154 C4.141225,9.37338462 4.15340357,9.39261538 4.15301071,9.41569231 C4.152225,9.44684615 4.12079643,9.46761538 4.06933214,9.46761538 C4.028475,9.46761538 3.98683214,9.45838462 3.91729643,9.43530769 L3.86818929,9.55992308 C3.92240357,9.57376923 3.943225,9.578 3.99665357,9.58569231 C4.03279643,9.59069231 4.07483214,9.59338462 4.10154643,9.59338462 C4.23668929,9.59338462 4.328225,9.52261538 4.33136786,9.41338462 C4.33254643,9.35030769 4.30426071,9.30992308 4.20918929,9.23569231 C4.13533214,9.17915385 4.12708214,9.17107692 4.11490357,9.15223077 C4.10940357,9.14415385 4.10704643,9.13492308 4.10704643,9.12607692 C4.10783214,9.09838462 4.13926071,9.08107692 4.193475,9.08107692 C4.23865357,9.08107692 4.26733214,9.08915385 4.33136786,9.11992308 L4.38165357,8.99530769 Z" id="Fill-32" fill="#FEFEFE"></path>
                            <path d="M5.46498334,8.62965385 L5.23330512,8.6471211 L5.13881884,8.99765702 C5.06194865,8.975029 5.02511501,8.96867727 4.97013147,8.96867727 C4.7037549,8.96867727 4.47367814,9.18622391 4.465137,9.44346885 C4.46140026,9.55899088 4.52599257,9.62965385 4.6396964,9.62965385 C4.70695782,9.62965385 4.80464703,9.60027711 4.88418633,9.55660899 C4.92902727,9.53159906 4.96586091,9.50500121 4.99575487,9.47602145 C5.00696511,9.46490593 5.02297973,9.44823265 5.0427311,9.42361971 L4.99628869,9.60702582 L5.21088465,9.60702582 L5.46498334,8.62965385 Z M5.10785724,9.11873682 L5.08810587,9.19535452 C5.07262506,9.26045972 4.99575487,9.34819295 4.90233623,9.41091625 C4.84361595,9.44902661 4.78222655,9.47602145 4.74966349,9.47602145 C4.71763424,9.47602145 4.69948433,9.45180549 4.70108579,9.4121072 C4.70322108,9.347002 4.74806202,9.24577135 4.79717354,9.18741486 C4.85108944,9.12627949 4.93009491,9.08539025 4.99255195,9.08539025 C5.03472379,9.08539025 5.07262506,9.09571181 5.10785724,9.11873682 Z" id="Fill-33" fill="#FEFEFE"></path>
                            <path d="M6.2480281,9.15802993 C6.25154059,9.02793874 6.14054596,8.96046154 5.92277169,8.96046154 C5.533588,8.96046154 5.25820892,9.23280196 5.24837395,9.62489923 C5.24205147,9.84921534 5.34883112,9.96046154 5.57152287,9.96046154 C5.67198003,9.96046154 5.78999964,9.93675333 5.88834931,9.89359224 C5.92487919,9.87961047 5.96843404,9.85711807 6.02112136,9.82611503 C6.08645365,9.78781716 6.11806604,9.77201169 6.1890183,9.72520318 L6.07802367,9.58052233 C5.91504422,9.67839467 5.87429936,9.70027917 5.80615708,9.72277157 C5.75557725,9.73918494 5.69516246,9.74891139 5.66214507,9.74891139 C5.6228052,9.74891139 5.57363036,9.7288506 5.55115044,9.70027917 C5.53639799,9.68204209 5.52937301,9.6619813 5.52094304,9.61517278 L6.03306382,9.39754361 C6.17988583,9.33432172 6.24451562,9.263805 6.2480281,9.15802993 M5.95789658,9.21274117 C5.95719408,9.23097826 5.95438409,9.24313631 5.94173913,9.26927613 L5.54412546,9.44860744 C5.59751528,9.31426093 5.62912768,9.25954968 5.69094747,9.20240683 C5.74503979,9.151343 5.8026446,9.12459528 5.8602494,9.12459528 C5.92628418,9.12459528 5.95930157,9.15559832 5.95789658,9.21274117" id="Fill-34" fill="#FEFEFE"></path>
                            <polygon id="Fill-35" fill="#FEFEFE" points="6.74225357 8.95380769 6.66211071 8.95380769 6.32346786 9.06726923 6.36118214 9.18803846 6.54071786 9.12380769 6.45193214 9.5765 6.61889643 9.5765"></polygon>
                            <path d="M7.86986001,8.89536082 C7.87386387,8.78225254 7.74516826,8.71342308 7.52895962,8.71342308 C7.25784084,8.71342308 7.06565539,8.80417275 7.06107954,8.9348172 C7.0593636,8.99356337 7.09825828,9.059324 7.16174812,9.10798686 L7.24754519,9.17243228 L7.07366311,9.25485227 C6.96212691,9.30702238 6.87289795,9.41267779 6.87003805,9.49772821 C6.86603418,9.63889436 6.99987763,9.71342308 7.25440896,9.71342308 C7.58100984,9.71342308 7.80865809,9.60776766 7.81323394,9.45257257 C7.81552186,9.38505832 7.76289965,9.30877599 7.67538663,9.25485227 L7.54268715,9.17243228 L7.67367069,9.10798686 C7.77147936,9.059324 7.81037404,9.0286357 7.84354891,8.97734241 C7.85956436,8.95103816 7.86928803,8.92166508 7.86986001,8.89536082 M7.61361273,8.93043316 C7.61246877,8.96857433 7.58501371,9.00408507 7.54211517,9.02425166 L7.4237152,9.079929 L7.35050169,9.01548358 C7.32876643,8.99487858 7.3150389,8.96725911 7.31618286,8.94095486 C7.3178988,8.88352391 7.39282825,8.8409987 7.488349,8.8409987 C7.56385043,8.8409987 7.61532868,8.87782466 7.61361273,8.93043316 M7.55527072,9.43635162 C7.55241082,9.51657959 7.43801471,9.58760107 7.31160701,9.58760107 C7.19778289,9.58760107 7.1211375,9.54069182 7.1239974,9.47142395 C7.12571334,9.41574662 7.18462734,9.34867078 7.26356065,9.3100912 L7.3796727,9.25485227 L7.50093257,9.33771067 C7.53696734,9.36313811 7.55641468,9.39689524 7.55527072,9.43635162" id="Fill-36" fill="#FEFEFE"></path>
                            <path d="M8.16981786,8.90553846 L7.74671071,8.90553846 L7.66185357,9.34284615 L7.75024643,9.34284615 C7.79071071,9.34284615 7.847675,9.35669231 7.87674643,9.37361538 C7.90463929,9.39053846 7.92035357,9.42515385 7.91956786,9.469 C7.91603214,9.57861538 7.82881786,9.66823077 7.72549643,9.66823077 C7.68463929,9.66823077 7.64535357,9.659 7.57738929,9.63323077 L7.52710357,9.75438462 C7.60331786,9.78130769 7.65085357,9.79053846 7.71135357,9.79053846 C7.91524643,9.79053846 8.09006786,9.63476923 8.09478214,9.44976923 C8.09674643,9.35976923 8.05785357,9.28861538 7.98713929,9.25823077 C7.94903214,9.24130769 7.92231786,9.23592308 7.85121071,9.22976923 L7.88931786,9.03515385 L8.14428214,9.03515385 L8.16981786,8.90553846 Z" id="Fill-37" fill="#FEFEFE"></path>
                            <path d="M8.77481786,8.90553846 L8.35210357,8.90553846 L8.26685357,9.34284615 L8.35524643,9.34284615 C8.39571071,9.34284615 8.45306786,9.35669231 8.48213929,9.37361538 C8.51003214,9.39053846 8.52496071,9.42515385 8.52456786,9.469 C8.521425,9.57861538 8.43381786,9.66823077 8.33049643,9.66823077 C8.28963929,9.66823077 8.25074643,9.659 8.18278214,9.63323077 L8.13210357,9.75438462 C8.20831786,9.78130769 8.25546071,9.79053846 8.31635357,9.79053846 C8.52024643,9.79053846 8.69546071,9.63476923 8.700175,9.44976923 C8.70174643,9.35976923 8.66285357,9.28861538 8.59253214,9.25823077 C8.55403214,9.24130769 8.52731786,9.23592308 8.45581786,9.22976923 L8.49431786,9.03515385 L8.749675,9.03515385 L8.77481786,8.90553846 Z" id="Fill-38" fill="#FEFEFE"></path>
                        </g>
                    </g>
                </g>
                <rect id="Rectangle" fill="#C1C1C1" fill-rule="nonzero" x="21.2930991" y="17.2171799" width="31.9908437" height="5.33180728"></rect>
                <rect id="Rectangle-Copy" fill="#C1C1C1" fill-rule="nonzero" x="7.09065872" y="43.1305062" width="31.9908437" height="5.33180728"></rect>
                <rect id="Rectangle-Copy-3" fill="#C1C1C1" fill-rule="nonzero" x="7.09065872" y="53.1477574" width="20.4385946" height="5.33180728"></rect>
                <path d="M113.879089,52.9077202 C113.879089,59.644882 113.879089,64.4714342 113.879089,67.3873771 C113.879089,67.3873771 113.879089,67.3873771 113.879089,67.3873771 L113.879089,67.3873771 C113.879089,70.8256369 111.091828,73.6128972 107.653569,73.6128972 C103.993763,73.6128972 100.333958,73.6128972 96.6741524,73.6128972 C91.5467184,73.6128972 88.9830014,73.6128972 88.9830014,73.6128972 C88.9830014,73.6128972 96.9601954,59.5285152 97.4379057,59.3416594 C107.574071,55.3769111 113.054465,53.2322647 113.879089,52.9077202 Z" id="Rectangle" fill="#2C2C2C" fill-rule="nonzero"></path>
                <g id="Group-5" transform="translate(85.308916, 26.659036)" fill="#FF9100" stroke="#FF9100" stroke-width="2">
                    <g id="Group-6">
                        <path d="M6.40943427,4.7087565 L10.0613239,0.837504351 C10.1828462,0.708682446 10.1828462,0.499841472 10.0613239,0.371239399 C9.93980164,0.242417494 9.74300191,0.242417494 9.62147963,0.371239399 L5.74956415,4.47551411 C5.62804187,4.60433601 5.62804187,4.81317698 5.74956415,4.94199889 L9.61670998,9.04121745 C9.67747112,9.1056284 9.75710347,9.13772396 9.83652844,9.13772396 C9.91616079,9.13772396 9.99579313,9.1056284 10.0565543,9.04121745 C10.1780766,8.91261537 10.1780766,8.70355457 10.0565543,8.57495249 L6.40943427,4.7087565 Z" id="Fill-1"></path>
                        <path d="M1.03325241,4.7087565 L4.68514205,0.837504351 C4.80666433,0.708682446 4.80666433,0.499841472 4.68514205,0.371239399 C4.56361978,0.242417494 4.36682004,0.242417494 4.24529777,0.371239399 L0.37338229,4.47551411 C0.251860011,4.60433601 0.251860011,4.81317698 0.37338229,4.94199889 L4.24052812,9.04121745 C4.30128926,9.1056284 4.38092161,9.13772396 4.46034658,9.13772396 C4.53997892,9.13772396 4.61961127,9.1056284 4.68037241,9.04121745 C4.80189469,8.91261537 4.80189469,8.70355457 4.68037241,8.57495249 L1.03325241,4.7087565 Z" id="Fill-1-Copy"></path>
                    </g>
                </g>
            </g>
            <g id="Group-Copy" opacity="0.496186756" transform="translate(148.705458, 67.082366) rotate(-34.000000) translate(-148.705458, -67.082366) translate(112.205458, 43.582366)" fill="#6D6D6D" fill-rule="nonzero">
                <g id="Group-2-Copy" transform="translate(0.648563, 0.202813)">
                    <path d="M7.07609902,0.15935228 C50.3007404,0.320206833 71.9130612,0.400634109 71.9130612,0.400634109 L71.7977804,38.8032148 C71.7861851,42.6658512 68.6479987,45.7890665 64.7853511,45.7821905 L0.330675535,45.6674593 C0.286870987,45.6673813 0.251351163,45.6319444 0.251170897,45.5881401 C0.251170897,45.5881401 0.251170897,45.5881401 0.251170897,45.5881401 C0.22568367,39.3947799 0.158679769,26.5982193 0.0501591925,7.19845831 L0.0501614674,7.1984583 C0.0285357827,3.3325268 3.1449614,0.181039015 7.01089291,0.15941333 C7.03262807,0.159291745 7.05436367,0.159271395 7.07609902,0.15935228 Z" id="Rectangle"></path>
                </g>
            </g>
            <g id="Group" transform="translate(182.705439, 67.082366) rotate(-34.000000) translate(-182.705439, -67.082366) translate(121.705439, 28.082366)">
                <g id="Group-2-Copy" transform="translate(0.641857, 0.200716)">
                    <rect id="Rectangle" fill="#E8E8E8" fill-rule="nonzero" x="0" y="0.131682526" width="113.51157" height="72.9473752" rx="7"></rect>
                    <g id="Logo-BECH-/-light" transform="translate(6.190321, 12.923020)">
                        <g id="logo" transform="translate(0.354982, 1.323661)">
                            <g id="Group" transform="translate(-0.265372, 0.000000)">
                                <path d="M2.18388149,0 C1.12351451,0 0.264020647,0.859575701 0.264020647,1.91986644 L0.264020647,8.00428118 C0.264020647,9.06464815 1.15856613,10 2.21893311,10 L8.31764221,10 C9.37808542,10 10.2376611,9.09746443 10.2376611,8.00428118 L10.2640206,1.91986644 C10.2640206,0.859575701 9.40444495,1.30104261e-17 8.34400174,1.30104261e-17 L2.18388149,0 Z" id="Mask" fill="#FFFFFF"></path>
                                <path d="M0.264020647,6.50304522 L0.264020647,5.54623195 L2.48707105,4.69176631 C2.58816394,4.66175071 2.65210824,4.57558917 2.65918779,4.47647673 L2.65842655,3.84904398 C2.65842655,3.75655936 2.73333273,3.65249511 2.82612808,3.61676588 L3.6344906,3.31158185 L3.6344906,4.25372135 L2.82612808,4.56141937 C2.73706281,4.59432988 2.67258564,4.67797742 2.66634346,4.77625185 L2.66634346,5.39911371 C2.66634346,5.49152215 2.59227465,5.59352949 2.50069728,5.6301729 L0.264020647,6.50304522 Z" id="Mask" fill="#CD0143"></path>
                                <path d="M0.298437914,8.34197885 C0.28568389,8.14758138 0.276839976,7.98165151 0.271906172,7.84418924 C0.266972367,7.70672696 0.264343859,7.5530201 0.264020647,7.38306863 L2.48707105,6.53482337 C2.58816394,6.50480776 2.65210824,6.41864622 2.65918779,6.31953379 L2.65842655,5.69210103 C2.65842655,5.59961641 2.73333273,5.49555216 2.82612808,5.45982293 L3.6344906,5.15463891 L3.6344906,6.0967784 L2.82612808,6.40447642 C2.73706281,6.43738693 2.67258564,6.52103447 2.66634346,6.61930891 L2.66634346,7.24217076 C2.66634346,7.3345792 2.59227465,7.43658654 2.50069728,7.47322996 L0.298437914,8.34197885 Z" id="Mask" fill="#CD0143"></path>
                                <path d="M9.34571383,2.50221188 L6.33121823,0.00384684359 C5.92372035,0.458956518 4.88865345,1.18190626 3.63138361,1.36382824 L3.63138361,2.37978784 L2.64821412,2.80983372 L2.64821412,3.68500947 L0.264020647,4.60082543 L0.264020647,1.91863695 C0.264020647,0.859025224 1.12216951,0 2.18087025,0 L8.34701883,0 C9.40579567,0 10.2640206,0.859025224 10.2640206,1.91863695 L10.2640206,3.26978411 L9.34571383,2.50221188 Z" id="Path" fill="#CD0143"></path>
                                <mask id="mask-10" fill="white">
                                    <use xlink:href="#path-9"></use>
                                </mask>
                                <use id="Mask" fill="#EC8600" xlink:href="#path-9"></use>
                                <path d="M2.66726628,9.94423018 L7.32867454,8.12747868 L9.77351326,9.30042905 C9.42226491,9.69542133 8.91035263,9.94423018 8.34033137,9.94423018 L2.66726628,9.94423018 Z" id="Combined-Shape" fill="#00488C"></path>
                                <mask id="mask-12" fill="white">
                                    <use xlink:href="#path-11"></use>
                                </mask>
                                <use id="Mask" fill="#002E56" xlink:href="#path-11"></use>
                            </g>
                        </g>
                        <g id="iso" transform="translate(0.354982, 0.532474)">
                            <g transform="translate(0.000000, 0.436204)">
                                <polygon id="Fill-23" fill="#C1163C" points="0 9.97757692 10.8554286 9.97757692 10.8554286 -0.000115384615 0 -0.000115384615"></polygon>
                                <path d="M10.8557429,5.25846154 L6.25302857,1.69884615 C6.25302857,1.69884615 6.25224286,1.69923077 6.25185,1.69961538 L6.25185,8.31576923 L10.8557429,8.31653846 L10.8557429,5.25846154 Z" id="Fill-25" fill="#F3990A"></path>
                                <path d="M6.25310714,2.64992308 L6.25310714,1.698 C5.93253571,2.028 5.126,2.59107692 4.13403571,2.72261538 L4.13403571,3.45915385 L3.35735714,3.76992308 L3.35735714,4.40376923 L0,5.59569231 L0,8.31646154 L7.04903571,8.31646154 L7.04903571,2.34415385 L6.25310714,2.64992308 Z" id="Fill-26" fill="#FEFEFE"></path>
                                <path d="M4.13552857,4.13296154 L3.49713571,4.35488462 C3.42406429,4.38103846 3.36513571,4.45603846 3.36513571,4.52257692 L3.36592143,4.97680769 C3.36002857,5.04911538 3.30935,5.11180769 3.23038571,5.13334615 L-7.85714287e-05,6.27719231 L-7.85714287e-05,6.97219231 L3.2406,5.81334615 C3.31327857,5.78719231 3.37220714,5.71219231 3.37220714,5.64526923 L3.37220714,5.1945 C3.37692143,5.12334615 3.42720714,5.06296154 3.49713571,5.03911538 L4.13552857,4.81603846 L4.13552857,4.13296154 Z" id="Fill-27" fill="#C0163C"></path>
                                <path d="M4.13552857,5.46842308 L3.49713571,5.69034615 C3.42406429,5.71611538 3.36513571,5.79111538 3.36513571,5.85842308 L3.36592143,6.31265385 C3.36002857,6.38419231 3.30935,6.44726923 3.23038571,6.46919231 L-7.85714287e-05,7.63188462 L-7.85714287e-05,8.31496154 L3.2406,7.14880769 C3.31327857,7.12303846 3.37220714,7.04765385 3.37220714,6.98073077 L3.37220714,6.53034615 C3.37692143,6.45919231 3.42720714,6.39842308 3.49713571,6.37457692 L4.13552857,6.1515 L4.13552857,5.46842308 Z" id="Fill-28" fill="#C0163C"></path>
                                <polygon id="Fill-29" fill="#0A4A8F" points="0 10.1614231 10.8554286 10.1614231 10.8554286 8.31526923 0 8.31526923"></polygon>
                                <path d="M3.47063284,8.62965385 L3.23976697,8.6471211 L3.14464168,8.99765702 C3.06715198,8.975029 3.03081198,8.96867727 2.97576758,8.96867727 C2.70909612,8.96867727 2.47876467,9.18622391 2.47074849,9.44346885 C2.46754202,9.55899088 2.53113702,9.62965385 2.64550113,9.62965385 C2.71230259,9.62965385 2.81063435,9.60027711 2.88972729,9.55660899 C2.93461787,9.53159906 2.97149228,9.50500121 3.00088493,9.47602145 C3.0131764,9.46490593 3.02867434,9.44823265 3.04844757,9.42361971 L3.00248816,9.60702582 L3.21785609,9.60702582 L3.47063284,8.62965385 Z M3.1136458,9.11873682 L3.09333816,9.19535452 C3.07944345,9.26045972 3.00195375,9.34819295 2.9084317,9.41091625 C2.84964641,9.44902661 2.78765465,9.47602145 2.75558994,9.47602145 C2.72299083,9.47602145 2.70482083,9.45180549 2.70642406,9.4121072 C2.7080273,9.347002 2.75398671,9.24577135 2.80261818,9.18741486 C2.85605935,9.12627949 2.9356867,9.08539025 2.99874728,9.08539025 C3.04096581,9.08539025 3.07784022,9.09571181 3.1136458,9.11873682 Z" id="Fill-30" fill="#FEFEFE"></path>
                                <path d="M4.25325618,9.15802993 C4.25676867,9.02793874 4.14647659,8.96046154 3.92799993,8.96046154 C3.54022142,8.96046154 3.26484248,9.23280196 3.25360252,9.62489923 C3.24728005,9.84921534 3.35405964,9.96046154 3.57675128,9.96046154 C3.6772084,9.96046154 3.79522794,9.93675333 3.89428006,9.89359224 C3.93010743,9.87961047 3.97295976,9.85711807 4.02634956,9.82611503 C4.0923843,9.78781716 4.12259169,9.77201169 4.19494891,9.72520318 L4.08325184,9.58052233 C3.92027246,9.67839467 3.87952762,9.70027917 3.81208788,9.72277157 C3.76080558,9.73918494 3.70039081,9.74891139 3.66807593,9.74891139 C3.62803359,9.74891139 3.57885877,9.7288506 3.55637886,9.70027917 C3.54232891,9.68204209 3.53530394,9.6619813 3.52617148,9.61517278 L4.03899451,9.39754361 C4.18511395,9.33432172 4.25044619,9.263805 4.25325618,9.15802993 M3.9638273,9.21274117 C3.9631248,9.23097826 3.95961231,9.24313631 3.94626486,9.26927613 L3.54935389,9.44860744 C3.60274368,9.31426093 3.63505856,9.25954968 3.69617582,9.20240683 C3.75026812,9.151343 3.80787289,9.12459528 3.86547767,9.12459528 C3.93151242,9.12459528 3.96523229,9.15559832 3.9638273,9.21274117" id="Fill-31" fill="#FEFEFE"></path>
                                <path d="M4.38165357,8.99530769 C4.31958214,8.97184615 4.26104643,8.96030769 4.19268929,8.96030769 C4.03711786,8.96030769 3.945975,9.02492308 3.94283214,9.13492308 C3.94204643,9.17107692 3.954225,9.20223077 3.97740357,9.23069231 C3.99193929,9.24723077 4.01001071,9.26530769 4.03043929,9.28376923 C4.03751071,9.28838462 4.06343929,9.30915385 4.10743929,9.34646154 C4.141225,9.37338462 4.15340357,9.39261538 4.15301071,9.41569231 C4.152225,9.44684615 4.12079643,9.46761538 4.06933214,9.46761538 C4.028475,9.46761538 3.98683214,9.45838462 3.91729643,9.43530769 L3.86818929,9.55992308 C3.92240357,9.57376923 3.943225,9.578 3.99665357,9.58569231 C4.03279643,9.59069231 4.07483214,9.59338462 4.10154643,9.59338462 C4.23668929,9.59338462 4.328225,9.52261538 4.33136786,9.41338462 C4.33254643,9.35030769 4.30426071,9.30992308 4.20918929,9.23569231 C4.13533214,9.17915385 4.12708214,9.17107692 4.11490357,9.15223077 C4.10940357,9.14415385 4.10704643,9.13492308 4.10704643,9.12607692 C4.10783214,9.09838462 4.13926071,9.08107692 4.193475,9.08107692 C4.23865357,9.08107692 4.26733214,9.08915385 4.33136786,9.11992308 L4.38165357,8.99530769 Z" id="Fill-32" fill="#FEFEFE"></path>
                                <path d="M5.46498334,8.62965385 L5.23330512,8.6471211 L5.13881884,8.99765702 C5.06194865,8.975029 5.02511501,8.96867727 4.97013147,8.96867727 C4.7037549,8.96867727 4.47367814,9.18622391 4.465137,9.44346885 C4.46140026,9.55899088 4.52599257,9.62965385 4.6396964,9.62965385 C4.70695782,9.62965385 4.80464703,9.60027711 4.88418633,9.55660899 C4.92902727,9.53159906 4.96586091,9.50500121 4.99575487,9.47602145 C5.00696511,9.46490593 5.02297973,9.44823265 5.0427311,9.42361971 L4.99628869,9.60702582 L5.21088465,9.60702582 L5.46498334,8.62965385 Z M5.10785724,9.11873682 L5.08810587,9.19535452 C5.07262506,9.26045972 4.99575487,9.34819295 4.90233623,9.41091625 C4.84361595,9.44902661 4.78222655,9.47602145 4.74966349,9.47602145 C4.71763424,9.47602145 4.69948433,9.45180549 4.70108579,9.4121072 C4.70322108,9.347002 4.74806202,9.24577135 4.79717354,9.18741486 C4.85108944,9.12627949 4.93009491,9.08539025 4.99255195,9.08539025 C5.03472379,9.08539025 5.07262506,9.09571181 5.10785724,9.11873682 Z" id="Fill-33" fill="#FEFEFE"></path>
                                <path d="M6.2480281,9.15802993 C6.25154059,9.02793874 6.14054596,8.96046154 5.92277169,8.96046154 C5.533588,8.96046154 5.25820892,9.23280196 5.24837395,9.62489923 C5.24205147,9.84921534 5.34883112,9.96046154 5.57152287,9.96046154 C5.67198003,9.96046154 5.78999964,9.93675333 5.88834931,9.89359224 C5.92487919,9.87961047 5.96843404,9.85711807 6.02112136,9.82611503 C6.08645365,9.78781716 6.11806604,9.77201169 6.1890183,9.72520318 L6.07802367,9.58052233 C5.91504422,9.67839467 5.87429936,9.70027917 5.80615708,9.72277157 C5.75557725,9.73918494 5.69516246,9.74891139 5.66214507,9.74891139 C5.6228052,9.74891139 5.57363036,9.7288506 5.55115044,9.70027917 C5.53639799,9.68204209 5.52937301,9.6619813 5.52094304,9.61517278 L6.03306382,9.39754361 C6.17988583,9.33432172 6.24451562,9.263805 6.2480281,9.15802993 M5.95789658,9.21274117 C5.95719408,9.23097826 5.95438409,9.24313631 5.94173913,9.26927613 L5.54412546,9.44860744 C5.59751528,9.31426093 5.62912768,9.25954968 5.69094747,9.20240683 C5.74503979,9.151343 5.8026446,9.12459528 5.8602494,9.12459528 C5.92628418,9.12459528 5.95930157,9.15559832 5.95789658,9.21274117" id="Fill-34" fill="#FEFEFE"></path>
                                <polygon id="Fill-35" fill="#FEFEFE" points="6.74225357 8.95380769 6.66211071 8.95380769 6.32346786 9.06726923 6.36118214 9.18803846 6.54071786 9.12380769 6.45193214 9.5765 6.61889643 9.5765"></polygon>
                                <path d="M7.86986001,8.89536082 C7.87386387,8.78225254 7.74516826,8.71342308 7.52895962,8.71342308 C7.25784084,8.71342308 7.06565539,8.80417275 7.06107954,8.9348172 C7.0593636,8.99356337 7.09825828,9.059324 7.16174812,9.10798686 L7.24754519,9.17243228 L7.07366311,9.25485227 C6.96212691,9.30702238 6.87289795,9.41267779 6.87003805,9.49772821 C6.86603418,9.63889436 6.99987763,9.71342308 7.25440896,9.71342308 C7.58100984,9.71342308 7.80865809,9.60776766 7.81323394,9.45257257 C7.81552186,9.38505832 7.76289965,9.30877599 7.67538663,9.25485227 L7.54268715,9.17243228 L7.67367069,9.10798686 C7.77147936,9.059324 7.81037404,9.0286357 7.84354891,8.97734241 C7.85956436,8.95103816 7.86928803,8.92166508 7.86986001,8.89536082 M7.61361273,8.93043316 C7.61246877,8.96857433 7.58501371,9.00408507 7.54211517,9.02425166 L7.4237152,9.079929 L7.35050169,9.01548358 C7.32876643,8.99487858 7.3150389,8.96725911 7.31618286,8.94095486 C7.3178988,8.88352391 7.39282825,8.8409987 7.488349,8.8409987 C7.56385043,8.8409987 7.61532868,8.87782466 7.61361273,8.93043316 M7.55527072,9.43635162 C7.55241082,9.51657959 7.43801471,9.58760107 7.31160701,9.58760107 C7.19778289,9.58760107 7.1211375,9.54069182 7.1239974,9.47142395 C7.12571334,9.41574662 7.18462734,9.34867078 7.26356065,9.3100912 L7.3796727,9.25485227 L7.50093257,9.33771067 C7.53696734,9.36313811 7.55641468,9.39689524 7.55527072,9.43635162" id="Fill-36" fill="#FEFEFE"></path>
                                <path d="M8.16981786,8.90553846 L7.74671071,8.90553846 L7.66185357,9.34284615 L7.75024643,9.34284615 C7.79071071,9.34284615 7.847675,9.35669231 7.87674643,9.37361538 C7.90463929,9.39053846 7.92035357,9.42515385 7.91956786,9.469 C7.91603214,9.57861538 7.82881786,9.66823077 7.72549643,9.66823077 C7.68463929,9.66823077 7.64535357,9.659 7.57738929,9.63323077 L7.52710357,9.75438462 C7.60331786,9.78130769 7.65085357,9.79053846 7.71135357,9.79053846 C7.91524643,9.79053846 8.09006786,9.63476923 8.09478214,9.44976923 C8.09674643,9.35976923 8.05785357,9.28861538 7.98713929,9.25823077 C7.94903214,9.24130769 7.92231786,9.23592308 7.85121071,9.22976923 L7.88931786,9.03515385 L8.14428214,9.03515385 L8.16981786,8.90553846 Z" id="Fill-37" fill="#FEFEFE"></path>
                                <path d="M8.77481786,8.90553846 L8.35210357,8.90553846 L8.26685357,9.34284615 L8.35524643,9.34284615 C8.39571071,9.34284615 8.45306786,9.35669231 8.48213929,9.37361538 C8.51003214,9.39053846 8.52496071,9.42515385 8.52456786,9.469 C8.521425,9.57861538 8.43381786,9.66823077 8.33049643,9.66823077 C8.28963929,9.66823077 8.25074643,9.659 8.18278214,9.63323077 L8.13210357,9.75438462 C8.20831786,9.78130769 8.25546071,9.79053846 8.31635357,9.79053846 C8.52024643,9.79053846 8.69546071,9.63476923 8.700175,9.44976923 C8.70174643,9.35976923 8.66285357,9.28861538 8.59253214,9.25823077 C8.55403214,9.24130769 8.52731786,9.23592308 8.45581786,9.22976923 L8.49431786,9.03515385 L8.749675,9.03515385 L8.77481786,8.90553846 Z" id="Fill-38" fill="#FEFEFE"></path>
                            </g>
                        </g>
                    </g>
                </g>
                <rect id="Rectangle-Copy-4" fill="#858A94" fill-rule="nonzero" x="21.5674369" y="16.8840564" width="31.9908437" height="5.33180728"></rect>
                <rect id="Rectangle-Copy-5" fill="#858A94" fill-rule="nonzero" x="7.36499654" y="42.7973827" width="31.9908437" height="5.33180728"></rect>
                <rect id="Rectangle-Copy-6" fill="#858A94" fill-rule="nonzero" x="7.36499654" y="52.8146338" width="20.4385946" height="5.33180728"></rect>
                <g id="Group-3" transform="translate(68.229939, 4.749672)">
                    <path d="M21.599373,65.3623765 L20.9588777,66.0474175 C19.9638226,67.1171167 20.4689793,68.6874911 21.5338628,69.6777304 C21.7355225,69.8649429 32.119042,68.0174544 38.5906674,66.976198 C45.0622928,65.9349415 49.8643946,65.8766712 48.8471493,59.4540367 C48.7641323,58.9298884 48.4641544,57.035902 47.9472154,53.7720776 L41.8598507,15.3194719 L8.79247797,50.6947947 C8.7900701,50.6972025 8.78826419,50.6990084 8.78706025,50.7008144 C7.52954656,52.0522352 7.60599665,54.1669531 8.95741754,55.4238648 C9.91755843,56.3177891 11.2623576,56.5411197 12.4139248,56.1143235 L5.13491304,63.9013972 L5.13069925,63.906213 C4.21630802,64.8886267 4.27168919,66.4266581 5.25470491,67.3410493 C6.24073048,68.2584504 7.7829756,68.2042731 8.70218259,67.2206554 L15.1378354,60.3359336 C14.7929071,61.0390336 14.9301561,61.9130929 15.5333292,62.4741282 C16.2731494,63.161577 17.4295322,63.1212451 18.118787,62.3838328 L18.8441599,61.6084965 C18.4950177,62.63365 18.7526606,63.8141117 19.5972234,64.5996815 C20.1618705,65.1258026 20.8842335,65.3774257 21.599373,65.3623765 Z" id="Fill-43" fill="#D13C3C" transform="translate(26.731504, 42.505206) rotate(9.000000) translate(-26.731504, -42.505206) "></path>
                    <path d="M39.5153021,13.3754791 C39.986042,13.5067083 40.4333051,13.7493019 40.8161575,14.1050657 C42.0857106,15.2855274 42.1573449,17.2726277 40.9762814,18.5421808 C40.9744754,18.5439867 40.9726695,18.5457926 40.9708636,18.5475985 L11.5538322,50.017345 C10.3661469,51.288102 8.37423079,51.3573285 7.10046393,50.1726531 C6.32031184,49.4466782 5.99284058,48.4167089 6.13008956,47.436101 C5.61299801,47.3626608 5.1127616,47.1363204 4.70161662,46.7534679 C3.63673309,45.7632286 3.57653617,44.0969778 4.56677552,43.0320943 L4.57159127,43.0278805 L6.8000813,40.6434804 C6.34077879,40.5489713 5.90073929,40.3316604 5.53233414,39.9891399 C4.46805257,38.9982986 4.40785565,37.3326498 5.398095,36.2677662 C5.39990091,36.2659603 5.40110485,36.2647564 5.40230879,36.2629505 L8.86603963,32.55783 C8.22494242,32.928041 7.39302097,32.8558047 6.82295613,32.3254699 C6.12647775,31.677751 6.08734975,30.5887887 6.73506862,29.8923103 C6.73567059,29.8917083 6.73687453,29.8905044 6.7374765,29.8893005 L11.6790418,24.6034088 C10.910929,24.7864074 10.0687741,24.5937773 9.44754189,24.0158869 C8.46452617,23.1014956 8.409145,21.5634643 9.32353624,20.5810505 C9.32474017,20.5792446 9.32594411,20.5780407 9.32714805,20.5768367 L25.146297,3.65307431 C26.0661059,2.66945662 27.6083511,2.61588136 28.5943766,3.53328244 C29.5773923,4.4470717 29.6327735,5.98510304 28.7183823,6.96811876 C28.7171783,6.9693227 28.7159744,6.97112861 28.7141685,6.97233255 L26.9419711,8.86853557 C27.4301682,8.80954258 27.9400361,8.95822898 28.3283062,9.31941051 C28.8971671,9.84854145 29.0277945,10.6732393 28.7027311,11.3372113 L31.2117388,8.65303059 C32.2079978,7.58694311 33.8784624,7.5285521 34.9469577,8.52240327 C35.3147609,8.86492375 35.5627722,9.28750614 35.6885838,9.73898305 L37.1790596,8.14436661 C38.1753186,7.0788811 39.8457832,7.02049009 40.9142785,8.01434126 C41.9785601,9.00458061 42.038757,10.6708314 41.0485177,11.7357149 L41.0443039,11.7399287 L39.5153021,13.3754791 Z M37.1128429,7.26428762 C36.2833294,7.41056614 35.4923418,6.85856037 35.3466653,6.0308527 C35.2009887,5.203747 35.7548004,4.4139634 36.584314,4.26768488 C37.4138276,4.12140636 38.2048151,4.6740141 38.3504916,5.50111979 C38.4967702,6.32882746 37.9423565,7.1180091 37.1128429,7.26428762 Z" id="Fill-47" fill="#3E50B4" transform="translate(22.839523, 26.948263) rotate(9.000000) translate(-22.839523, -26.948263) "></path>
                    <g id="Group-52" transform="translate(30.879649, 60.993751) rotate(9.000000) translate(-30.879649, -60.993751) translate(21.879649, 56.993751)">
                        <mask id="mask-14" fill="white">
                            <use xlink:href="#path-13"></use>
                        </mask>
                        <g id="Clip-51"></g>
                        <polygon id="Fill-50" fill="#FFFFFF" mask="url(#mask-14)" points="-5.41543543 -0.974527958 20.8707542 -5.60969089 23.4092583 8.78640282 -2.87693126 13.4215658"></polygon>
                    </g>
                    <path d="M12.9342244,35.7856623 C13.0847167,34.9176227 12.4622805,34.071856 20.4570336,27.8854184 C19.5823724,23.0401682 19.2928252,20.1946597 19.5865861,19.348291 C19.8803471,18.5025243 21.9294503,20.0224965 25.7350997,23.9094117 C33.7009583,19.8394979 38.2211451,18.0540572 39.2962621,18.5542936 C40.3713791,19.05453 38.2163293,23.1280557 32.8305108,30.7736666 C37.2802672,41.3418381 39.2366671,47.1881631 38.6985067,48.3126416 C38.1609482,49.4371201 34.2276813,46.388748 26.8987062,39.1675253 C23.0599485,45.0668236 20.743571,48.0869032 19.9501756,48.22656 C19.1573821,48.3668188 18.9725776,44.5184297 19.3963639,36.6813925 C14.9875414,36.6627314 12.8336955,36.3647567 12.9342244,35.7856623" id="Fill-53" fill="#FFFFFF" transform="translate(26.247750, 33.506044) rotate(9.000000) translate(-26.247750, -33.506044) "></path>
                </g>
            </g>
        </g>
    </g>
</svg>