<svg height="28" viewBox="0 0 28 28" width="28" xmlns="http://www.w3.org/2000/svg"><path d="m25.175 12.506c.143.142.214.32.214.535a.63.63 0 0 1 -.214.504.917.917 0 0 1 -.199.199c-.071.05-.178.076-.32.076-.062 0-.148-.005-.26-.015a.406.406 0 0 1 -.26-.107l-9.903-8.742-10.056 8.742c-.123.122-.29.163-.505.122a1.001 1.001 0 0 1 -.534-.275c-.123-.122-.163-.29-.123-.504.041-.214.133-.393.275-.535l10.943-9.506zm-3.515 1.314a.76.76 0 0 1 .55.245.76.76 0 0 1 .245.55v9.26c0 .184-.082.358-.245.52a.76.76 0 0 1 -.55.245h-14.977a.76.76 0 0 1 -.55-.244c-.163-.163-.245-.337-.245-.52v-9.261a.76.76 0 0 1 .245-.55.76.76 0 0 1 .55-.245c.183 0 .357.082.52.245a.76.76 0 0 1 .244.55v8.588h13.449v-8.588a.76.76 0 0 1 .244-.55c.163-.163.337-.245.52-.245z" fill="#858a94" fill-rule="evenodd" transform="translate(.167 -.25)"/></svg>