<?xml version="1.0" encoding="UTF-8"?>
<svg width="40px" height="19px" viewBox="0 0 40 19" version="1.1" xmlns="http://www.w3.org/2000/svg" xmlns:xlink="http://www.w3.org/1999/xlink">
    <title>Group</title>
    <g id="Flujo-Definitivo-2021" stroke="none" stroke-width="1" fill="none" fill-rule="evenodd">
        <g id="Artboard" transform="translate(0.000000, -2.000000)" fill="#FFFFFF" fill-rule="nonzero">
            <g id="Group" transform="translate(-0.002871, 2.018519)">
                <path d="M14.3271782,11.0557658 L16.2792563,4.77484718e-12 L19.404372,4.77484718e-12 L17.4522941,11.0557658 L14.3271782,11.0557658 Z M28.1797687,0.466217362 L27.7230899,2.85688646 L27.4365464,2.73605842 C26.6969824,2.43840621 25.9006397,2.29430931 25.0994254,2.31316028 C23.8726608,2.31316028 23.3085282,2.76195014 23.3085282,3.26252346 C23.3085282,3.76309678 24.0069781,4.11695033 25.0994254,4.62615421 C26.9082317,5.42016704 27.7230899,6.37816081 27.7230899,7.62959409 C27.6962265,9.92532689 25.5650587,11.4098246 22.2787622,11.4098246 C21.0938988,11.4120823 19.9178567,11.2134275 18.8044214,10.8229065 L19.2431913,8.34593177 L19.6371886,8.51854325 C20.5593474,8.92898969 21.5679582,9.12696065 22.5832146,9.09679169 C23.4786633,9.09679169 24.4547024,8.7601993 24.4547024,8.01796994 C24.4636569,7.51739663 24.024887,7.18943479 22.8339403,6.6543392 C21.6429937,6.11924358 20.0938675,5.23892499 20.0938675,3.65089931 C20.1117765,1.50188628 22.2877166,0.000166346078 25.3770145,0.000166346078 C26.3325444,-0.00586089417 27.2815719,0.151946447 28.1797687,0.466217362 Z M36.4537142,0.012465815 L39.0057427,11.0509705 L36.1044891,11.0509705 C36.1044891,11.0509705 35.8179457,9.78227608 35.7194463,9.40253071 L31.7167908,9.40253071 L31.0452044,11.0337092 L27.7589078,11.0337092 L32.4062863,0.93593727 C32.6665629,0.305181576 33.3375941,-0.0750551719 34.0360028,0.012465815 L36.4537142,0.012465815 Z M32.6122395,7.14132024 L35.200086,7.14132024 L34.4837272,3.94800773 L34.2688194,2.99864454 C34.1076387,3.41291212 33.8569132,4.05157462 33.8569132,4.05157462 L32.6122395,7.14132024 Z M3.63729084,1.56331716 C2.58493227,0.998781269 1.36993254,0.547557936 0,0.24136005 L0,0.0083345425 L5.29848254,0.0083345425 C5.97832388,-0.0636524666 6.61186139,0.337466275 6.78430038,0.94906715 L7.92436188,6.02384488 C7.91539257,6.00258308 7.90632162,5.98134998 7.89714914,5.96014603 C7.90339983,5.97570227 7.9096055,5.99128023 7.91576599,6.00687976 L8.23812749,7.56901373 L11.3005619,0 L14.6495398,0 L9.68875425,11.0212434 L6.38454881,11.0212434 L3.63729084,1.56331716 Z" id="Combined-Shape-Copy"></path>
                <path d="M20.9057436,14.8002189 L22.4237148,14.8002189 C23.0970746,14.8002189 23.6196018,14.9802329 23.991312,15.3402664 C24.3630221,15.7002998 24.5488744,16.2053121 24.5488744,16.8553184 C24.5488744,17.5053247 24.3630221,18.01131 23.991312,18.3732895 C23.6196018,18.7352691 23.0970746,18.9162561 22.4237148,18.9162561 L20.9057436,18.9162561 L20.9057436,14.8002189 Z M22.377008,18.3032293 C23.3228256,18.3032293 23.7957273,17.8205972 23.7957273,16.8553184 C23.7957273,15.8939318 23.3228256,15.4132457 22.377008,15.4132457 L21.6588909,15.4132457 L21.6588909,18.3032293 L22.377008,18.3032293 Z M27.7482907,17.6201423 L25.8041199,17.6201423 C25.8274734,17.8848155 25.9072633,18.0813714 26.0434922,18.2098157 C26.1797211,18.3382601 26.3743309,18.4024813 26.6273273,18.4024813 C26.9425998,18.4024813 27.2306222,18.3012842 27.4914032,18.0988871 L27.7015838,18.6009852 C27.5692472,18.7099683 27.4028559,18.7975427 27.2024049,18.863711 C27.0019538,18.9298793 26.8005328,18.962963 26.5981356,18.962963 C26.1310652,18.962963 25.7622797,18.8306283 25.4917681,18.5659551 C25.2212565,18.3012819 25.0860027,17.9393078 25.0860027,17.4800219 C25.0860027,17.1881029 25.1443856,16.9292719 25.2611533,16.7035213 C25.3779209,16.4777705 25.5423661,16.3026218 25.7544939,16.1780697 C25.9666217,16.0535176 26.2069647,15.9912424 26.4755301,15.9912424 C26.8686477,15.9912424 27.1790503,16.1177388 27.4067471,16.3707353 C27.6344439,16.6237318 27.7482907,16.9720832 27.7482907,17.4158 L27.7482907,17.6201423 Z M26.4930453,16.5050174 C26.2984326,16.5050174 26.1417718,16.5672925 26.023058,16.6918446 C25.9043443,16.8163966 25.8313656,16.9954376 25.8041199,17.2289728 L27.1235871,17.2289728 C27.1158026,16.9915454 27.0574197,16.8115314 26.9484366,16.6889254 C26.8394535,16.5663194 26.6876579,16.5050174 26.4930453,16.5050174 Z M26.7090642,15.6876482 L26.2419961,15.6876482 L26.8199928,14.4966247 L27.5614634,14.4966247 L26.7090642,15.6876482 Z M29.984379,15.9912424 C30.2334832,15.9912424 30.4533921,16.0515715 30.6441126,16.1722313 C30.834833,16.2928912 30.9837094,16.4641477 31.0907464,16.6860062 C31.1977833,16.9078647 31.2513011,17.1666956 31.2513011,17.4625069 C31.2513011,17.7583181 31.1977833,18.0200682 31.0907464,18.247765 C30.9837094,18.4754618 30.8338599,18.6515836 30.6411934,18.7761358 C30.4485269,18.9006878 30.2295909,18.962963 29.984379,18.962963 C29.7780895,18.962963 29.5941833,18.9182027 29.4326548,18.8286809 C29.2711263,18.739159 29.1475491,18.6146089 29.0619196,18.4550264 L29.0619196,18.9162561 L28.3438024,18.9162561 L28.3438024,14.8002189 L29.0735962,14.8002189 L29.0735962,16.4758256 C29.1592258,16.3201355 29.2818299,16.2004505 29.4414124,16.116767 C29.6009947,16.0330835 29.7819818,15.9912424 29.984379,15.9912424 Z M29.7917134,18.396643 C30.0213563,18.396643 30.2003973,18.3149068 30.3288417,18.1514322 C30.457286,17.9879576 30.5215072,17.7583181 30.5215072,17.4625069 C30.5215072,17.1705879 30.4582591,16.9467866 30.3317608,16.7910965 C30.2052626,16.6354064 30.0252485,16.5575625 29.7917134,16.5575625 C29.5581781,16.5575625 29.3781641,16.6363794 29.2516659,16.7940157 C29.1251677,16.9516519 29.0619196,17.1783723 29.0619196,17.4741836 C29.0619196,17.7699948 29.1251677,17.9976882 29.2516659,18.1572706 C29.3781641,18.3168529 29.5581781,18.396643 29.7917134,18.396643 Z M31.8526511,18.9162561 L31.8526511,16.0613027 L32.5824449,16.0613027 L32.5824449,18.9162561 L31.8526511,18.9162561 Z M31.8117827,14.7359971 L32.6174751,14.7359971 L32.6174751,15.4541142 L31.8117827,15.4541142 L31.8117827,14.7359971 Z M34.7951799,18.414158 C34.8808094,18.414158 34.97033,18.4083197 35.063744,18.396643 L35.0287139,18.9396096 C34.9119463,18.9512863 34.8049109,18.9571246 34.7076047,18.9571246 C34.3067025,18.9571246 34.0108957,18.8646849 33.8201754,18.679803 C33.6294549,18.4949209 33.5340961,18.2195482 33.5340961,17.8536764 L33.5340961,16.6101076 L32.9852912,16.6101076 L32.9852912,16.0613027 L33.5340961,16.0613027 L33.5340961,15.2089035 L34.26389,15.2089035 L34.26389,16.0613027 L35.0170372,16.0613027 L35.0170372,16.6101076 L34.26389,16.6101076 L34.26389,17.8419996 C34.26389,18.2234405 34.4409848,18.414158 34.7951799,18.414158 Z M36.7918958,18.962963 C36.4999768,18.962963 36.244065,18.9026339 36.0241527,18.7819741 C35.8042404,18.6613143 35.6339569,18.4881116 35.513297,18.2623608 C35.3926372,18.0366102 35.3323081,17.7738871 35.3323081,17.4741836 C35.3323081,17.17448 35.3926372,16.91273 35.513297,16.6889254 C35.6339569,16.4651208 35.8042404,16.2928912 36.0241527,16.1722313 C36.244065,16.0515715 36.4999768,15.9912424 36.7918958,15.9912424 C37.0838148,15.9912424 37.3397266,16.0515715 37.5596389,16.1722313 C37.7795512,16.2928912 37.9488617,16.4651208 38.0675755,16.6889254 C38.1862891,16.91273 38.2456451,17.17448 38.2456451,17.4741836 C38.2456451,17.7738871 38.1862891,18.0366102 38.0675755,18.2623608 C37.9488617,18.4881116 37.7795512,18.6613143 37.5596389,18.7819741 C37.3397266,18.9026339 37.0838148,18.962963 36.7918958,18.962963 Z M36.7860575,18.396643 C37.0234849,18.396643 37.2044719,18.3187991 37.3290241,18.1631089 C37.4535762,18.0074188 37.5158513,17.7777793 37.5158513,17.4741836 C37.5158513,17.17448 37.4535762,16.9458136 37.3290241,16.7881774 C37.2044719,16.6305411 37.025431,16.5517242 36.7918958,16.5517242 C36.5583607,16.5517242 36.3783466,16.6305411 36.2518483,16.7881774 C36.1253501,16.9458136 36.062102,17.17448 36.062102,17.4741836 C36.062102,17.7777793 36.1243771,18.0074188 36.2489292,18.1631089 C36.3734813,18.3187991 36.5525222,18.396643 36.7860575,18.396643 Z" id="Débito-Copy"></path>
            </g>
        </g>
    </g>
</svg>