<?xml version="1.0" encoding="utf-8"?>
<!-- Generator: Adobe Illustrator 21.1.0, SVG Export Plug-In . SVG Version: 6.00 Build 0)  -->
<svg version="1.1" id="Capa_1" xmlns="http://www.w3.org/2000/svg" xmlns:xlink="http://www.w3.org/1999/xlink" x="0px" y="0px"
	 viewBox="0 0 127 25" style="enable-background:new 0 0 127 25;" xml:space="preserve">
<style type="text/css">
	.st0{fill:#FFFFFF;}
	.st1{fill:#B80034;}
	.st2{fill:#D5802B;}
	.st3{fill:#D1731E;}
	.st4{fill:#2D4D93;}
	.st5{fill:#32579C;}
</style>
<g>
	<rect y="0.1" class="st0" width="24.8" height="24.8"/>
	<path class="st0" d="M46.9,14.8L46,19.6c-1.1,0.5-2.7,0.9-4.2,0.9c-2.6,0-3.7-1.1-3.4-2.9c0.3-1.8,2.1-2.8,4.2-2.8
		c0.8,0,1.5,0.1,2.1,0.3l0.1-0.5C45,13.6,44.4,13,43,13c-1.1,0-2,0.4-2.6,0.8c-0.5-0.3-0.7-0.7-0.7-1.4c0.6-0.5,2.1-1.2,3.8-1.2
		C45.8,11.2,47.4,12.2,46.9,14.8 M42.4,18.9c0.7,0,1.3-0.1,1.9-0.3l0.3-1.9c-0.5-0.2-1.2-0.4-1.9-0.4c-1,0-1.8,0.4-2,1.2
		C40.6,18.3,41.1,18.9,42.4,18.9"/>
	<path class="st0" d="M106.5,14.8l-0.9,4.8c-1.1,0.5-2.7,0.9-4.2,0.9c-2.6,0-3.7-1.1-3.4-2.9c0.3-1.8,2.1-2.8,4.2-2.8
		c0.8,0,1.5,0.1,2.1,0.3l0.1-0.5c0.2-1.1-0.4-1.7-1.8-1.7c-1.1,0-2,0.4-2.6,0.8c-0.5-0.3-0.7-0.7-0.7-1.4c0.6-0.5,2.1-1.2,3.8-1.2
		C105.5,11.2,107,12.2,106.5,14.8 M102,18.9c0.7,0,1.3-0.1,1.9-0.3l0.3-1.9c-0.5-0.2-1.2-0.4-1.9-0.4c-1,0-1.8,0.4-2,1.2
		C100.2,18.3,100.7,18.9,102,18.9"/>
	<path class="st0" d="M57,15.9c0.5-2.8,2.9-4.7,5.5-4.7c1.3,0,2.3,0.5,2.8,1c-0.3,0.6-0.8,1.2-1.4,1.5C63.6,13.3,63,13,62.2,13
		c-1.7,0-2.8,1.3-3.1,2.9c-0.3,1.5,0.3,2.8,2,2.8c1,0,1.7-0.4,2.1-0.7c0.5,0.3,0.8,0.8,0.8,1.4c-0.7,0.6-1.9,1.1-3.3,1.1
		C58.1,20.5,56.5,18.8,57,15.9"/>
	<path class="st0" d="M64.7,15.8c0.5-2.7,2.8-4.7,5.6-4.7c2.7,0,4.3,1.9,3.8,4.7c-0.5,2.7-2.8,4.7-5.6,4.7
		C65.8,20.5,64.2,18.6,64.7,15.8 M72,15.8c0.3-1.7-0.4-2.9-2-2.9c-1.6,0-2.8,1.2-3.1,2.9c-0.3,1.7,0.4,2.8,2,2.8
		C70.5,18.7,71.6,17.5,72,15.8"/>
	<path class="st0" d="M82.9,19.4c0.3-0.7,0.7-1.2,1.2-1.4c0.5,0.4,1.2,0.9,2.5,0.9c1.2,0,1.8-0.5,1.9-1.1c0.1-0.6-0.3-0.9-1.9-1.2
		c-1.5-0.2-2.9-0.8-2.6-2.7c0.3-1.6,2-2.7,4.2-2.7c1.6,0,2.6,0.4,3.1,0.9c-0.2,0.6-0.6,1.2-1.1,1.5c-0.5-0.4-1.4-0.7-2.5-0.7
		c-1.1,0-1.7,0.4-1.8,0.9c-0.1,0.6,0.2,0.9,1.7,1.1c1.9,0.3,3.1,0.9,2.8,2.7c-0.3,1.8-2,3-4.4,3C84.4,20.5,83.4,19.8,82.9,19.4"/>
	<path class="st0" d="M116.6,15.8c0.5-2.7,2.8-4.7,5.6-4.7c2.7,0,4.3,1.9,3.8,4.7c-0.5,2.7-2.8,4.7-5.6,4.7
		C117.6,20.5,116.1,18.6,116.6,15.8 M123.8,15.8c0.3-1.7-0.4-2.9-2-2.9c-1.6,0-2.8,1.2-3.1,2.9c-0.3,1.7,0.4,2.8,2,2.8
		C122.3,18.7,123.5,17.5,123.8,15.8"/>
	<path class="st0" d="M114.8,8.9l-0.5,2.6c-0.4-0.2-1-0.3-1.7-0.3c-2.6,0-5.1,1.8-5.7,4.7c-0.5,3,1.1,4.6,4,4.6c1.4,0,3-0.4,4-0.9
		l2.1-11.4L114.8,8.9z M113.1,18.4c-0.6,0.2-1.2,0.3-1.8,0.3c-1.6,0-2.5-1.1-2.2-2.8c0.3-1.7,1.7-2.8,3.2-2.8c0.6,0,1.2,0.1,1.6,0.4
		L113.1,18.4z"/>
	<path class="st0" d="M98.4,11.6h-3.3l0.4-2.3l-2.2,0.6L92,17.5c-0.4,2.1,0.8,3,2.7,3c1.2,0,2.2-0.5,2.8-0.9c0-0.6-0.2-1.2-0.6-1.5
		c-0.3,0.3-0.9,0.6-1.6,0.6c-0.9,0-1.4-0.3-1.2-1.6l0.7-3.8h3.3c0.1-0.3,0.2-0.6,0.3-0.9C98.4,12.1,98.5,11.8,98.4,11.6"/>
	<path class="st0" d="M84.3,8.3h-7.6l0,0h-0.8l0.4,1.3c0,0.1,0,0.1,0,0.2c0,0,0,0.1,0,0.1l-1.9,10.2h7.8c0.2-0.3,0.2-0.7,0.3-1
		c0.1-0.3,0.1-0.6,0-0.9h-5.7l0.6-3.3h4.9c0.1-0.3,0.2-0.6,0.3-0.9c0.1-0.3,0.1-0.6,0.1-0.9h-4.9l0.5-3h5.5c0.1-0.3,0.2-0.6,0.3-0.9
		C84.3,9,84.3,8.6,84.3,8.3"/>
	<path class="st0" d="M53,11.2c-0.8,0-1.6,0.2-2.4,0.4c-0.1,0-0.1,0-0.2,0c-0.1,0-0.1,0-0.2,0v0l-1.5-0.4l-0.3,1.5c0,0,0,0,0,0
		l-1.4,7.7c0.3,0.1,0.7,0.1,1,0.1c0.4,0,0.7,0,1.1-0.1l1.2-6.6c0.5-0.2,1.2-0.5,2-0.5c1.4,0,2,0.6,1.7,2.2l-0.9,4.9
		c0.4,0.1,0.7,0.1,1,0.1c0.3,0,0.7,0,1.1-0.1l1-5.4C56.8,12.8,55.8,11.2,53,11.2"/>
	<path class="st0" d="M38.3,11.5c0.4-2.1-0.8-3.3-3.9-3.3c0,0,0,0-0.1,0l-4.4,0l0.5,1.4c0,0.1,0,0.1,0,0.2c0,0.1,0,0.1,0,0.2
		l-1.9,10.2c0.9,0.2,2.1,0.3,3.7,0.3c3.4,0,5.2-1.4,5.6-3.7c0.3-1.5-0.3-2.4-1.5-2.8C37.3,13.6,38.1,12.8,38.3,11.5 M35.7,16.8
		c-0.2,1.3-1.2,1.9-3.1,1.9c-0.6,0-1.2,0-1.7-0.1l0.7-3.6h2C35.2,15,36,15.6,35.7,16.8 M36.3,11.5c-0.2,1.1-0.9,1.7-2.5,1.7h-1.8
		l0.6-3.3c0.6-0.1,1.1-0.1,1.7-0.1C35.7,9.9,36.4,10.5,36.3,11.5"/>
	<path class="st1" d="M0.7,12.6L9,9V6.3l0,0c2.7-0.4,4.8-1.7,6.7-3.7v0L24,9.3V0.9H0.7V12.6z"/>
	<path class="st0" d="M9,20.3h6.7V2.6v0c-1.9,2.1-4,3.3-6.7,3.7l0,0V9l-8.3,3.6v2.6L9,11.5V9l2.7-1.2v2.6L9,11.5v2.5l2.7-1.2v2.5
		L9,16.6v-2.5l-8.3,3.6v2.5L9,16.6V20.3z"/>
	<polygon class="st2" points="9,14.1 9,14.1 9,11.5 9,11.5 9,11.5 0.7,15.2 0.7,17.7 9,14.1 	"/>
	<polygon class="st2" points="9,16.6 0.7,20.3 0.7,20.3 9,20.3 	"/>
	<polygon class="st2" points="9,11.5 11.7,10.4 11.7,7.8 9,9 9,11.5 9,11.5 	"/>
	<ellipse transform="matrix(0.9322 -0.362 0.362 0.9322 -3.5592 4.0581)" class="st3" cx="9" cy="11.5" rx="0" ry="0"/>
	<polygon class="st2" points="9,14.1 9,16.6 11.7,15.5 11.7,12.9 9,14.1 9,14.1 	"/>
	<ellipse transform="matrix(0.4472 -0.8944 0.8944 0.4472 -7.5871 15.8712)" class="st3" cx="9" cy="14.1" rx="0" ry="0"/>
	<polygon class="st2" points="15.7,20.3 24,20.3 24,9.3 15.7,2.6 	"/>
	<polygon class="st3" points="15.7,20.3 15.7,20.3 15.7,2.6 	"/>
	<rect x="0.7" y="24.1" class="st4" width="23.3" height="0"/>
	<polygon class="st5" points="15.7,20.3 15.7,20.3 9,20.3 0.7,20.3 0.7,24.1 24,24.1 24,20.3 	"/>
	<line class="st4" x1="15.7" y1="20.3" x2="15.7" y2="20.3"/>
</g>
</svg>
