<svg role="img" alt="ícono" aria-label="ícono" focusable="false"  xmlns="http://www.w3.org/2000/svg" width="24" height="24" viewBox="0 0 24 24"><path fill="#1A1F71" fill-rule="evenodd" d="M15.383 8.603c.55-.004 1.097.09 1.614.278l-.263 1.423-.165-.072a3.295 3.295 0 00-1.346-.252c-.706 0-1.031.268-1.031.566 0 .298.402.508 1.031.812 1.042.472 1.511 1.043 1.511 1.788-.015 1.367-1.243 2.251-3.135 2.251a5.836 5.836 0 01-2.001-.35l.252-1.474.227.102a3.781 3.781 0 001.697.345c.516 0 1.078-.2 1.078-.643.005-.298-.248-.493-.934-.812-.685-.318-1.578-.842-1.578-1.788.01-1.28 1.264-2.174 3.043-2.174zm-3.44 0l-1.124 6.583h-1.8l1.124-6.583h1.8zm8.307 0l.12.007h1.393l1.47 6.573h-1.671s-.166-.755-.222-.981h-2.306l-.386.971h-1.893l2.677-6.013a.887.887 0 01.938-.55zm-11.045 0l-2.857 6.563H4.445L2.862 9.534a8.04 8.04 0 00-2.094-.787v-.14h3.051a.79.79 0 01.856.561l.656 3.022a4.602 4.602 0 00-.003-.008l.184.928 1.764-4.507h1.929zm11.3 1.785l-.238.627-.717 1.84h1.49l-.412-1.901z"/></svg>