<svg height="28" viewBox="0 0 28 28" width="28" xmlns="http://www.w3.org/2000/svg"><path d="m10.5 2.28515625c0 .23698035-.0319007.46484266-.0957031.68359375s-.1868481.41926992-.3691406.6015625c-.18229263.10937555-.38281146.21419221-.60156255.31445312-.21875109.10026092-.4466134.15039063-.68359375.15039063s-.46484266-.03190072-.68359375-.09570313c-.21875109-.0638024-.41926992-.18684804-.6015625-.36914062-.10937555-.18229258-.21419221-.38281141-.31445313-.6015625-.10026091-.21875109-.15039062-.4466134-.15039062-.68359375s.03190072-.46484266.09570312-.68359375c.06380241-.21875109.18684805-.41926992.36914063-.6015625.18229258-.10937555.38281141-.21419221.6015625-.31445312.21875109-.10026092.4466134-.15039063.68359375-.15039063s.46484266.03190072.68359375.09570313c.21875109.0638024.41926992.18684804.60156255.36914062.1093755.18229258.2141922.38281141.3144531.6015625s.1503906.4466134.1503906.68359375zm0-6.53515625c0 .23698035-.0319007.46484266-.0957031.68359375s-.1868481.41926992-.3691406.6015625c-.18229263.10937555-.38281146.21419221-.60156255.31445313-.21875109.10026091-.4466134.15039062-.68359375.15039062s-.46484266-.03190072-.68359375-.09570312c-.21875109-.06380241-.41926992-.18684805-.6015625-.36914063-.10937555-.18229258-.21419221-.38281141-.31445313-.6015625-.10026091-.21875109-.15039062-.4466134-.15039062-.68359375s.03190072-.46484266.09570312-.68359375c.06380241-.21875109.18684805-.41926992.36914063-.6015625.18229258-.10937555.38281141-.21419221.6015625-.31445313.21875109-.10026091.4466134-.15039062.68359375-.15039062s.46484266.03645797.68359375.109375.41926992.19140543.60156255.35546875c.1093755.18229258.2141922.38281141.3144531.6015625s.1503906.4466134.1503906.68359375zm0 13.0703125c0 .23698035-.0319007.46484266-.0957031.68359375s-.1868481.41926992-.3691406.60156255c-.18229263.1093755-.38281146.2141922-.60156255.3144531s-.4466134.1503906-.68359375.1503906-.46484266-.036458-.68359375-.109375-.41926992-.1914054-.6015625-.3554687c-.10937555-.18229263-.21419221-.38281146-.31445313-.60156255-.10026091-.21875109-.15039062-.4466134-.15039062-.68359375s.03190072-.46484266.09570312-.68359375c.06380241-.21875109.18684805-.41926992.36914063-.6015625.18229258-.10937555.38281141-.21419221.6015625-.31445313.21875109-.10026091.4466134-.15039062.68359375-.15039062s.46484266.03190072.68359375.09570312c.21875109.06380241.41926992.18684805.60156255.36914063.1093755.18229258.2141922.38281141.3144531.6015625s.1503906.4466134.1503906.68359375z" fill="#858a94" fill-rule="evenodd" transform="matrix(0 1 -1 0 16.001 5.285)"/></svg>