<?xml version="1.0" encoding="UTF-8"?>
<svg width="18px" height="20px" viewBox="0 0 18 20" version="1.1" xmlns="http://www.w3.org/2000/svg" xmlns:xlink="http://www.w3.org/1999/xlink">
    <!-- Generator: Sketch 64 (93537) - https://sketch.com -->
    <title>icon</title>
    <desc>Created with Sketch.</desc>
    <defs>
        <path d="M18.3468751,17.375 C17.6124965,16.3593699 17.1515636,15.2617246 16.9640626,14.0820312 C16.7765617,12.9023379 16.6593754,12.0312528 16.6125001,11.46875 L16.6125001,9.21875 C16.6125001,8.48437133 16.479689,7.7968782 16.2140626,7.15625 C15.9640614,6.49999672 15.6125024,5.93359613 15.1593751,5.45703125 C14.7062479,4.98046637 14.1750032,4.60156391 13.5656251,4.3203125 C12.9718722,4.03906109 12.3312536,3.8984375 11.6437501,3.8984375 C10.9562467,3.8984375 10.3156281,4.03906109 9.72187514,4.3203125 C9.11249709,4.60156391 8.5812524,4.98046637 8.12812514,5.45703125 C7.67499787,5.93359613 7.32343889,6.49999672 7.07343764,7.15625 C6.80781131,7.7968782 6.67500014,8.48437133 6.67500014,9.21875 L6.67500014,11.28125 L6.65156264,11.46875 C6.62031248,12.0312528 6.51093857,12.9023379 6.32343764,14.0820312 C6.1359367,15.2617246 5.67500381,16.3593699 4.94062514,17.375 L18.3468751,17.375 Z M11.6437501,20.46875 C12.221878,20.46875 12.7374979,20.2890643 13.1906251,19.9296875 C13.6437524,19.5703125 13.9406244,19.1171902 14.0812501,18.5703125 L9.20625014,18.5703125 C9.34687584,19.1171902 9.64374787,19.5703125 10.0968751,19.9296875 C10.5500024,20.2890643 11.0656222,20.46875 11.6437501,20.46875 Z M20.0812501,17.515625 C20.1750006,17.6093755 20.2375,17.7148432 20.2687501,17.8320312 C20.3000003,17.9492193 20.2921879,18.0703119 20.2453126,18.1953125 C20.1984374,18.304688 20.1242194,18.3945309 20.0226564,18.4648438 C19.9210934,18.5351566 19.8078133,18.5703125 19.6828126,18.5703125 L15.3000001,18.5703125 C15.1593744,19.4453169 14.7453161,20.1796845 14.0578126,20.7734375 C13.3703092,21.3671905 12.5656297,21.6640625 11.6437501,21.6640625 C10.7218705,21.6640625 9.91719107,21.3671905 9.22968764,20.7734375 C8.5421842,20.1796845 8.12812584,19.4453169 7.98750014,18.5703125 L3.60468764,18.5703125 C3.47968701,18.5703125 3.36640689,18.5351566 3.26484389,18.4648438 C3.16328088,18.3945309 3.08906287,18.304688 3.04218764,18.1953125 C2.9953124,18.0703119 2.98749998,17.9492193 3.01875014,17.8320312 C3.05000029,17.7148432 3.11249967,17.6093755 3.20625014,17.515625 C3.69062756,17.0937479 4.08124865,16.5937529 4.37812514,16.015625 C4.65937654,15.4374971 4.87812435,14.8554717 5.03437514,14.2695312 C5.19062592,13.6835908 5.2921874,13.1328151 5.33906264,12.6171875 C5.40156295,12.1015599 5.44062506,11.6875016 5.45625014,11.375 L5.47968764,11.2109375 L5.47968764,9.21875 C5.47968764,8.43749609 5.60468639,7.69531602 5.85468764,6.9921875 C6.10468889,6.27343391 6.44843545,5.63281531 6.88593764,5.0703125 C7.32343982,4.50780969 7.84687209,4.03125195 8.45625014,3.640625 C9.0500031,3.24999805 9.69843412,2.97656328 10.4015626,2.8203125 C10.3859376,2.78906234 10.3742189,2.75390645 10.3664064,2.71484375 C10.3585938,2.67578105 10.3546876,2.64062516 10.3546876,2.609375 C10.3546876,2.43749914 10.4132808,2.29296934 10.5304689,2.17578125 C10.647657,2.05859316 10.7921868,2 10.9640626,2 L12.3234376,2 C12.4953135,2 12.6398433,2.05859316 12.7570314,2.17578125 C12.8742195,2.29296934 12.9328126,2.43749914 12.9328126,2.609375 C12.9328126,2.64062516 12.9289064,2.67578105 12.9210939,2.71484375 C12.9132813,2.75390645 12.9015627,2.78906234 12.8859376,2.8203125 C13.5890662,2.97656328 14.2374972,3.24999805 14.8312501,3.640625 C15.4406282,4.03125195 15.9640604,4.50780969 16.4015626,5.0703125 C16.8390648,5.63281531 17.1828114,6.27343391 17.4328126,6.9921875 C17.6828139,7.69531602 17.8078126,8.43749609 17.8078126,9.21875 L17.8312501,11.375 C17.8468752,11.6875016 17.8781249,12.1015599 17.9250001,12.6171875 C17.9875004,13.1328151 18.0968744,13.6835908 18.2531251,14.2695312 C18.4093759,14.8554717 18.6281237,15.4374971 18.9093751,16.015625 C19.1906265,16.5937529 19.5812476,17.0937479 20.0812501,17.515625 Z" id="path-1"></path>
    </defs>
    <g id="Symbols" stroke="none" stroke-width="1" fill="none" fill-rule="evenodd">
        <g id="Icons-/-icon-notifications" transform="translate(-3.000000, -2.000000)">
            <mask id="mask-2" fill="white">
                <use xlink:href="#path-1"></use>
            </mask>
            <use id="icon" fill="#FFFFFF" fill-rule="nonzero" xlink:href="#path-1"></use>
            <g id="-overrides-color-/-primary-color" mask="url(#mask-2)" fill="#ffffff">
                <g transform="translate(-2.000000, -2.000000)" id="Rectangle-6">
                    <rect x="0" y="0" width="28" height="28"></rect>
                </g>
            </g>
        </g>
    </g>
</svg>