<svg height="28" viewBox="0 0 28 28" width="28" xmlns="http://www.w3.org/2000/svg"><path d="m242.25558 16.376613c0 .4058429-.0784.7747855-.235203 1.1068387-.156803.3320533-.345886.5903131-.567255.7747871.166027.3505007.30438.7102197.415064 1.0791678.110685.3689481.166026.7563378.166026 1.1621806 0 1.1252917-.387389 2.0753188-1.16218 2.8501098-.774791.7747909-1.724818 1.1621806-2.85011 1.1621806s-2.075319-.3873897-2.85011-1.1621806c-.774791-.774791-1.16218-1.7248181-1.16218-2.8501098 0-.184474.018447-.3366628.055341-.4565709.036895-.1199082.055342-.2444263.055342-.3735581-.239816.0553422-.502687.1106836-.788622.1660258s-.576477.0830129-.871636.0830129c-.516527 0-1.102223-.0461178-1.757106-.1383548s-1.360486-.2859319-2.116829-.5810904h-.138355l-5.893916-3.0714774-.470407.9408129c-.055342.1291318-.138354.2213675-.249038.2767097-.110685.0553422-.221368.0830129-.332052.0830129h-.138355c-.055342 0-.133742-.0230589-.235203-.0691774s-.179861-.0968481-.235203-.1521904l-2.711755-3.0714774c-.110685-.1291318-.170638-.2720971-.179861-.4289-.009224-.1568029.013835-.2905446.069177-.401229l4.122974-6.72404527c.129132-.18447404.25365-.30438037.373558-.35972259.119908-.05534221.272097-.05534221.456571 0l3.071478.83012904c.055342.05534222.133742.11529538.235203.1798613.101461.06456591.179861.16141333.235203.29054516v.11068387l7.332807-1.54957421c.055342-.05534221.12913-.0830129.221367-.0830129s.175249.02767069.249039.0830129l5.42351 2.49038713c.055342.05534221.129131.11990716.221368.19369677.092237.07378962.138354.16602526.138354.27670968l.940813 4.95310332c.350501.2398162.63182.5764763.843965 1.0099903s.318216.8900804.318216 1.3697129zm-21.002265-.9408129.110684-.3597226c.055342-.0553422.092237-.0968482.110684-.1245193.018447-.0276712.027671-.0691772.027671-.1245194l.110684-.1106839 3.182161-6.50267746-1.770942-.47040645-3.541884 5.78323231zm7.664858 2.3520323c1.955425.7010013 3.385078.8900844 4.289.5672548.903923-.3228296 1.328207-.5119126 1.272865-.5672548.055342 0 .110684-.0184471.166026-.055342.055342-.0368948.119907-.0553419.193697-.0553419l5.312825-.6087613c.166027-.0553422.304381-.166025.415065-.3320516s.166026-.368945.166026-.6087613-.055342-.4657936-.166026-.6779387c-.110684-.2121452-.249038-.3827811-.415065-.5119129l-3.209832.2490387-1.99231.1106839c-.110684 0-.20292-.0046118-.276709-.0138355-.07379-.0092237-.138355-.0415062-.193697-.0968484l-1.023826-.5949258c-.682554-.3966192-1.401992-.5949258-2.158335-.5949258-.184474.0737896-.336663.0599542-.456571-.0415065s-.207532-.244426-.262875-.4289c-.055342-.1660266-.041506-.327439.041507-.4842419.083013-.156803.189084-.2720975.318216-.3458871.055342 0 .28132-.1614124.677939-.484242s.677938-.862408.843964-1.6187516c0-.1291318.046118-.2259793.138355-.2905452s.166026-.1245191.221368-.1798613c.129132 0 .230591-.0184471.304381-.0553419.073789-.0368948.166025-.0184477.276709.0553419l1.065333.2213678c.710225.1475792 1.425051.0737907 2.1445-.2213678.110684-.0737896.225978-.0876249.345887-.0415064.119908.0461185.235202.0968481.345887.1521903.055342.0553422.110683.1383543.166026.2490387.055342.1106844.083012.2213672.083012.3320516-.055342.2951585-.059954.6133715-.013835.9546484.046118.341277.124519.5764779.235203.7056097.07379.1106844.129131.225979.166026.3458871s.027671.2352027-.027671.3458871c0 .1291318-.023059.230591-.069177.3043807-.046119.0737896-.069178.1752488-.069178.3043806l1.770942-.1106839-.830129-4.15064516-4.814748-2.24134841-8.052252 1.88162582-2.822439 5.67254845zm7.69253-4.6210517c-.129132-.1660266-.22598-.3781686-.290546-.6364322-.064566-.2582637-.124519-.4704057-.179861-.6364323-.479632.0553422-.940811.059954-1.383548.0138355-.442738-.0461185-.811681-.0968481-1.106839-.1521904-.110684.2951585-.225979.5441947-.345887.7471162-.119908.2029214-.244426.3873927-.373558.5534193.534974.1291319 1.000764.3089914 1.397384.5395839.396619.2305926.677938.4104521.843964.5395839l1.189852-.1383548c.055342-.1660267.092236-.3136037.110684-.4427355.018447-.1291319.064565-.2582618.138355-.3873936zm1.300535 9.9338775c.701001 0 1.305145-.2582597 1.812448-.7747871.507304-.5165273.760952-1.1252825.760952-1.8262839 0-.2951584-.05073-.5857007-.15219-.8716354-.101461-.2859348-.244426-.5488064-.4289-.7886226v-.1106839l-4.233658.4704064c-.129132.1844741-.221368.3873925-.27671.6087613-.055342.2213689-.083013.451958-.083013.6917742 0 .7010014.253648 1.3097566.760952 1.8262839.507303.5165274 1.12067.7747871 1.840119.7747871zm.465993-.235355v-.5519481c.281386-.0649354.492423-.1948042.633116-.3896104.140694-.1948061.211039-.432899.211039-.7142857 0-.346322-.113635-.6006485-.340909-.762987s-.43831-.2759737-.633117-.3409091c-.281386-.1515159-.443722-.2489175-.487013-.2922078-.04329-.0432902-.064935-.1298694-.064935-.2597402 0-.0865805.032468-.1569262.097403-.211039s.173159-.0811688.324675-.0811688c.129871 0 .25974.0216448.389611.0649351.12987.0432902.227272.064935.292207.064935l.129871.1623377.292207-.7142857-2.240259.2613467c-.08658.1576584-.12987.3086381-.12987.452939 0 .3463221.108224.6006485.324675.762987s.432899.2759737.64935.3409091c.281387.0649354.443723.1569258.487013.275974.043291.1190482.064936.2110386.064936.275974 0 .1298708-.059524.2326836-.178572.3084416-.119048.0757579-.243506.1136364-.373377.1136364-.12987 0-.259739-.0324673-.38961-.0974026-.129871-.0649354-.227272-.1298698-.292208-.1948052l-.162337-.1298702-.259741.6818182h.129871c.064935.0649354.183981.1298698.357142.1948052s.335497.0974026.487013.0974026v.6818182z" fill="#858a94" fill-rule="evenodd" transform="translate(-216 -1)"/></svg>