<svg height="22" viewBox="0 0 22 22" width="22" xmlns="http://www.w3.org/2000/svg" xmlns:xlink="http://www.w3.org/1999/xlink"><defs><path id="a" d="m5.23939108 5.23939108v2.99917417h2.99917417v-2.99917417zm-1.24356002-1.24356002h5.48629421v5.48629421h-5.48629421zm-2.75227104 3.77054169h-1.24356002v-5.31758909c0-1.32454138 1.07375294-2.39829433 2.39829433-2.39829433h5.13525674v1.24356002h-5.13525674c-.63774215 0-1.15473431.51699216-1.15473431 1.15473431zm17.38238898-3.77054169v5.48629421h-5.4862943v-5.48629421zm-4.2427342 1.24356002v2.99917417h2.9991741v-2.99917417zm-.1495876-3.99583106v-1.24356002h5.3175891c1.3245414 0 2.3982944 1.07375294 2.3982944 2.39829433v5.13525674h-1.2435601v-5.13525674c0-.63774215-.5169921-1.15473431-1.1547343-1.15473431zm-10.23779614 17.38238898v-5.4862943h5.48629421v5.4862943zm4.24273419-1.2435601v-2.9991741h-2.99917417v2.9991741zm-.4721925 3.3740511v1.24356h-5.31758909c-1.32454138 0-2.39829433-1.0737529-2.39829433-2.3982943v-5.1352568h1.24356002v5.1352568c0 .6377421.51699216 1.1547343 1.15473431 1.1547343zm10.85957625-2.130491h-3.6575295v-3.6575295h3.6575295zm-3.6575295-6.4006766h-1.8287648v-1.8287648h1.8287648zm-2.7431471-6.4006766h-1.8287648v-1.82876474h1.8287648zm-6.4006766 6.4006766h-1.82876474v-1.8287648h1.82876474zm12.8013532 0h-1.8287648v-1.8287648h1.8287648zm2.130491 2.0083548h1.24356v5.3175891c0 1.3245414-1.0737529 2.3982944-2.3982943 2.3982944h-5.1352568v-1.2435601h5.1352568c.6377421 0 1.1547343-.5169921 1.1547343-1.1547343zm-12.79094083-2.1068621v-1.24356h3.81035243v3.8826573h-1.2435601v-2.6390973z"/><mask id="b" fill="#fff"><use fill="#fff" fill-rule="evenodd" xlink:href="#a"/></mask></defs><g fill="none" fill-rule="evenodd"><use fill="#ff9100" fill-rule="nonzero" xlink:href="#a"/><g fill="#3e50b4" mask="url(#b)"><path d="m0 0h28v28h-28z" transform="translate(-1 -1)"/></g></g></svg>