<svg height="28" viewBox="0 0 28 28" width="28" xmlns="http://www.w3.org/2000/svg" xmlns:xlink="http://www.w3.org/1999/xlink"><defs><path id="a" d="m25.0603358 13.4203125c-.1469934 0-.2819573-.0635124-.3994412-.1809963-.1182513-.1182513-.1809964-.2594276-.1809964-.4156587v-1.0379201c0-.3599472-.1568428-.6878913-.4819417-.9933155-.3310957-.3207491-.7415407-.5935132-1.2322163-.81797115-.4963551-.22705603-1.0192557-.39871533-1.5720851-.51569007-.5500814-.12694187-1.0345121-.19012847-1.4526597-.19012847-.4183378 0-.9084444.06323957-1.4720099.19082121-.5496967.116282-1.0725973.2879413-1.5689524.51499733-.4906756.22445795-.9011206.49722205-1.2322163.81797115-.3133402.3035483-.4657242.6321263-.4657242.9933155v1.0379201c0 .1562311-.0627451.2974074-.1809964.4156587s-.2594276.1809963-.4156587.1809963c-.1469934 0-.2819573-.0635124-.3994412-.1809963-.1182513-.1182513-.1809963-.2594276-.1809963-.4156587v-1.0379201c0-.6264478.2101487-1.181007.6289112-1.6579064.4148208-.45966622.9214317-.84032411 1.5187568-1.14177793.5911748-.29834991 1.2234732-.52476241 1.8986929-.67971745.6602323-.14305033 1.256273-.21479597 1.788547-.21479597.5321198 0 1.1333474.07170604 1.8068538.21526205.6731304.15448896 1.3054288.38090146 1.8966036.67925137.5973251.30145382 1.103936.68211171 1.52034 1.14355653.4171793.4751208.627328 1.02968.627328 1.6561278l-.0209176.9549526c.1094061.2031827.1094061.393353-.0350035.5274476-.108472.100724-.2430359.1521749-.3947764.1521749zm-5.2544704-6.50222417c-.4763437 0-.9257325-.08532699-1.350642-.25763755-.4196719-.18147972-.7890981-.42871115-1.1073021-.74123289-.319473-.3137682-.5703652-.68725542-.7499646-1.11403728-.1944816-.42328364-.291679-.88068325-.291679-1.3704627 0-.5009217.0973212-.95890382.2900725-1.36685961.18209-.42108319.4331786-.78630292.7527213-1.09443343.3189295-.30753914.689249-.54682255 1.1098629-.71734171.4211985-.17075617.8705873-.25608316 1.346931-.25608316.4777364 0 .9284424.09128224 1.350642.27385505.4196719.18147972.7890981.42871115 1.1073021.74123289.318966.31327025.5696735.68078464.7506893 1.09941825.1939427.43351898.2909543.89575092.2909543 1.38508173 0 .48977945-.0971974.94717906-.2900725 1.36685962-.1822855.42153534-.4337647.78446554-.7539027 1.08745327-.31871.30163625-.6886181.53780838-1.1086815.70810436-.4211985.17075617-.8705873.25608316-1.346931.25608316zm0-5.80586533c-.6462388 0-1.202714.22810468-1.6784216.68863011-.4738645.45874113-.7089436 1.0214305-.7089436 1.69873506 0 .67848824.2279054 1.24199059.68664 1.70072518s1.022237.68663998 1.7007252.68663998c.6462389 0 1.202714-.22810468 1.6784216-.6886301.4738645-.45874114.7089436-1.02143051.7089436-1.69873506 0-.67730456-.2350791-1.23999393-.7089436-1.69873506-.4757076-.46052543-1.0321827-.68863011-1.6784216-.68863011zm-1.1574279 20.2997562c-.1640633 0-.3190097-.072916-.4648438-.21875-.145834-.1458341-.21875-.309895-.21875-.4921875v-1.75c0-.6927118-.3007782-1.3216118-.9023437-1.8867188-.5833363-.565107-1.3033811-1.0436178-2.1601563-1.4355469-.8567751-.391929-1.7591098-.68815-2.7070312-.8886718-.9479214-.2187511-1.7864547-.328125-2.515625-.328125-.72917031 0-1.57681809.1093739-2.54296875.328125-.94792141.2005218-1.85025613.4967428-2.70703125.8886718-.85677512.3919291-1.57682.8704399-2.16015625 1.4355469s-.875 1.194007-.875 1.8867188v1.75c0 .1822925-.07291594.3463534-.21875.4921875-.14583406.145834-.30989492.21875-.4921875.21875-.16406332 0-.31900969-.072916-.46484375-.21875-.14583406-.1458341-.21875-.309895-.21875-.4921875v-1.75c0-.98438.32812172-1.8502567.984375-2.5976563.67448254-.7473996 1.49934408-1.367185 2.47460937-1.859375.9752653-.4921899 2.01887465-.8658841 3.13085938-1.1210937 1.09375547-.2369804 2.07812062-.3554688 2.953125-.3554688.87500435 0 1.86848405.1184884 2.98046875.3554688 1.1119847.2552096 2.1555941.6289038 3.1308594 1.1210937.9752653.49219 1.8001268 1.1119754 2.4746093 1.859375.6562533.7473996.984375 1.6132763.984375 2.5976563v1.75c.1276049.2369803.1276049.4147129 0 .5332031-.1276048.1184902-.2825511.1777344-.4648437.1777344zm-8.859375-8.9960938c-.76562883 0-1.48567371-.1367174-2.16015625-.4101562-.67448254-.2916682-1.26692453-.6881486-1.77734375-1.1894532-.51041922-.5013045-.91145687-1.09830379-1.203125-1.79101558-.30989738-.67448254-.46484375-1.40364192-.46484375-2.1875 0-.80208735.15494637-1.53124672.46484375-2.1875.29166813-.67448254.69270578-1.25781004 1.203125-1.75s1.10286121-.87499864 1.77734375-1.1484375c.67448254-.27343887 1.39452742-.41015625 2.16015625-.41015625.7656288 0 1.4856737.14583187 2.1601563.4375.6744825.29166812 1.2669245.68814853 1.7773437 1.18945312s.9114569 1.08918934 1.203125 1.76367188c.3098974.69271179.4648437 1.43098566.4648437 2.21484375 0 .78385808-.1549463 1.51301746-.4648437 2.1875-.2916681.67448254-.6927058 1.25325278-1.203125 1.73632808-.5104192.4830754-1.1028612.8613268-1.7773437 1.1347657-.6744826.2734388-1.3945275.4101562-2.1601563.4101562zm0-9.78906248c-1.1666725 0-2.17838113.41470939-3.03515625 1.24414062s-1.28515625 1.8548116-1.28515625 3.07617188c0 1.22136027.41470939 2.24674064 1.24414062 3.07617188.82943124.8294312 1.85481161 1.2441406 3.07617188 1.2441406 1.1666725 0 2.1783811-.4147094 3.0351563-1.2441406.8567751-.82943124 1.2851562-1.85481161 1.2851562-3.07617188 0-1.22136028-.4283811-2.24674065-1.2851562-3.07617188-.8567752-.82943123-1.8684838-1.24414062-3.0351563-1.24414062z"/><mask id="b" fill="#fff"><use fill="#fff" fill-rule="evenodd" xlink:href="#a"/></mask></defs><g fill="none" fill-rule="evenodd" transform="translate(1.5 3.75)"><use fill="#ff9100" fill-rule="nonzero" stroke="#858a94" stroke-width=".2" xlink:href="#a"/><g fill="#858a94" mask="url(#b)"><path d="m0 0h33v33h-33z" transform="translate(-4.333 -4.333)"/></g></g></svg>