<svg height="54" viewBox="0 0 54 54" width="54" xmlns="http://www.w3.org/2000/svg"><path d="m181 77.7242268c2.969087 0 5.543804 1.0901953 7.724227 3.2706186 2.180423 2.1804232 3.270618 4.7551398 3.270618 7.7242268 0 3.1082629-1.055401 5.7061751-3.166237 7.7938144-2.110835 2.0876393-4.720345 3.1314433-7.828608 3.1314433s-5.717773-1.0785975-7.828608-3.2358247c-2.110836-2.1572273-3.166237-4.720346-3.166237-7.689433 0-3.154655 1.090195-5.7757628 3.270618-7.8634021s4.75514-3.1314433 7.724227-3.1314433zm0 18.6494845c2.087639 0 3.850508-.7538584 5.28866-2.2615979 1.438151-1.5077395 2.157216-3.2126194 2.157216-5.1146907 0-2.0876393-.719065-3.8505083-2.157216-5.2886598-1.438152-1.4381515-3.201021-2.1572165-5.28866-2.1572165s-3.850508.719065-5.28866 2.1572165c-1.438151 1.4381515-2.157216 3.2010205-2.157216 5.2886598s.719065 3.8389104 2.157216 5.253866c1.438152 1.4149555 3.201021 2.1224226 5.28866 2.1224226zm0-26.3737113c3.711359 0 7.213901.6958693 10.507732 2.0876289 3.247439 1.4381515 6.100503 3.3865856 8.559278 5.8453608s4.40721 5.3118394 5.845361 8.5592783c1.39176 3.2938309 2.087629 6.7963732 2.087629 10.507732 0 3.711359-.695869 7.213901-2.087629 10.507732-1.438151 3.247439-3.386586 6.100503-5.845361 8.559278s-5.311839 4.40721-8.559278 5.845361c-3.293831 1.39176-6.796373 2.087629-10.507732 2.087629s-7.213901-.695869-10.507732-2.087629c-3.247439-1.438151-6.100503-3.386586-8.559278-5.845361s-4.40721-5.311839-5.845361-8.559278c-1.39176-3.293831-2.087629-6.796373-2.087629-10.507732 0-3.7113588.695869-7.2139011 2.087629-10.507732 1.438151-3.2474389 3.386586-6.1005031 5.845361-8.5592783s5.311839-4.4072093 8.559278-5.8453608c3.293831-1.3917596 6.796373-2.0876289 10.507732-2.0876289zm-15.170103 45.440722c2.087639 1.623719 4.430399 2.911077 7.02835 3.862113 2.597952.951036 5.311842 1.426546 8.141753 1.426546s5.543801-.47551 8.141753-1.426546c2.597951-.951036 4.940711-2.238394 7.02835-3.862113v-3.270619c0-1.345367-.556695-2.528345-1.670103-3.548969-1.067016-1.067016-2.37757-1.94845-3.931701-2.64433-1.554132-.69588-3.21262-1.229379-4.975515-1.600515-1.716504-.371136-3.247416-.556701-4.592784-.556701s-2.87628.20876-4.592784.626288c-1.762895.371136-3.421383.916234-4.975515 1.63531-1.554131.719075-2.864685 1.588912-3.931701 2.609536-1.113408 1.020623-1.670103 2.180406-1.670103 3.479381zm33.610825-3.270619c1.623719-2.087639 2.911077-4.430399 3.862113-7.02835.951036-2.597952 1.426546-5.3118419 1.426546-8.141753 0-3.2474389-.626282-6.3324596-1.878866-9.2551546-1.252583-2.8763031-2.945865-5.3814327-5.079896-7.515464-2.134032-2.1340312-4.639161-3.8273133-7.515464-5.0798969-2.922695-1.2525835-6.007716-1.8788659-9.255155-1.8788659s-6.33246.6262824-9.255155 1.8788659c-2.876303 1.2525836-5.381432 2.9458657-7.515464 5.0798969-2.134031 2.1340313-3.827313 4.6391609-5.079896 7.515464-1.252584 2.922695-1.878866 6.0077157-1.878866 9.2551546 0 2.8299111.47551 5.543801 1.426546 8.141753.951036 2.597951 2.238394 4.940711 3.862113 7.02835.092784-1.855679.788654-3.50257 2.087629-4.940722 1.345368-1.391759 2.957465-2.563139 4.83634-3.514175 1.878876-.951035 3.862103-1.658503 5.949743-2.122422 2.087639-.510312 3.943291-.765464 5.56701-.765464s3.479371.255152 5.56701.765464c2.08764.463919 4.070867 1.171387 5.949743 2.122422 1.878875.951036 3.490972 2.122416 4.83634 3.514175 1.298975 1.438152 1.994845 3.085043 2.087629 4.940722z" fill="#c3c7ce" fill-rule="evenodd" transform="translate(-154 -70)"/></svg>